<?xml version="1.0" encoding="UTF-8" standalone="no"?>
<svg
   xmlns:dc="http://purl.org/dc/elements/1.1/"
   xmlns:cc="http://creativecommons.org/ns#"
   xmlns:rdf="http://www.w3.org/1999/02/22-rdf-syntax-ns#"
   xmlns:svg="http://www.w3.org/2000/svg"
   xmlns="http://www.w3.org/2000/svg"
   xmlns:sodipodi="http://sodipodi.sourceforge.net/DTD/sodipodi-0.dtd"
   xmlns:inkscape="http://www.inkscape.org/namespaces/inkscape"
   color-interpolation="auto"
   color-rendering="auto"
   fill="black"
   fill-opacity="1"
   font-family="'Dialog'"
   font-size="12"
   font-style="normal"
   font-weight="normal"
   height="556"
   image-rendering="auto"
   shape-rendering="auto"
   stroke="black"
   stroke-dasharray="none"
   stroke-dashoffset="0"
   stroke-linecap="square"
   stroke-linejoin="miter"
   stroke-miterlimit="10"
   stroke-opacity="1"
   stroke-width="1"
   text-rendering="auto"
   width="669"
   id="svg2"
   version="1.1"
   inkscape:version="0.48.4 r9939"
   sodipodi:docname="and_RegT1.eps">
  <metadata
     id="metadata289">
    <rdf:RDF>
      <cc:Work
         rdf:about="">
        <dc:format>image/svg+xml</dc:format>
        <dc:type
           rdf:resource="http://purl.org/dc/dcmitype/StillImage" />
        <dc:title></dc:title>
      </cc:Work>
    </rdf:RDF>
  </metadata>
  <sodipodi:namedview
     pagecolor="#ffffff"
     bordercolor="#666666"
     borderopacity="1"
     objecttolerance="10"
     gridtolerance="10"
     guidetolerance="10"
     inkscape:pageopacity="0"
     inkscape:pageshadow="2"
     inkscape:window-width="1851"
     inkscape:window-height="1053"
     id="namedview287"
     showgrid="false"
     inkscape:zoom="1.2005554"
     inkscape:cx="227.26204"
     inkscape:cy="222.14941"
     inkscape:window-x="69"
     inkscape:window-y="27"
     inkscape:window-maximized="1"
     inkscape:current-layer="svg2" />
  <!--Generated by the Batik Graphics2D SVG Generator-->
  <defs
     id="genericDefs" />
  <g
     id="g5">
    <g
       fill="white"
       stroke="white"
       transform="matrix(50,0,0,50,106.947,118.9529)"
       id="g7">
      <circle
         cx="0"
         cy="0"
         r="0.45"
         stroke="none"
         id="circle9"
         d="M 0.44999999,0 C 0.44999999,0.24852813 0.24852813,0.44999999 0,0.44999999 -0.24852813,0.44999999 -0.44999999,0.24852813 -0.44999999,0 c 0,-0.24852813 0.20147186,-0.44999999 0.44999999,-0.44999999 0.24852813,0 0.44999999,0.20147186 0.44999999,0.44999999 z" />
    </g>
    <g
       stroke-width="0.1"
       transform="matrix(50,0,0,50,106.947,118.9529)"
       id="g11">
      <circle
         cx="0"
         cy="0"
         fill="none"
         r="0.45"
         id="circle13"
         d="M 0.44999999,0 C 0.44999999,0.24852813 0.24852813,0.44999999 0,0.44999999 -0.24852813,0.44999999 -0.44999999,0.24852813 -0.44999999,0 c 0,-0.24852813 0.20147186,-0.44999999 0.44999999,-0.44999999 0.24852813,0 0.44999999,0.20147186 0.44999999,0.44999999 z" />
      <path
         d="M0.3585 0 L0.3585 -0.0155 L0.3495 -0.0155 C0.3195 -0.0155 0.3125 -0.019 0.307 -0.0355 L0.199 -0.348 C0.1965 -0.3545 0.1955 -0.358 0.1875 -0.358 C0.1795 -0.358 0.178 -0.355 0.1755 -0.348 L0.072 -0.049 C0.063 -0.0235 0.043 -0.016 0.016 -0.0155 L0.016 0 C0.016 0 0.067 -0.0015 0.067 -0.0015 C0.067 -0.0015 0.1245 0 0.1245 0 L0.1245 -0.0155 C0.0995 -0.0155 0.087 -0.028 0.087 -0.041 C0.087 -0.0425 0.0875 -0.0475 0.088 -0.0485 L0.111 -0.114 L0.2345 -0.114 L0.261 -0.0375 C0.2615 -0.0355 0.2625 -0.0325 0.2625 -0.0305 C0.2625 -0.0155 0.2345 -0.0155 0.221 -0.0155 L0.221 0 C0.239 -0.0015 0.274 -0.0015 0.293 -0.0015 C0.293 -0.0015 0.3585 0 0.3585 0 ZM0.229 -0.1295 L0.1165 -0.1295 L0.1725 -0.292 L0.229 -0.1295 Z"
         stroke="none"
         transform="translate(-1.8008,-0.65)"
         id="path15" />
      <path
         d="M0.65 -0.129 L0.6375 -0.129 C0.632 -0.078 0.625 -0.0155 0.537 -0.0155 L0.496 -0.0155 C0.4725 -0.0155 0.4715 -0.019 0.4715 -0.0355 L0.4715 -0.302 C0.4715 -0.319 0.4715 -0.326 0.519 -0.326 L0.5355 -0.326 L0.5355 -0.3415 C0.5175 -0.34 0.472 -0.34 0.4515 -0.34 C0.432 -0.34 0.393 -0.34 0.3755 -0.3415 L0.3755 -0.326 L0.3875 -0.326 C0.426 -0.326 0.427 -0.3205 0.427 -0.3025 L0.427 -0.039 C0.427 -0.021 0.426 -0.0155 0.3875 -0.0155 L0.3755 -0.0155 L0.3755 0 L0.636 0 L0.65 -0.129 Z"
         stroke="none"
         transform="translate(-1.8008,-0.65)"
         id="path17" />
      <path
         d="M1.013 -0.326 L1.013 -0.3415 C1.013 -0.3415 0.954 -0.34 0.954 -0.34 C0.954 -0.34 0.8945 -0.3415 0.8945 -0.3415 L0.8945 -0.326 C0.946 -0.326 0.946 -0.3025 0.946 -0.289 L0.946 -0.1155 C0.946 -0.0445 0.8975 -0.0045 0.85 -0.0045 C0.8265 -0.0045 0.7675 -0.017 0.7675 -0.112 L0.7675 -0.3025 C0.7675 -0.3205 0.7685 -0.326 0.807 -0.326 L0.819 -0.326 L0.819 -0.3415 C0.8015 -0.34 0.7645 -0.34 0.7455 -0.34 C0.7265 -0.34 0.689 -0.34 0.6715 -0.3415 L0.6715 -0.326 L0.6835 -0.326 C0.722 -0.326 0.723 -0.3205 0.723 -0.3025 L0.723 -0.114 C0.723 -0.0435 0.781 0.011 0.849 0.011 C0.9065 0.011 0.9515 -0.0355 0.96 -0.0925 C0.9615 -0.1025 0.9615 -0.107 0.9615 -0.127 L0.9615 -0.287 C0.9615 -0.3035 0.9615 -0.326 1.013 -0.326 Z"
         stroke="none"
         transform="translate(-1.8008,-0.65)"
         id="path19" />
      <path
         d="M1.1095 -0.189 C1.1095 -0.2035 1.0975 -0.2155 1.083 -0.2155 C1.0685 -0.2155 1.0565 -0.2035 1.0565 -0.189 C1.0565 -0.1745 1.0685 -0.1625 1.083 -0.1625 C1.0975 -0.1625 1.1095 -0.1745 1.1095 -0.189 ZM1.1095 -0.0265 C1.1095 -0.041 1.0975 -0.053 1.083 -0.053 C1.0685 -0.053 1.0565 -0.041 1.0565 -0.0265 C1.0565 -0.012 1.0685 0 1.083 0 C1.0975 0 1.1095 -0.012 1.1095 -0.0265 Z"
         stroke="none"
         transform="translate(-1.8008,-0.65)"
         id="path21" />
      <path
         d="M1.4555 -0.064 C1.4555 -0.0905 1.4405 -0.1055 1.4345 -0.1115 C1.418 -0.1275 1.3985 -0.1315 1.3775 -0.1355 C1.3495 -0.141 1.316 -0.1475 1.316 -0.1765 C1.316 -0.194 1.329 -0.2145 1.372 -0.2145 C1.427 -0.2145 1.4295 -0.1695 1.4305 -0.154 C1.431 -0.1495 1.4365 -0.1495 1.4365 -0.1495 C1.443 -0.1495 1.443 -0.152 1.443 -0.1615 L1.443 -0.212 C1.443 -0.2205 1.443 -0.224 1.4375 -0.224 C1.435 -0.224 1.434 -0.224 1.4275 -0.218 C1.426 -0.216 1.421 -0.2115 1.419 -0.21 C1.4 -0.224 1.3795 -0.224 1.372 -0.224 C1.311 -0.224 1.292 -0.1905 1.292 -0.1625 C1.292 -0.145 1.3 -0.131 1.3135 -0.12 C1.3295 -0.107 1.3435 -0.104 1.3795 -0.097 C1.3905 -0.095 1.4315 -0.087 1.4315 -0.051 C1.4315 -0.0255 1.414 -0.0055 1.375 -0.0055 C1.333 -0.0055 1.315 -0.034 1.3055 -0.0765 C1.304 -0.083 1.3035 -0.085 1.2985 -0.085 C1.292 -0.085 1.292 -0.0815 1.292 -0.0725 L1.292 -0.0065 C1.292 0.002 1.292 0.0055 1.2975 0.0055 C1.3 0.0055 1.3005 0.005 1.31 -0.0045 C1.311 -0.0055 1.311 -0.0065 1.32 -0.016 C1.342 0.005 1.3645 0.0055 1.375 0.0055 C1.4325 0.0055 1.4555 -0.028 1.4555 -0.064 Z"
         stroke="none"
         transform="translate(-1.8008,-0.65)"
         id="path23" />
      <path
         d="M1.7235 0 L1.7235 -0.0155 C1.6975 -0.0155 1.685 -0.0155 1.6845 -0.0305 L1.6845 -0.126 C1.6845 -0.169 1.6845 -0.1845 1.669 -0.2025 C1.662 -0.211 1.6455 -0.221 1.6165 -0.221 C1.5745 -0.221 1.5525 -0.191 1.5445 -0.173 L1.544 -0.173 L1.544 -0.347 L1.472 -0.3415 L1.472 -0.326 C1.507 -0.326 1.511 -0.3225 1.511 -0.298 L1.511 -0.038 C1.511 -0.0155 1.5055 -0.0155 1.472 -0.0155 L1.472 0 C1.472 0 1.5285 -0.0015 1.5285 -0.0015 C1.5285 -0.0015 1.5845 0 1.5845 0 L1.5845 -0.0155 C1.551 -0.0155 1.5455 -0.0155 1.5455 -0.038 L1.5455 -0.13 C1.5455 -0.182 1.581 -0.21 1.613 -0.21 C1.6445 -0.21 1.65 -0.183 1.65 -0.1545 L1.65 -0.038 C1.65 -0.0155 1.6445 -0.0155 1.611 -0.0155 L1.611 0 C1.611 0 1.6675 -0.0015 1.6675 -0.0015 C1.6675 -0.0015 1.7235 0 1.7235 0 Z"
         stroke="none"
         transform="translate(-1.8008,-0.65)"
         id="path25" />
      <path
         d="M1.845 0 L1.845 -0.0155 C1.8115 -0.0155 1.806 -0.0155 1.806 -0.038 L1.806 -0.347 L1.734 -0.3415 L1.734 -0.326 C1.769 -0.326 1.773 -0.3225 1.773 -0.298 L1.773 -0.038 C1.773 -0.0155 1.7675 -0.0155 1.734 -0.0155 L1.734 0 C1.734 0 1.7895 -0.0015 1.7895 -0.0015 C1.7895 -0.0015 1.845 0 1.845 0 Z"
         stroke="none"
         transform="translate(-1.8008,-0.65)"
         id="path27" />
      <path
         d="M2.2055 -0.044 C2.2055 -0.047 2.2055 -0.0525 2.199 -0.0525 C2.1935 -0.0525 2.1935 -0.048 2.193 -0.0445 C2.19 -0.009 2.1725 0 2.16 0 C2.1355 0 2.1315 -0.0255 2.1245 -0.072 L2.118 -0.112 C2.109 -0.144 2.0845 -0.1605 2.057 -0.17 C2.1055 -0.182 2.1445 -0.2125 2.1445 -0.2515 C2.1445 -0.2995 2.0875 -0.3415 2.014 -0.3415 L1.857 -0.3415 L1.857 -0.326 L1.869 -0.326 C1.9075 -0.326 1.9085 -0.3205 1.9085 -0.3025 L1.9085 -0.039 C1.9085 -0.021 1.9075 -0.0155 1.869 -0.0155 L1.857 -0.0155 L1.857 0 C1.875 -0.0015 1.9105 -0.0015 1.93 -0.0015 C1.9495 -0.0015 1.985 -0.0015 2.003 0 L2.003 -0.0155 L1.991 -0.0155 C1.9525 -0.0155 1.9515 -0.021 1.9515 -0.039 L1.9515 -0.1655 L2.009 -0.1655 C2.017 -0.1655 2.038 -0.1655 2.0555 -0.1485 C2.0745 -0.1305 2.0745 -0.115 2.0745 -0.0815 C2.0745 -0.049 2.0745 -0.029 2.095 -0.01 C2.1155 0.008 2.143 0.011 2.158 0.011 C2.197 0.011 2.2055 -0.03 2.2055 -0.044 ZM2.093 -0.2515 C2.093 -0.217 2.081 -0.1765 2.007 -0.1765 L1.9515 -0.1765 L1.9515 -0.306 C1.9515 -0.3175 1.9515 -0.3235 1.9625 -0.325 C1.9675 -0.326 1.982 -0.326 1.992 -0.326 C2.037 -0.326 2.093 -0.324 2.093 -0.2515 Z"
         stroke="none"
         transform="translate(-1.8008,-0.65)"
         id="path29" />
      <path
         d="M2.3975 -0.0595 C2.3975 -0.0645 2.3935 -0.0655 2.391 -0.0655 C2.3865 -0.0655 2.3855 -0.0625 2.3845 -0.0585 C2.367 -0.007 2.322 -0.007 2.317 -0.007 C2.292 -0.007 2.272 -0.022 2.2605 -0.0405 C2.2455 -0.0645 2.2455 -0.0975 2.2455 -0.1155 L2.385 -0.1155 C2.396 -0.1155 2.3975 -0.1155 2.3975 -0.126 C2.3975 -0.1755 2.3705 -0.224 2.308 -0.224 C2.25 -0.224 2.204 -0.1725 2.204 -0.11 C2.204 -0.043 2.2565 0.0055 2.314 0.0055 C2.375 0.0055 2.3975 -0.05 2.3975 -0.0595 ZM2.3645 -0.126 L2.246 -0.126 C2.249 -0.2005 2.291 -0.213 2.308 -0.213 C2.3595 -0.213 2.3645 -0.1455 2.3645 -0.126 Z"
         stroke="none"
         transform="translate(-1.8008,-0.65)"
         id="path31" />
      <path
         d="M2.6405 -0.202 C2.6405 -0.2105 2.6345 -0.2265 2.615 -0.2265 C2.605 -0.2265 2.583 -0.2235 2.562 -0.203 C2.541 -0.2195 2.52 -0.221 2.509 -0.221 C2.4625 -0.221 2.428 -0.1865 2.428 -0.148 C2.428 -0.126 2.439 -0.107 2.4515 -0.0965 C2.445 -0.089 2.436 -0.0725 2.436 -0.055 C2.436 -0.0395 2.4425 -0.0205 2.458 -0.0105 C2.428 -0.002 2.412 0.0195 2.412 0.0395 C2.412 0.0755 2.4615 0.103 2.5225 0.103 C2.5815 0.103 2.6335 0.0775 2.6335 0.0385 C2.6335 0.021 2.6265 -0.0045 2.601 -0.0185 C2.5745 -0.0325 2.5455 -0.0325 2.515 -0.0325 C2.5025 -0.0325 2.481 -0.0325 2.4775 -0.033 C2.4615 -0.035 2.451 -0.0505 2.451 -0.0665 C2.451 -0.0685 2.451 -0.08 2.4595 -0.09 C2.479 -0.076 2.4995 -0.0745 2.509 -0.0745 C2.5555 -0.0745 2.59 -0.109 2.59 -0.1475 C2.59 -0.166 2.582 -0.1845 2.5695 -0.196 C2.5875 -0.213 2.6055 -0.2155 2.6145 -0.2155 C2.6145 -0.2155 2.618 -0.2155 2.6195 -0.215 C2.614 -0.213 2.6115 -0.2075 2.6115 -0.2015 C2.6115 -0.193 2.618 -0.187 2.626 -0.187 C2.631 -0.187 2.6405 -0.1905 2.6405 -0.202 ZM2.5525 -0.148 C2.5525 -0.1345 2.552 -0.1185 2.5445 -0.106 C2.5405 -0.1 2.529 -0.086 2.509 -0.086 C2.4655 -0.086 2.4655 -0.136 2.4655 -0.1475 C2.4655 -0.161 2.466 -0.177 2.4735 -0.1895 C2.4775 -0.1955 2.489 -0.2095 2.509 -0.2095 C2.5525 -0.2095 2.5525 -0.1595 2.5525 -0.148 ZM2.6075 0.0395 C2.6075 0.0665 2.572 0.0915 2.523 0.0915 C2.4725 0.0915 2.438 0.066 2.438 0.0395 C2.438 0.0165 2.457 -0.002 2.479 -0.0035 L2.5085 -0.0035 C2.5515 -0.0035 2.6075 -0.0035 2.6075 0.0395 Z"
         stroke="none"
         transform="translate(-1.8008,-0.65)"
         id="path33" />
      <path
         d="M2.8005 0 L2.8005 -0.0155 L2.7875 -0.0155 C2.748 -0.0155 2.7465 -0.021 2.7465 -0.039 L2.7465 -0.3025 C2.7465 -0.3205 2.748 -0.326 2.7875 -0.326 L2.8005 -0.326 L2.8005 -0.3415 C2.783 -0.34 2.7435 -0.34 2.7245 -0.34 C2.705 -0.34 2.6655 -0.34 2.648 -0.3415 L2.648 -0.326 L2.661 -0.326 C2.7005 -0.326 2.702 -0.3205 2.702 -0.3025 L2.702 -0.039 C2.702 -0.021 2.7005 -0.0155 2.661 -0.0155 L2.648 -0.0155 L2.648 0 C2.6655 -0.0015 2.705 -0.0015 2.724 -0.0015 C2.7435 -0.0015 2.783 -0.0015 2.8005 0 Z"
         stroke="none"
         transform="translate(-1.8008,-0.65)"
         id="path35" />
      <path
         d="M3.207 0 L3.207 -0.0155 C3.181 -0.0155 3.1685 -0.0155 3.168 -0.0305 L3.168 -0.126 C3.168 -0.169 3.168 -0.1845 3.1525 -0.2025 C3.1455 -0.211 3.129 -0.221 3.1 -0.221 C3.058 -0.221 3.036 -0.191 3.0275 -0.172 C3.0205 -0.2155 2.9835 -0.221 2.961 -0.221 C2.9245 -0.221 2.901 -0.1995 2.887 -0.1685 L2.887 -0.221 L2.8165 -0.2155 L2.8165 -0.2 C2.8515 -0.2 2.8555 -0.1965 2.8555 -0.172 L2.8555 -0.038 C2.8555 -0.0155 2.85 -0.0155 2.8165 -0.0155 L2.8165 0 C2.8165 0 2.873 -0.0015 2.873 -0.0015 C2.873 -0.0015 2.929 0 2.929 0 L2.929 -0.0155 C2.8955 -0.0155 2.89 -0.0155 2.89 -0.038 L2.89 -0.13 C2.89 -0.182 2.9255 -0.21 2.9575 -0.21 C2.989 -0.21 2.9945 -0.183 2.9945 -0.1545 L2.9945 -0.038 C2.9945 -0.0155 2.989 -0.0155 2.9555 -0.0155 L2.9555 0 C2.9555 0 3.012 -0.0015 3.012 -0.0015 C3.012 -0.0015 3.068 0 3.068 0 L3.068 -0.0155 C3.0345 -0.0155 3.029 -0.0155 3.029 -0.038 L3.029 -0.13 C3.029 -0.182 3.0645 -0.21 3.0965 -0.21 C3.128 -0.21 3.1335 -0.183 3.1335 -0.1545 L3.1335 -0.038 C3.1335 -0.0155 3.128 -0.0155 3.0945 -0.0155 L3.0945 0 C3.0945 0 3.151 -0.0015 3.151 -0.0015 C3.151 -0.0015 3.207 0 3.207 0 Z"
         stroke="none"
         transform="translate(-1.8008,-0.65)"
         id="path37" />
      <path
         d="M3.6075 0 L3.6075 -0.0155 C3.5815 -0.0155 3.569 -0.0155 3.5685 -0.0305 L3.5685 -0.126 C3.5685 -0.169 3.5685 -0.1845 3.553 -0.2025 C3.546 -0.211 3.5295 -0.221 3.5005 -0.221 C3.4585 -0.221 3.4365 -0.191 3.428 -0.172 C3.421 -0.2155 3.384 -0.221 3.3615 -0.221 C3.325 -0.221 3.3015 -0.1995 3.2875 -0.1685 L3.2875 -0.221 L3.217 -0.2155 L3.217 -0.2 C3.252 -0.2 3.256 -0.1965 3.256 -0.172 L3.256 -0.038 C3.256 -0.0155 3.2505 -0.0155 3.217 -0.0155 L3.217 0 C3.217 0 3.2735 -0.0015 3.2735 -0.0015 C3.2735 -0.0015 3.3295 0 3.3295 0 L3.3295 -0.0155 C3.296 -0.0155 3.2905 -0.0155 3.2905 -0.038 L3.2905 -0.13 C3.2905 -0.182 3.326 -0.21 3.358 -0.21 C3.3895 -0.21 3.395 -0.183 3.395 -0.1545 L3.395 -0.038 C3.395 -0.0155 3.3895 -0.0155 3.356 -0.0155 L3.356 0 C3.356 0 3.4125 -0.0015 3.4125 -0.0015 C3.4125 -0.0015 3.4685 0 3.4685 0 L3.4685 -0.0155 C3.435 -0.0155 3.4295 -0.0155 3.4295 -0.038 L3.4295 -0.13 C3.4295 -0.182 3.465 -0.21 3.497 -0.21 C3.5285 -0.21 3.534 -0.183 3.534 -0.1545 L3.534 -0.038 C3.534 -0.0155 3.5285 -0.0155 3.495 -0.0155 L3.495 0 C3.495 0 3.5515 -0.0015 3.5515 -0.0015 C3.5515 -0.0015 3.6075 0 3.6075 0 Z"
         stroke="none"
         transform="translate(-1.8008,-0.65)"
         id="path39" />
    </g>
    <g
       fill="white"
       font-family="'LMRoman10'"
       font-size="0.5"
       stroke="white"
       stroke-width="0.025"
       transform="matrix(50,0,0,50,331.947,118.9529)"
       id="g41">
      <circle
         cx="0"
         cy="0"
         r="0.45"
         stroke="none"
         id="circle43"
         d="M 0.44999999,0 C 0.44999999,0.24852813 0.24852813,0.44999999 0,0.44999999 -0.24852813,0.44999999 -0.44999999,0.24852813 -0.44999999,0 c 0,-0.24852813 0.20147186,-0.44999999 0.44999999,-0.44999999 0.24852813,0 0.44999999,0.20147186 0.44999999,0.44999999 z" />
      <circle
         cx="0"
         cy="0"
         fill="none"
         r="0.45"
         stroke="black"
         stroke-width="0.1"
         id="circle45"
         d="M 0.44999999,0 C 0.44999999,0.24852813 0.24852813,0.44999999 0,0.44999999 -0.24852813,0.44999999 -0.44999999,0.24852813 -0.44999999,0 c 0,-0.24852813 0.20147186,-0.44999999 0.44999999,-0.44999999 0.24852813,0 0.44999999,0.20147186 0.44999999,0.44999999 z" />
      <path
         d="M0.3585 0 L0.3585 -0.0155 L0.3495 -0.0155 C0.3195 -0.0155 0.3125 -0.019 0.307 -0.0355 L0.199 -0.348 C0.1965 -0.3545 0.1955 -0.358 0.1875 -0.358 C0.1795 -0.358 0.178 -0.355 0.1755 -0.348 L0.072 -0.049 C0.063 -0.0235 0.043 -0.016 0.016 -0.0155 L0.016 0 C0.016 0 0.067 -0.0015 0.067 -0.0015 C0.067 -0.0015 0.1245 0 0.1245 0 L0.1245 -0.0155 C0.0995 -0.0155 0.087 -0.028 0.087 -0.041 C0.087 -0.0425 0.0875 -0.0475 0.088 -0.0485 L0.111 -0.114 L0.2345 -0.114 L0.261 -0.0375 C0.2615 -0.0355 0.2625 -0.0325 0.2625 -0.0305 C0.2625 -0.0155 0.2345 -0.0155 0.221 -0.0155 L0.221 0 C0.239 -0.0015 0.274 -0.0015 0.293 -0.0015 C0.293 -0.0015 0.3585 0 0.3585 0 ZM0.229 -0.1295 L0.1165 -0.1295 L0.1725 -0.292 L0.229 -0.1295 Z"
         fill="black"
         stroke="none"
         stroke-width="0.1"
         transform="translate(-1.8968,-0.65)"
         id="path47" />
      <path
         d="M0.65 -0.129 L0.6375 -0.129 C0.632 -0.078 0.625 -0.0155 0.537 -0.0155 L0.496 -0.0155 C0.4725 -0.0155 0.4715 -0.019 0.4715 -0.0355 L0.4715 -0.302 C0.4715 -0.319 0.4715 -0.326 0.519 -0.326 L0.5355 -0.326 L0.5355 -0.3415 C0.5175 -0.34 0.472 -0.34 0.4515 -0.34 C0.432 -0.34 0.393 -0.34 0.3755 -0.3415 L0.3755 -0.326 L0.3875 -0.326 C0.426 -0.326 0.427 -0.3205 0.427 -0.3025 L0.427 -0.039 C0.427 -0.021 0.426 -0.0155 0.3875 -0.0155 L0.3755 -0.0155 L0.3755 0 L0.636 0 L0.65 -0.129 Z"
         fill="black"
         stroke="none"
         stroke-width="0.1"
         transform="translate(-1.8968,-0.65)"
         id="path49" />
      <path
         d="M1.013 -0.326 L1.013 -0.3415 C1.013 -0.3415 0.954 -0.34 0.954 -0.34 C0.954 -0.34 0.8945 -0.3415 0.8945 -0.3415 L0.8945 -0.326 C0.946 -0.326 0.946 -0.3025 0.946 -0.289 L0.946 -0.1155 C0.946 -0.0445 0.8975 -0.0045 0.85 -0.0045 C0.8265 -0.0045 0.7675 -0.017 0.7675 -0.112 L0.7675 -0.3025 C0.7675 -0.3205 0.7685 -0.326 0.807 -0.326 L0.819 -0.326 L0.819 -0.3415 C0.8015 -0.34 0.7645 -0.34 0.7455 -0.34 C0.7265 -0.34 0.689 -0.34 0.6715 -0.3415 L0.6715 -0.326 L0.6835 -0.326 C0.722 -0.326 0.723 -0.3205 0.723 -0.3025 L0.723 -0.114 C0.723 -0.0435 0.781 0.011 0.849 0.011 C0.9065 0.011 0.9515 -0.0355 0.96 -0.0925 C0.9615 -0.1025 0.9615 -0.107 0.9615 -0.127 L0.9615 -0.287 C0.9615 -0.3035 0.9615 -0.326 1.013 -0.326 Z"
         fill="black"
         stroke="none"
         stroke-width="0.1"
         transform="translate(-1.8968,-0.65)"
         id="path51" />
      <path
         d="M1.1095 -0.189 C1.1095 -0.2035 1.0975 -0.2155 1.083 -0.2155 C1.0685 -0.2155 1.0565 -0.2035 1.0565 -0.189 C1.0565 -0.1745 1.0685 -0.1625 1.083 -0.1625 C1.0975 -0.1625 1.1095 -0.1745 1.1095 -0.189 ZM1.1095 -0.0265 C1.1095 -0.041 1.0975 -0.053 1.083 -0.053 C1.0685 -0.053 1.0565 -0.041 1.0565 -0.0265 C1.0565 -0.012 1.0685 0 1.083 0 C1.0975 0 1.1095 -0.012 1.1095 -0.0265 Z"
         fill="black"
         stroke="none"
         stroke-width="0.1"
         transform="translate(-1.8968,-0.65)"
         id="path53" />
      <path
         d="M1.517 -0.0445 L1.517 -0.0725 L1.5045 -0.0725 L1.5045 -0.0445 C1.5045 -0.0155 1.492 -0.0125 1.4865 -0.0125 C1.47 -0.0125 1.468 -0.035 1.468 -0.0375 L1.468 -0.1375 C1.468 -0.1585 1.468 -0.178 1.45 -0.1965 C1.4305 -0.216 1.4055 -0.224 1.3815 -0.224 C1.3405 -0.224 1.306 -0.2005 1.306 -0.1675 C1.306 -0.1525 1.316 -0.144 1.329 -0.144 C1.343 -0.144 1.352 -0.154 1.352 -0.167 C1.352 -0.173 1.3495 -0.1895 1.3265 -0.19 C1.34 -0.2075 1.3645 -0.213 1.3805 -0.213 C1.405 -0.213 1.4335 -0.1935 1.4335 -0.149 L1.4335 -0.1305 C1.408 -0.129 1.373 -0.1275 1.3415 -0.1125 C1.304 -0.0955 1.2915 -0.0695 1.2915 -0.0475 C1.2915 -0.007 1.34 0.0055 1.3715 0.0055 C1.4045 0.0055 1.4275 -0.0145 1.437 -0.038 C1.439 -0.018 1.4525 0.003 1.476 0.003 C1.4865 0.003 1.517 -0.004 1.517 -0.0445 ZM1.4335 -0.07 C1.4335 -0.0225 1.3975 -0.0055 1.375 -0.0055 C1.3505 -0.0055 1.33 -0.023 1.33 -0.048 C1.33 -0.0755 1.351 -0.117 1.4335 -0.12 L1.4335 -0.07 Z"
         fill="black"
         stroke="none"
         stroke-width="0.1"
         transform="translate(-1.8968,-0.65)"
         id="path55" />
      <path
         d="M1.777 0 L1.777 -0.0155 C1.751 -0.0155 1.7385 -0.0155 1.738 -0.0305 L1.738 -0.126 C1.738 -0.169 1.738 -0.1845 1.7225 -0.2025 C1.7155 -0.211 1.699 -0.221 1.67 -0.221 C1.6335 -0.221 1.61 -0.1995 1.596 -0.1685 L1.596 -0.221 L1.5255 -0.2155 L1.5255 -0.2 C1.5605 -0.2 1.5645 -0.1965 1.5645 -0.172 L1.5645 -0.038 C1.5645 -0.0155 1.559 -0.0155 1.5255 -0.0155 L1.5255 0 C1.5255 0 1.582 -0.0015 1.582 -0.0015 C1.582 -0.0015 1.638 0 1.638 0 L1.638 -0.0155 C1.6045 -0.0155 1.599 -0.0155 1.599 -0.038 L1.599 -0.13 C1.599 -0.182 1.6345 -0.21 1.6665 -0.21 C1.698 -0.21 1.7035 -0.183 1.7035 -0.1545 L1.7035 -0.038 C1.7035 -0.0155 1.698 -0.0155 1.6645 -0.0155 L1.6645 0 C1.6645 0 1.721 -0.0015 1.721 -0.0015 C1.721 -0.0015 1.777 0 1.777 0 Z"
         fill="black"
         stroke="none"
         stroke-width="0.1"
         transform="translate(-1.8968,-0.65)"
         id="path57" />
      <path
         d="M2.0345 0 L2.0345 -0.0155 C1.9995 -0.0155 1.9955 -0.019 1.9955 -0.0435 L1.9955 -0.347 L1.9235 -0.3415 L1.9235 -0.326 C1.9585 -0.326 1.9625 -0.3225 1.9625 -0.298 L1.9625 -0.19 C1.948 -0.208 1.9265 -0.221 1.8995 -0.221 C1.8405 -0.221 1.788 -0.172 1.788 -0.1075 C1.788 -0.044 1.837 0.0055 1.894 0.0055 C1.926 0.0055 1.9485 -0.0115 1.961 -0.0275 L1.961 0.0055 L2.0345 0 ZM1.961 -0.059 C1.961 -0.05 1.961 -0.049 1.9555 -0.0405 C1.9405 -0.0165 1.918 -0.0055 1.8965 -0.0055 C1.874 -0.0055 1.856 -0.0185 1.844 -0.0375 C1.831 -0.058 1.8295 -0.0865 1.8295 -0.107 C1.8295 -0.1255 1.8305 -0.1555 1.845 -0.178 C1.8555 -0.1935 1.8745 -0.21 1.9015 -0.21 C1.919 -0.21 1.94 -0.2025 1.9555 -0.18 C1.961 -0.1715 1.961 -0.1705 1.961 -0.1615 L1.961 -0.059 Z"
         fill="black"
         stroke="none"
         stroke-width="0.1"
         transform="translate(-1.8968,-0.65)"
         id="path59" />
      <path
         d="M2.3975 -0.044 C2.3975 -0.047 2.3975 -0.0525 2.391 -0.0525 C2.3855 -0.0525 2.3855 -0.048 2.385 -0.0445 C2.382 -0.009 2.3645 0 2.352 0 C2.3275 0 2.3235 -0.0255 2.3165 -0.072 L2.31 -0.112 C2.301 -0.144 2.2765 -0.1605 2.249 -0.17 C2.2975 -0.182 2.3365 -0.2125 2.3365 -0.2515 C2.3365 -0.2995 2.2795 -0.3415 2.206 -0.3415 L2.049 -0.3415 L2.049 -0.326 L2.061 -0.326 C2.0995 -0.326 2.1005 -0.3205 2.1005 -0.3025 L2.1005 -0.039 C2.1005 -0.021 2.0995 -0.0155 2.061 -0.0155 L2.049 -0.0155 L2.049 0 C2.067 -0.0015 2.1025 -0.0015 2.122 -0.0015 C2.1415 -0.0015 2.177 -0.0015 2.195 0 L2.195 -0.0155 L2.183 -0.0155 C2.1445 -0.0155 2.1435 -0.021 2.1435 -0.039 L2.1435 -0.1655 L2.201 -0.1655 C2.209 -0.1655 2.23 -0.1655 2.2475 -0.1485 C2.2665 -0.1305 2.2665 -0.115 2.2665 -0.0815 C2.2665 -0.049 2.2665 -0.029 2.287 -0.01 C2.3075 0.008 2.335 0.011 2.35 0.011 C2.389 0.011 2.3975 -0.03 2.3975 -0.044 ZM2.285 -0.2515 C2.285 -0.217 2.273 -0.1765 2.199 -0.1765 L2.1435 -0.1765 L2.1435 -0.306 C2.1435 -0.3175 2.1435 -0.3235 2.1545 -0.325 C2.1595 -0.326 2.174 -0.326 2.184 -0.326 C2.229 -0.326 2.285 -0.324 2.285 -0.2515 Z"
         fill="black"
         stroke="none"
         stroke-width="0.1"
         transform="translate(-1.8968,-0.65)"
         id="path61" />
      <path
         d="M2.5895 -0.0595 C2.5895 -0.0645 2.5855 -0.0655 2.583 -0.0655 C2.5785 -0.0655 2.5775 -0.0625 2.5765 -0.0585 C2.559 -0.007 2.514 -0.007 2.509 -0.007 C2.484 -0.007 2.464 -0.022 2.4525 -0.0405 C2.4375 -0.0645 2.4375 -0.0975 2.4375 -0.1155 L2.577 -0.1155 C2.588 -0.1155 2.5895 -0.1155 2.5895 -0.126 C2.5895 -0.1755 2.5625 -0.224 2.5 -0.224 C2.442 -0.224 2.396 -0.1725 2.396 -0.11 C2.396 -0.043 2.4485 0.0055 2.506 0.0055 C2.567 0.0055 2.5895 -0.05 2.5895 -0.0595 ZM2.5565 -0.126 L2.438 -0.126 C2.441 -0.2005 2.483 -0.213 2.5 -0.213 C2.5515 -0.213 2.5565 -0.1455 2.5565 -0.126 Z"
         fill="black"
         stroke="none"
         stroke-width="0.1"
         transform="translate(-1.8968,-0.65)"
         id="path63" />
      <path
         d="M2.8325 -0.202 C2.8325 -0.2105 2.8265 -0.2265 2.807 -0.2265 C2.797 -0.2265 2.775 -0.2235 2.754 -0.203 C2.733 -0.2195 2.712 -0.221 2.701 -0.221 C2.6545 -0.221 2.62 -0.1865 2.62 -0.148 C2.62 -0.126 2.631 -0.107 2.6435 -0.0965 C2.637 -0.089 2.628 -0.0725 2.628 -0.055 C2.628 -0.0395 2.6345 -0.0205 2.65 -0.0105 C2.62 -0.002 2.604 0.0195 2.604 0.0395 C2.604 0.0755 2.6535 0.103 2.7145 0.103 C2.7735 0.103 2.8255 0.0775 2.8255 0.0385 C2.8255 0.021 2.8185 -0.0045 2.793 -0.0185 C2.7665 -0.0325 2.7375 -0.0325 2.707 -0.0325 C2.6945 -0.0325 2.673 -0.0325 2.6695 -0.033 C2.6535 -0.035 2.643 -0.0505 2.643 -0.0665 C2.643 -0.0685 2.643 -0.08 2.6515 -0.09 C2.671 -0.076 2.6915 -0.0745 2.701 -0.0745 C2.7475 -0.0745 2.782 -0.109 2.782 -0.1475 C2.782 -0.166 2.774 -0.1845 2.7615 -0.196 C2.7795 -0.213 2.7975 -0.2155 2.8065 -0.2155 C2.8065 -0.2155 2.81 -0.2155 2.8115 -0.215 C2.806 -0.213 2.8035 -0.2075 2.8035 -0.2015 C2.8035 -0.193 2.81 -0.187 2.818 -0.187 C2.823 -0.187 2.8325 -0.1905 2.8325 -0.202 ZM2.7445 -0.148 C2.7445 -0.1345 2.744 -0.1185 2.7365 -0.106 C2.7325 -0.1 2.721 -0.086 2.701 -0.086 C2.6575 -0.086 2.6575 -0.136 2.6575 -0.1475 C2.6575 -0.161 2.658 -0.177 2.6655 -0.1895 C2.6695 -0.1955 2.681 -0.2095 2.701 -0.2095 C2.7445 -0.2095 2.7445 -0.1595 2.7445 -0.148 ZM2.7995 0.0395 C2.7995 0.0665 2.764 0.0915 2.715 0.0915 C2.6645 0.0915 2.63 0.066 2.63 0.0395 C2.63 0.0165 2.649 -0.002 2.671 -0.0035 L2.7005 -0.0035 C2.7435 -0.0035 2.7995 -0.0035 2.7995 0.0395 Z"
         fill="black"
         stroke="none"
         stroke-width="0.1"
         transform="translate(-1.8968,-0.65)"
         id="path65" />
      <path
         d="M2.9925 0 L2.9925 -0.0155 L2.9795 -0.0155 C2.94 -0.0155 2.9385 -0.021 2.9385 -0.039 L2.9385 -0.3025 C2.9385 -0.3205 2.94 -0.326 2.9795 -0.326 L2.9925 -0.326 L2.9925 -0.3415 C2.975 -0.34 2.9355 -0.34 2.9165 -0.34 C2.897 -0.34 2.8575 -0.34 2.84 -0.3415 L2.84 -0.326 L2.853 -0.326 C2.8925 -0.326 2.894 -0.3205 2.894 -0.3025 L2.894 -0.039 C2.894 -0.021 2.8925 -0.0155 2.853 -0.0155 L2.84 -0.0155 L2.84 0 C2.8575 -0.0015 2.897 -0.0015 2.916 -0.0015 C2.9355 -0.0015 2.975 -0.0015 2.9925 0 Z"
         fill="black"
         stroke="none"
         stroke-width="0.1"
         transform="translate(-1.8968,-0.65)"
         id="path67" />
      <path
         d="M3.399 0 L3.399 -0.0155 C3.373 -0.0155 3.3605 -0.0155 3.36 -0.0305 L3.36 -0.126 C3.36 -0.169 3.36 -0.1845 3.3445 -0.2025 C3.3375 -0.211 3.321 -0.221 3.292 -0.221 C3.25 -0.221 3.228 -0.191 3.2195 -0.172 C3.2125 -0.2155 3.1755 -0.221 3.153 -0.221 C3.1165 -0.221 3.093 -0.1995 3.079 -0.1685 L3.079 -0.221 L3.0085 -0.2155 L3.0085 -0.2 C3.0435 -0.2 3.0475 -0.1965 3.0475 -0.172 L3.0475 -0.038 C3.0475 -0.0155 3.042 -0.0155 3.0085 -0.0155 L3.0085 0 C3.0085 0 3.065 -0.0015 3.065 -0.0015 C3.065 -0.0015 3.121 0 3.121 0 L3.121 -0.0155 C3.0875 -0.0155 3.082 -0.0155 3.082 -0.038 L3.082 -0.13 C3.082 -0.182 3.1175 -0.21 3.1495 -0.21 C3.181 -0.21 3.1865 -0.183 3.1865 -0.1545 L3.1865 -0.038 C3.1865 -0.0155 3.181 -0.0155 3.1475 -0.0155 L3.1475 0 C3.1475 0 3.204 -0.0015 3.204 -0.0015 C3.204 -0.0015 3.26 0 3.26 0 L3.26 -0.0155 C3.2265 -0.0155 3.221 -0.0155 3.221 -0.038 L3.221 -0.13 C3.221 -0.182 3.2565 -0.21 3.2885 -0.21 C3.32 -0.21 3.3255 -0.183 3.3255 -0.1545 L3.3255 -0.038 C3.3255 -0.0155 3.32 -0.0155 3.2865 -0.0155 L3.2865 0 C3.2865 0 3.343 -0.0015 3.343 -0.0015 C3.343 -0.0015 3.399 0 3.399 0 Z"
         fill="black"
         stroke="none"
         stroke-width="0.1"
         transform="translate(-1.8968,-0.65)"
         id="path69" />
      <path
         d="M3.7995 0 L3.7995 -0.0155 C3.7735 -0.0155 3.761 -0.0155 3.7605 -0.0305 L3.7605 -0.126 C3.7605 -0.169 3.7605 -0.1845 3.745 -0.2025 C3.738 -0.211 3.7215 -0.221 3.6925 -0.221 C3.6505 -0.221 3.6285 -0.191 3.62 -0.172 C3.613 -0.2155 3.576 -0.221 3.5535 -0.221 C3.517 -0.221 3.4935 -0.1995 3.4795 -0.1685 L3.4795 -0.221 L3.409 -0.2155 L3.409 -0.2 C3.444 -0.2 3.448 -0.1965 3.448 -0.172 L3.448 -0.038 C3.448 -0.0155 3.4425 -0.0155 3.409 -0.0155 L3.409 0 C3.409 0 3.4655 -0.0015 3.4655 -0.0015 C3.4655 -0.0015 3.5215 0 3.5215 0 L3.5215 -0.0155 C3.488 -0.0155 3.4825 -0.0155 3.4825 -0.038 L3.4825 -0.13 C3.4825 -0.182 3.518 -0.21 3.55 -0.21 C3.5815 -0.21 3.587 -0.183 3.587 -0.1545 L3.587 -0.038 C3.587 -0.0155 3.5815 -0.0155 3.548 -0.0155 L3.548 0 C3.548 0 3.6045 -0.0015 3.6045 -0.0015 C3.6045 -0.0015 3.6605 0 3.6605 0 L3.6605 -0.0155 C3.627 -0.0155 3.6215 -0.0155 3.6215 -0.038 L3.6215 -0.13 C3.6215 -0.182 3.657 -0.21 3.689 -0.21 C3.7205 -0.21 3.726 -0.183 3.726 -0.1545 L3.726 -0.038 C3.726 -0.0155 3.7205 -0.0155 3.687 -0.0155 L3.687 0 C3.687 0 3.7435 -0.0015 3.7435 -0.0015 C3.7435 -0.0015 3.7995 0 3.7995 0 Z"
         fill="black"
         stroke="none"
         stroke-width="0.1"
         transform="translate(-1.8968,-0.65)"
         id="path71" />
    </g>
    <g
       fill="white"
       font-family="'LMRoman10'"
       font-size="0.5"
       stroke="white"
       stroke-width="0.025"
       transform="matrix(50,0,0,50,581.947,68.9529)"
       id="g73">
      <circle
         cx="0"
         cy="0"
         r="0.45"
         stroke="none"
         id="circle75"
         d="M 0.44999999,0 C 0.44999999,0.24852813 0.24852813,0.44999999 0,0.44999999 -0.24852813,0.44999999 -0.44999999,0.24852813 -0.44999999,0 c 0,-0.24852813 0.20147186,-0.44999999 0.44999999,-0.44999999 0.24852813,0 0.44999999,0.20147186 0.44999999,0.44999999 z" />
      <circle
         cx="0"
         cy="0"
         fill="none"
         r="0.45"
         stroke="black"
         stroke-width="0.1"
         id="circle77"
         d="M 0.44999999,0 C 0.44999999,0.24852813 0.24852813,0.44999999 0,0.44999999 -0.24852813,0.44999999 -0.44999999,0.24852813 -0.44999999,0 c 0,-0.24852813 0.20147186,-0.44999999 0.44999999,-0.44999999 0.24852813,0 0.44999999,0.20147186 0.44999999,0.44999999 z" />
      <path
         d="M0.3515 -0.2 L0.3515 -0.2155 C0.3405 -0.2145 0.326 -0.214 0.315 -0.214 C0.315 -0.214 0.2685 -0.2155 0.2685 -0.2155 L0.2685 -0.2 C0.2865 -0.1995 0.2975 -0.1905 0.2975 -0.176 C0.2975 -0.173 0.2975 -0.172 0.295 -0.1655 L0.2495 -0.0375 L0.2 -0.177 C0.198 -0.183 0.1975 -0.184 0.1975 -0.1865 C0.1975 -0.2 0.217 -0.2 0.227 -0.2 L0.227 -0.2155 C0.227 -0.2155 0.175 -0.214 0.175 -0.214 C0.16 -0.214 0.1455 -0.2145 0.1305 -0.2155 L0.1305 -0.2 C0.149 -0.2 0.157 -0.199 0.162 -0.1925 C0.1645 -0.1895 0.17 -0.1745 0.1735 -0.165 L0.1305 -0.044 L0.083 -0.1775 C0.0805 -0.1835 0.0805 -0.1845 0.0805 -0.1865 C0.0805 -0.2 0.1 -0.2 0.11 -0.2 L0.11 -0.2155 C0.11 -0.2155 0.0555 -0.214 0.0555 -0.214 C0.0555 -0.214 0.009 -0.2155 0.009 -0.2155 L0.009 -0.2 C0.034 -0.2 0.04 -0.1985 0.046 -0.1825 L0.109 -0.0055 C0.1115 0.0015 0.113 0.0055 0.1195 0.0055 C0.126 0.0055 0.127 0.0025 0.1295 -0.0045 L0.18 -0.146 L0.231 -0.004 C0.233 0.0015 0.2345 0.0055 0.241 0.0055 C0.2475 0.0055 0.249 0.001 0.251 -0.004 L0.3095 -0.168 C0.3185 -0.193 0.334 -0.1995 0.3515 -0.2 Z"
         fill="black"
         stroke="none"
         stroke-width="0.1"
         transform="translate(-1.3595,-0.65)"
         id="path79" />
      <path
         d="M0.534 -0.1905 C0.534 -0.2065 0.5185 -0.221 0.497 -0.221 C0.4605 -0.221 0.4425 -0.1875 0.4355 -0.166 L0.4355 -0.221 L0.366 -0.2155 L0.366 -0.2 C0.401 -0.2 0.405 -0.1965 0.405 -0.172 L0.405 -0.038 C0.405 -0.0155 0.3995 -0.0155 0.366 -0.0155 L0.366 0 C0.366 0 0.423 -0.0015 0.423 -0.0015 C0.443 -0.0015 0.4665 -0.0015 0.4865 0 L0.4865 -0.0155 L0.476 -0.0155 C0.439 -0.0155 0.438 -0.021 0.438 -0.039 L0.438 -0.116 C0.438 -0.1655 0.459 -0.21 0.497 -0.21 C0.5005 -0.21 0.5015 -0.21 0.5025 -0.2095 C0.501 -0.209 0.491 -0.203 0.491 -0.19 C0.491 -0.176 0.5015 -0.1685 0.5125 -0.1685 C0.5215 -0.1685 0.534 -0.1745 0.534 -0.1905 Z"
         fill="black"
         stroke="none"
         stroke-width="0.1"
         transform="translate(-1.3595,-0.65)"
         id="path81" />
      <path
         d="M0.657 0 L0.657 -0.0155 C0.624 -0.0155 0.622 -0.018 0.622 -0.0375 L0.622 -0.221 L0.552 -0.2155 L0.552 -0.2 C0.5845 -0.2 0.589 -0.197 0.589 -0.1725 L0.589 -0.038 C0.589 -0.0155 0.5835 -0.0155 0.55 -0.0155 L0.55 0 C0.55 0 0.605 -0.0015 0.605 -0.0015 C0.6225 -0.0015 0.64 -0.0005 0.657 0 ZM0.6295 -0.302 C0.6295 -0.3155 0.618 -0.3285 0.603 -0.3285 C0.586 -0.3285 0.576 -0.3145 0.576 -0.302 C0.576 -0.2885 0.5875 -0.2755 0.6025 -0.2755 C0.6195 -0.2755 0.6295 -0.2895 0.6295 -0.302 Z"
         fill="black"
         stroke="none"
         stroke-width="0.1"
         transform="translate(-1.3595,-0.65)"
         id="path83" />
      <path
         d="M0.8215 -0.062 L0.8215 -0.0905 L0.809 -0.0905 L0.809 -0.063 C0.809 -0.026 0.794 -0.007 0.7755 -0.007 C0.742 -0.007 0.742 -0.0525 0.742 -0.061 L0.742 -0.2 L0.8135 -0.2 L0.8135 -0.2155 L0.742 -0.2155 L0.742 -0.3075 L0.7295 -0.3075 C0.729 -0.2665 0.714 -0.213 0.665 -0.211 L0.665 -0.2 L0.7075 -0.2 L0.7075 -0.062 C0.7075 -0.0005 0.754 0.0055 0.772 0.0055 C0.8075 0.0055 0.8215 -0.03 0.8215 -0.062 Z"
         fill="black"
         stroke="none"
         stroke-width="0.1"
         transform="translate(-1.3595,-0.65)"
         id="path85" />
      <path
         d="M1.0475 -0.0595 C1.0475 -0.0645 1.0435 -0.0655 1.041 -0.0655 C1.0365 -0.0655 1.0355 -0.0625 1.0345 -0.0585 C1.017 -0.007 0.972 -0.007 0.967 -0.007 C0.942 -0.007 0.922 -0.022 0.9105 -0.0405 C0.8955 -0.0645 0.8955 -0.0975 0.8955 -0.1155 L1.035 -0.1155 C1.046 -0.1155 1.0475 -0.1155 1.0475 -0.126 C1.0475 -0.1755 1.0205 -0.224 0.958 -0.224 C0.9 -0.224 0.854 -0.1725 0.854 -0.11 C0.854 -0.043 0.9065 0.0055 0.964 0.0055 C1.025 0.0055 1.0475 -0.05 1.0475 -0.0595 ZM1.0145 -0.126 L0.896 -0.126 C0.899 -0.2005 0.941 -0.213 0.958 -0.213 C1.0095 -0.213 1.0145 -0.1455 1.0145 -0.126 Z"
         fill="black"
         stroke="none"
         stroke-width="0.1"
         transform="translate(-1.3595,-0.65)"
         id="path87" />
      <path
         d="M1.414 -0.044 C1.414 -0.047 1.414 -0.0525 1.4075 -0.0525 C1.402 -0.0525 1.402 -0.048 1.4015 -0.0445 C1.3985 -0.009 1.381 0 1.3685 0 C1.344 0 1.34 -0.0255 1.333 -0.072 L1.3265 -0.112 C1.3175 -0.144 1.293 -0.1605 1.2655 -0.17 C1.314 -0.182 1.353 -0.2125 1.353 -0.2515 C1.353 -0.2995 1.296 -0.3415 1.2225 -0.3415 L1.0655 -0.3415 L1.0655 -0.326 L1.0775 -0.326 C1.116 -0.326 1.117 -0.3205 1.117 -0.3025 L1.117 -0.039 C1.117 -0.021 1.116 -0.0155 1.0775 -0.0155 L1.0655 -0.0155 L1.0655 0 C1.0835 -0.0015 1.119 -0.0015 1.1385 -0.0015 C1.158 -0.0015 1.1935 -0.0015 1.2115 0 L1.2115 -0.0155 L1.1995 -0.0155 C1.161 -0.0155 1.16 -0.021 1.16 -0.039 L1.16 -0.1655 L1.2175 -0.1655 C1.2255 -0.1655 1.2465 -0.1655 1.264 -0.1485 C1.283 -0.1305 1.283 -0.115 1.283 -0.0815 C1.283 -0.049 1.283 -0.029 1.3035 -0.01 C1.324 0.008 1.3515 0.011 1.3665 0.011 C1.4055 0.011 1.414 -0.03 1.414 -0.044 ZM1.3015 -0.2515 C1.3015 -0.217 1.2895 -0.1765 1.2155 -0.1765 L1.16 -0.1765 L1.16 -0.306 C1.16 -0.3175 1.16 -0.3235 1.171 -0.325 C1.176 -0.326 1.1905 -0.326 1.2005 -0.326 C1.2455 -0.326 1.3015 -0.324 1.3015 -0.2515 Z"
         fill="black"
         stroke="none"
         stroke-width="0.1"
         transform="translate(-1.3595,-0.65)"
         id="path89" />
      <path
         d="M1.606 -0.0595 C1.606 -0.0645 1.602 -0.0655 1.5995 -0.0655 C1.595 -0.0655 1.594 -0.0625 1.593 -0.0585 C1.5755 -0.007 1.5305 -0.007 1.5255 -0.007 C1.5005 -0.007 1.4805 -0.022 1.469 -0.0405 C1.454 -0.0645 1.454 -0.0975 1.454 -0.1155 L1.5935 -0.1155 C1.6045 -0.1155 1.606 -0.1155 1.606 -0.126 C1.606 -0.1755 1.579 -0.224 1.5165 -0.224 C1.4585 -0.224 1.4125 -0.1725 1.4125 -0.11 C1.4125 -0.043 1.465 0.0055 1.5225 0.0055 C1.5835 0.0055 1.606 -0.05 1.606 -0.0595 ZM1.573 -0.126 L1.4545 -0.126 C1.4575 -0.2005 1.4995 -0.213 1.5165 -0.213 C1.568 -0.213 1.573 -0.1455 1.573 -0.126 Z"
         fill="black"
         stroke="none"
         stroke-width="0.1"
         transform="translate(-1.3595,-0.65)"
         id="path91" />
      <path
         d="M1.849 -0.202 C1.849 -0.2105 1.843 -0.2265 1.8235 -0.2265 C1.8135 -0.2265 1.7915 -0.2235 1.7705 -0.203 C1.7495 -0.2195 1.7285 -0.221 1.7175 -0.221 C1.671 -0.221 1.6365 -0.1865 1.6365 -0.148 C1.6365 -0.126 1.6475 -0.107 1.66 -0.0965 C1.6535 -0.089 1.6445 -0.0725 1.6445 -0.055 C1.6445 -0.0395 1.651 -0.0205 1.6665 -0.0105 C1.6365 -0.002 1.6205 0.0195 1.6205 0.0395 C1.6205 0.0755 1.67 0.103 1.731 0.103 C1.79 0.103 1.842 0.0775 1.842 0.0385 C1.842 0.021 1.835 -0.0045 1.8095 -0.0185 C1.783 -0.0325 1.754 -0.0325 1.7235 -0.0325 C1.711 -0.0325 1.6895 -0.0325 1.686 -0.033 C1.67 -0.035 1.6595 -0.0505 1.6595 -0.0665 C1.6595 -0.0685 1.6595 -0.08 1.668 -0.09 C1.6875 -0.076 1.708 -0.0745 1.7175 -0.0745 C1.764 -0.0745 1.7985 -0.109 1.7985 -0.1475 C1.7985 -0.166 1.7905 -0.1845 1.778 -0.196 C1.796 -0.213 1.814 -0.2155 1.823 -0.2155 C1.823 -0.2155 1.8265 -0.2155 1.828 -0.215 C1.8225 -0.213 1.82 -0.2075 1.82 -0.2015 C1.82 -0.193 1.8265 -0.187 1.8345 -0.187 C1.8395 -0.187 1.849 -0.1905 1.849 -0.202 ZM1.761 -0.148 C1.761 -0.1345 1.7605 -0.1185 1.753 -0.106 C1.749 -0.1 1.7375 -0.086 1.7175 -0.086 C1.674 -0.086 1.674 -0.136 1.674 -0.1475 C1.674 -0.161 1.6745 -0.177 1.682 -0.1895 C1.686 -0.1955 1.6975 -0.2095 1.7175 -0.2095 C1.761 -0.2095 1.761 -0.1595 1.761 -0.148 ZM1.816 0.0395 C1.816 0.0665 1.7805 0.0915 1.7315 0.0915 C1.681 0.0915 1.6465 0.066 1.6465 0.0395 C1.6465 0.0165 1.6655 -0.002 1.6875 -0.0035 L1.717 -0.0035 C1.76 -0.0035 1.816 -0.0035 1.816 0.0395 Z"
         fill="black"
         stroke="none"
         stroke-width="0.1"
         transform="translate(-1.3595,-0.65)"
         id="path93" />
      <path
         d="M1.966 0 L1.966 -0.0155 C1.933 -0.0155 1.931 -0.018 1.931 -0.0375 L1.931 -0.221 L1.861 -0.2155 L1.861 -0.2 C1.8935 -0.2 1.898 -0.197 1.898 -0.1725 L1.898 -0.038 C1.898 -0.0155 1.8925 -0.0155 1.859 -0.0155 L1.859 0 C1.859 0 1.914 -0.0015 1.914 -0.0015 C1.9315 -0.0015 1.949 -0.0005 1.966 0 ZM1.9385 -0.302 C1.9385 -0.3155 1.927 -0.3285 1.912 -0.3285 C1.895 -0.3285 1.885 -0.3145 1.885 -0.302 C1.885 -0.2885 1.8965 -0.2755 1.9115 -0.2755 C1.9285 -0.2755 1.9385 -0.2895 1.9385 -0.302 Z"
         fill="black"
         stroke="none"
         stroke-width="0.1"
         transform="translate(-1.3595,-0.65)"
         id="path95" />
      <path
         d="M2.1445 -0.064 C2.1445 -0.0905 2.1295 -0.1055 2.1235 -0.1115 C2.107 -0.1275 2.0875 -0.1315 2.0665 -0.1355 C2.0385 -0.141 2.005 -0.1475 2.005 -0.1765 C2.005 -0.194 2.018 -0.2145 2.061 -0.2145 C2.116 -0.2145 2.1185 -0.1695 2.1195 -0.154 C2.12 -0.1495 2.1255 -0.1495 2.1255 -0.1495 C2.132 -0.1495 2.132 -0.152 2.132 -0.1615 L2.132 -0.212 C2.132 -0.2205 2.132 -0.224 2.1265 -0.224 C2.124 -0.224 2.123 -0.224 2.1165 -0.218 C2.115 -0.216 2.11 -0.2115 2.108 -0.21 C2.089 -0.224 2.0685 -0.224 2.061 -0.224 C2 -0.224 1.981 -0.1905 1.981 -0.1625 C1.981 -0.145 1.989 -0.131 2.0025 -0.12 C2.0185 -0.107 2.0325 -0.104 2.0685 -0.097 C2.0795 -0.095 2.1205 -0.087 2.1205 -0.051 C2.1205 -0.0255 2.103 -0.0055 2.064 -0.0055 C2.022 -0.0055 2.004 -0.034 1.9945 -0.0765 C1.993 -0.083 1.9925 -0.085 1.9875 -0.085 C1.981 -0.085 1.981 -0.0815 1.981 -0.0725 L1.981 -0.0065 C1.981 0.002 1.981 0.0055 1.9865 0.0055 C1.989 0.0055 1.9895 0.005 1.999 -0.0045 C2 -0.0055 2 -0.0065 2.009 -0.016 C2.031 0.005 2.0535 0.0055 2.064 0.0055 C2.1215 0.0055 2.1445 -0.028 2.1445 -0.064 Z"
         fill="black"
         stroke="none"
         stroke-width="0.1"
         transform="translate(-1.3595,-0.65)"
         id="path97" />
      <path
         d="M2.311 -0.062 L2.311 -0.0905 L2.2985 -0.0905 L2.2985 -0.063 C2.2985 -0.026 2.2835 -0.007 2.265 -0.007 C2.2315 -0.007 2.2315 -0.0525 2.2315 -0.061 L2.2315 -0.2 L2.303 -0.2 L2.303 -0.2155 L2.2315 -0.2155 L2.2315 -0.3075 L2.219 -0.3075 C2.2185 -0.2665 2.2035 -0.213 2.1545 -0.211 L2.1545 -0.2 L2.197 -0.2 L2.197 -0.062 C2.197 -0.0005 2.2435 0.0055 2.2615 0.0055 C2.297 0.0055 2.311 -0.03 2.311 -0.062 Z"
         fill="black"
         stroke="none"
         stroke-width="0.1"
         transform="translate(-1.3595,-0.65)"
         id="path99" />
      <path
         d="M2.537 -0.0595 C2.537 -0.0645 2.533 -0.0655 2.5305 -0.0655 C2.526 -0.0655 2.525 -0.0625 2.524 -0.0585 C2.5065 -0.007 2.4615 -0.007 2.4565 -0.007 C2.4315 -0.007 2.4115 -0.022 2.4 -0.0405 C2.385 -0.0645 2.385 -0.0975 2.385 -0.1155 L2.5245 -0.1155 C2.5355 -0.1155 2.537 -0.1155 2.537 -0.126 C2.537 -0.1755 2.51 -0.224 2.4475 -0.224 C2.3895 -0.224 2.3435 -0.1725 2.3435 -0.11 C2.3435 -0.043 2.396 0.0055 2.4535 0.0055 C2.5145 0.0055 2.537 -0.05 2.537 -0.0595 ZM2.504 -0.126 L2.3855 -0.126 C2.3885 -0.2005 2.4305 -0.213 2.4475 -0.213 C2.499 -0.213 2.504 -0.1455 2.504 -0.126 Z"
         fill="black"
         stroke="none"
         stroke-width="0.1"
         transform="translate(-1.3595,-0.65)"
         id="path101" />
      <path
         d="M2.7195 -0.1905 C2.7195 -0.2065 2.704 -0.221 2.6825 -0.221 C2.646 -0.221 2.628 -0.1875 2.621 -0.166 L2.621 -0.221 L2.5515 -0.2155 L2.5515 -0.2 C2.5865 -0.2 2.5905 -0.1965 2.5905 -0.172 L2.5905 -0.038 C2.5905 -0.0155 2.585 -0.0155 2.5515 -0.0155 L2.5515 0 C2.5515 0 2.6085 -0.0015 2.6085 -0.0015 C2.6285 -0.0015 2.652 -0.0015 2.672 0 L2.672 -0.0155 L2.6615 -0.0155 C2.6245 -0.0155 2.6235 -0.021 2.6235 -0.039 L2.6235 -0.116 C2.6235 -0.1655 2.6445 -0.21 2.6825 -0.21 C2.686 -0.21 2.687 -0.21 2.688 -0.2095 C2.6865 -0.209 2.6765 -0.203 2.6765 -0.19 C2.6765 -0.176 2.687 -0.1685 2.698 -0.1685 C2.707 -0.1685 2.7195 -0.1745 2.7195 -0.1905 Z"
         fill="black"
         stroke="none"
         stroke-width="0.1"
         transform="translate(-1.3595,-0.65)"
         id="path103" />
    </g>
    <g
       fill="white"
       font-family="'LMRoman10'"
       font-size="0.5"
       stroke="white"
       stroke-width="0.025"
       transform="matrix(50,0,0,50,581.947,168.9529)"
       id="g105">
      <circle
         cx="0"
         cy="0"
         r="0.45"
         stroke="none"
         id="circle107"
         d="M 0.44999999,0 C 0.44999999,0.24852813 0.24852813,0.44999999 0,0.44999999 -0.24852813,0.44999999 -0.44999999,0.24852813 -0.44999999,0 c 0,-0.24852813 0.20147186,-0.44999999 0.44999999,-0.44999999 0.24852813,0 0.44999999,0.20147186 0.44999999,0.44999999 z" />
      <circle
         cx="0"
         cy="0"
         fill="none"
         r="0.45"
         stroke="black"
         stroke-width="0.1"
         id="circle109"
         d="M 0.44999999,0 C 0.44999999,0.24852813 0.24852813,0.44999999 0,0.44999999 -0.24852813,0.44999999 -0.44999999,0.24852813 -0.44999999,0 c 0,-0.24852813 0.20147186,-0.44999999 0.44999999,-0.44999999 0.24852813,0 0.44999999,0.20147186 0.44999999,0.44999999 z" />
      <path
         d="M0.2675 0 L0.2675 -0.0155 C0.2325 -0.0155 0.2285 -0.019 0.2285 -0.0435 L0.2285 -0.221 L0.155 -0.2155 L0.155 -0.2 C0.19 -0.2 0.194 -0.1965 0.194 -0.172 L0.194 -0.083 C0.194 -0.0395 0.17 -0.0055 0.1335 -0.0055 C0.0915 -0.0055 0.0895 -0.029 0.0895 -0.055 L0.0895 -0.221 L0.016 -0.2155 L0.016 -0.2 C0.055 -0.2 0.055 -0.1985 0.055 -0.154 L0.055 -0.079 C0.055 -0.04 0.055 0.0055 0.131 0.0055 C0.159 0.0055 0.181 -0.0085 0.1955 -0.0395 L0.1955 0.0055 L0.2675 0 Z"
         fill="black"
         stroke="none"
         stroke-width="0.1"
         transform="translate(-0.8852,-0.65)"
         id="path111" />
      <path
         d="M0.522 -0.108 C0.522 -0.1715 0.4735 -0.221 0.4175 -0.221 C0.3785 -0.221 0.3575 -0.199 0.3475 -0.188 L0.3475 -0.221 L0.2755 -0.2155 L0.2755 -0.2 C0.311 -0.2 0.3145 -0.197 0.3145 -0.175 L0.3145 0.059 C0.3145 0.0815 0.309 0.0815 0.2755 0.0815 L0.2755 0.097 C0.2755 0.097 0.3315 0.0955 0.3315 0.0955 C0.3315 0.0955 0.388 0.097 0.388 0.097 L0.388 0.0815 C0.3545 0.0815 0.349 0.0815 0.349 0.059 L0.349 -0.025 L0.349 -0.0295 C0.3515 -0.0215 0.3725 0.0055 0.4105 0.0055 C0.47 0.0055 0.522 -0.0435 0.522 -0.108 ZM0.4805 -0.108 C0.4805 -0.0475 0.4455 -0.0055 0.4085 -0.0055 C0.3885 -0.0055 0.3695 -0.0155 0.356 -0.036 C0.349 -0.0465 0.349 -0.047 0.349 -0.057 L0.349 -0.1685 C0.3635 -0.194 0.388 -0.2085 0.4135 -0.2085 C0.45 -0.2085 0.4805 -0.1645 0.4805 -0.108 Z"
         fill="black"
         stroke="none"
         stroke-width="0.1"
         transform="translate(-0.8852,-0.65)"
         id="path113" />
      <path
         d="M0.7885 0 L0.7885 -0.0155 C0.7535 -0.0155 0.7495 -0.019 0.7495 -0.0435 L0.7495 -0.347 L0.6775 -0.3415 L0.6775 -0.326 C0.7125 -0.326 0.7165 -0.3225 0.7165 -0.298 L0.7165 -0.19 C0.702 -0.208 0.6805 -0.221 0.6535 -0.221 C0.5945 -0.221 0.542 -0.172 0.542 -0.1075 C0.542 -0.044 0.591 0.0055 0.648 0.0055 C0.68 0.0055 0.7025 -0.0115 0.715 -0.0275 L0.715 0.0055 L0.7885 0 ZM0.715 -0.059 C0.715 -0.05 0.715 -0.049 0.7095 -0.0405 C0.6945 -0.0165 0.672 -0.0055 0.6505 -0.0055 C0.628 -0.0055 0.61 -0.0185 0.598 -0.0375 C0.585 -0.058 0.5835 -0.0865 0.5835 -0.107 C0.5835 -0.1255 0.5845 -0.1555 0.599 -0.178 C0.6095 -0.1935 0.6285 -0.21 0.6555 -0.21 C0.673 -0.21 0.694 -0.2025 0.7095 -0.18 C0.715 -0.1715 0.715 -0.1705 0.715 -0.1615 L0.715 -0.059 Z"
         fill="black"
         stroke="none"
         stroke-width="0.1"
         transform="translate(-0.8852,-0.65)"
         id="path115" />
      <path
         d="M1.027 -0.0445 L1.027 -0.0725 L1.0145 -0.0725 L1.0145 -0.0445 C1.0145 -0.0155 1.002 -0.0125 0.9965 -0.0125 C0.98 -0.0125 0.978 -0.035 0.978 -0.0375 L0.978 -0.1375 C0.978 -0.1585 0.978 -0.178 0.96 -0.1965 C0.9405 -0.216 0.9155 -0.224 0.8915 -0.224 C0.8505 -0.224 0.816 -0.2005 0.816 -0.1675 C0.816 -0.1525 0.826 -0.144 0.839 -0.144 C0.853 -0.144 0.862 -0.154 0.862 -0.167 C0.862 -0.173 0.8595 -0.1895 0.8365 -0.19 C0.85 -0.2075 0.8745 -0.213 0.8905 -0.213 C0.915 -0.213 0.9435 -0.1935 0.9435 -0.149 L0.9435 -0.1305 C0.918 -0.129 0.883 -0.1275 0.8515 -0.1125 C0.814 -0.0955 0.8015 -0.0695 0.8015 -0.0475 C0.8015 -0.007 0.85 0.0055 0.8815 0.0055 C0.9145 0.0055 0.9375 -0.0145 0.947 -0.038 C0.949 -0.018 0.9625 0.003 0.986 0.003 C0.9965 0.003 1.027 -0.004 1.027 -0.0445 ZM0.9435 -0.07 C0.9435 -0.0225 0.9075 -0.0055 0.885 -0.0055 C0.8605 -0.0055 0.84 -0.023 0.84 -0.048 C0.84 -0.0755 0.861 -0.117 0.9435 -0.12 L0.9435 -0.07 Z"
         fill="black"
         stroke="none"
         stroke-width="0.1"
         transform="translate(-0.8852,-0.65)"
         id="path117" />
      <path
         d="M1.1855 -0.062 L1.1855 -0.0905 L1.173 -0.0905 L1.173 -0.063 C1.173 -0.026 1.158 -0.007 1.1395 -0.007 C1.106 -0.007 1.106 -0.0525 1.106 -0.061 L1.106 -0.2 L1.1775 -0.2 L1.1775 -0.2155 L1.106 -0.2155 L1.106 -0.3075 L1.0935 -0.3075 C1.093 -0.2665 1.078 -0.213 1.029 -0.211 L1.029 -0.2 L1.0715 -0.2 L1.0715 -0.062 C1.0715 -0.0005 1.118 0.0055 1.136 0.0055 C1.1715 0.0055 1.1855 -0.03 1.1855 -0.062 Z"
         fill="black"
         stroke="none"
         stroke-width="0.1"
         transform="translate(-0.8852,-0.65)"
         id="path119" />
      <path
         d="M1.4115 -0.0595 C1.4115 -0.0645 1.4075 -0.0655 1.405 -0.0655 C1.4005 -0.0655 1.3995 -0.0625 1.3985 -0.0585 C1.381 -0.007 1.336 -0.007 1.331 -0.007 C1.306 -0.007 1.286 -0.022 1.2745 -0.0405 C1.2595 -0.0645 1.2595 -0.0975 1.2595 -0.1155 L1.399 -0.1155 C1.41 -0.1155 1.4115 -0.1155 1.4115 -0.126 C1.4115 -0.1755 1.3845 -0.224 1.322 -0.224 C1.264 -0.224 1.218 -0.1725 1.218 -0.11 C1.218 -0.043 1.2705 0.0055 1.328 0.0055 C1.389 0.0055 1.4115 -0.05 1.4115 -0.0595 ZM1.3785 -0.126 L1.26 -0.126 C1.263 -0.2005 1.305 -0.213 1.322 -0.213 C1.3735 -0.213 1.3785 -0.1455 1.3785 -0.126 Z"
         fill="black"
         stroke="none"
         stroke-width="0.1"
         transform="translate(-0.8852,-0.65)"
         id="path121" />
      <path
         d="M1.77 -0.326 L1.77 -0.3415 C1.77 -0.3415 1.7115 -0.34 1.7115 -0.34 C1.7115 -0.34 1.653 -0.3415 1.653 -0.3415 L1.653 -0.326 C1.7045 -0.326 1.7045 -0.3025 1.7045 -0.289 L1.7045 -0.0755 L1.528 -0.335 C1.5235 -0.341 1.523 -0.3415 1.5135 -0.3415 L1.4285 -0.3415 L1.4285 -0.326 L1.443 -0.326 C1.4505 -0.326 1.4605 -0.3255 1.468 -0.325 C1.4795 -0.3235 1.48 -0.323 1.48 -0.3135 L1.48 -0.0525 C1.48 -0.039 1.48 -0.0155 1.4285 -0.0155 L1.4285 0 C1.4285 0 1.487 -0.0015 1.487 -0.0015 C1.487 -0.0015 1.5455 0 1.5455 0 L1.5455 -0.0155 C1.494 -0.0155 1.494 -0.039 1.494 -0.0525 L1.494 -0.3125 C1.4965 -0.31 1.497 -0.3095 1.499 -0.3065 L1.703 -0.0065 C1.7075 -0.0005 1.708 0 1.7115 0 C1.7185 0 1.7185 -0.0035 1.7185 -0.013 L1.7185 -0.289 C1.7185 -0.3025 1.7185 -0.326 1.77 -0.326 Z"
         fill="black"
         stroke="none"
         stroke-width="0.1"
         transform="translate(-0.8852,-0.65)"
         id="path123" />
    </g>
    <g
       fill="white"
       font-family="'LMRoman10'"
       font-size="0.5"
       stroke="white"
       stroke-width="0.025"
       transform="matrix(50,0,0,50,581.947,368.9529)"
       id="g125">
      <circle
         cx="0"
         cy="0"
         r="0.45"
         stroke="none"
         id="circle127"
         d="M 0.44999999,0 C 0.44999999,0.24852813 0.24852813,0.44999999 0,0.44999999 -0.24852813,0.44999999 -0.44999999,0.24852813 -0.44999999,0 c 0,-0.24852813 0.20147186,-0.44999999 0.44999999,-0.44999999 0.24852813,0 0.44999999,0.20147186 0.44999999,0.44999999 z" />
      <circle
         cx="0"
         cy="0"
         fill="none"
         r="0.45"
         stroke="black"
         stroke-width="0.1"
         id="circle129"
         d="M 0.44999999,0 C 0.44999999,0.24852813 0.24852813,0.44999999 0,0.44999999 -0.24852813,0.44999999 -0.44999999,0.24852813 -0.44999999,0 c 0,-0.24852813 0.20147186,-0.44999999 0.44999999,-0.44999999 0.24852813,0 0.44999999,0.20147186 0.44999999,0.44999999 z" />
      <path
         d="M0.2675 0 L0.2675 -0.0155 C0.2325 -0.0155 0.2285 -0.019 0.2285 -0.0435 L0.2285 -0.221 L0.155 -0.2155 L0.155 -0.2 C0.19 -0.2 0.194 -0.1965 0.194 -0.172 L0.194 -0.083 C0.194 -0.0395 0.17 -0.0055 0.1335 -0.0055 C0.0915 -0.0055 0.0895 -0.029 0.0895 -0.055 L0.0895 -0.221 L0.016 -0.2155 L0.016 -0.2 C0.055 -0.2 0.055 -0.1985 0.055 -0.154 L0.055 -0.079 C0.055 -0.04 0.055 0.0055 0.131 0.0055 C0.159 0.0055 0.181 -0.0085 0.1955 -0.0395 L0.1955 0.0055 L0.2675 0 Z"
         fill="black"
         stroke="none"
         stroke-width="0.1"
         transform="translate(-0.8725,-0.65)"
         id="path131" />
      <path
         d="M0.522 -0.108 C0.522 -0.1715 0.4735 -0.221 0.4175 -0.221 C0.3785 -0.221 0.3575 -0.199 0.3475 -0.188 L0.3475 -0.221 L0.2755 -0.2155 L0.2755 -0.2 C0.311 -0.2 0.3145 -0.197 0.3145 -0.175 L0.3145 0.059 C0.3145 0.0815 0.309 0.0815 0.2755 0.0815 L0.2755 0.097 C0.2755 0.097 0.3315 0.0955 0.3315 0.0955 C0.3315 0.0955 0.388 0.097 0.388 0.097 L0.388 0.0815 C0.3545 0.0815 0.349 0.0815 0.349 0.059 L0.349 -0.025 L0.349 -0.0295 C0.3515 -0.0215 0.3725 0.0055 0.4105 0.0055 C0.47 0.0055 0.522 -0.0435 0.522 -0.108 ZM0.4805 -0.108 C0.4805 -0.0475 0.4455 -0.0055 0.4085 -0.0055 C0.3885 -0.0055 0.3695 -0.0155 0.356 -0.036 C0.349 -0.0465 0.349 -0.047 0.349 -0.057 L0.349 -0.1685 C0.3635 -0.194 0.388 -0.2085 0.4135 -0.2085 C0.45 -0.2085 0.4805 -0.1645 0.4805 -0.108 Z"
         fill="black"
         stroke="none"
         stroke-width="0.1"
         transform="translate(-0.8725,-0.65)"
         id="path133" />
      <path
         d="M0.7885 0 L0.7885 -0.0155 C0.7535 -0.0155 0.7495 -0.019 0.7495 -0.0435 L0.7495 -0.347 L0.6775 -0.3415 L0.6775 -0.326 C0.7125 -0.326 0.7165 -0.3225 0.7165 -0.298 L0.7165 -0.19 C0.702 -0.208 0.6805 -0.221 0.6535 -0.221 C0.5945 -0.221 0.542 -0.172 0.542 -0.1075 C0.542 -0.044 0.591 0.0055 0.648 0.0055 C0.68 0.0055 0.7025 -0.0115 0.715 -0.0275 L0.715 0.0055 L0.7885 0 ZM0.715 -0.059 C0.715 -0.05 0.715 -0.049 0.7095 -0.0405 C0.6945 -0.0165 0.672 -0.0055 0.6505 -0.0055 C0.628 -0.0055 0.61 -0.0185 0.598 -0.0375 C0.585 -0.058 0.5835 -0.0865 0.5835 -0.107 C0.5835 -0.1255 0.5845 -0.1555 0.599 -0.178 C0.6095 -0.1935 0.6285 -0.21 0.6555 -0.21 C0.673 -0.21 0.694 -0.2025 0.7095 -0.18 C0.715 -0.1715 0.715 -0.1705 0.715 -0.1615 L0.715 -0.059 Z"
         fill="black"
         stroke="none"
         stroke-width="0.1"
         transform="translate(-0.8725,-0.65)"
         id="path135" />
      <path
         d="M1.027 -0.0445 L1.027 -0.0725 L1.0145 -0.0725 L1.0145 -0.0445 C1.0145 -0.0155 1.002 -0.0125 0.9965 -0.0125 C0.98 -0.0125 0.978 -0.035 0.978 -0.0375 L0.978 -0.1375 C0.978 -0.1585 0.978 -0.178 0.96 -0.1965 C0.9405 -0.216 0.9155 -0.224 0.8915 -0.224 C0.8505 -0.224 0.816 -0.2005 0.816 -0.1675 C0.816 -0.1525 0.826 -0.144 0.839 -0.144 C0.853 -0.144 0.862 -0.154 0.862 -0.167 C0.862 -0.173 0.8595 -0.1895 0.8365 -0.19 C0.85 -0.2075 0.8745 -0.213 0.8905 -0.213 C0.915 -0.213 0.9435 -0.1935 0.9435 -0.149 L0.9435 -0.1305 C0.918 -0.129 0.883 -0.1275 0.8515 -0.1125 C0.814 -0.0955 0.8015 -0.0695 0.8015 -0.0475 C0.8015 -0.007 0.85 0.0055 0.8815 0.0055 C0.9145 0.0055 0.9375 -0.0145 0.947 -0.038 C0.949 -0.018 0.9625 0.003 0.986 0.003 C0.9965 0.003 1.027 -0.004 1.027 -0.0445 ZM0.9435 -0.07 C0.9435 -0.0225 0.9075 -0.0055 0.885 -0.0055 C0.8605 -0.0055 0.84 -0.023 0.84 -0.048 C0.84 -0.0755 0.861 -0.117 0.9435 -0.12 L0.9435 -0.07 Z"
         fill="black"
         stroke="none"
         stroke-width="0.1"
         transform="translate(-0.8725,-0.65)"
         id="path137" />
      <path
         d="M1.1855 -0.062 L1.1855 -0.0905 L1.173 -0.0905 L1.173 -0.063 C1.173 -0.026 1.158 -0.007 1.1395 -0.007 C1.106 -0.007 1.106 -0.0525 1.106 -0.061 L1.106 -0.2 L1.1775 -0.2 L1.1775 -0.2155 L1.106 -0.2155 L1.106 -0.3075 L1.0935 -0.3075 C1.093 -0.2665 1.078 -0.213 1.029 -0.211 L1.029 -0.2 L1.0715 -0.2 L1.0715 -0.062 C1.0715 -0.0005 1.118 0.0055 1.136 0.0055 C1.1715 0.0055 1.1855 -0.03 1.1855 -0.062 Z"
         fill="black"
         stroke="none"
         stroke-width="0.1"
         transform="translate(-0.8725,-0.65)"
         id="path139" />
      <path
         d="M1.4115 -0.0595 C1.4115 -0.0645 1.4075 -0.0655 1.405 -0.0655 C1.4005 -0.0655 1.3995 -0.0625 1.3985 -0.0585 C1.381 -0.007 1.336 -0.007 1.331 -0.007 C1.306 -0.007 1.286 -0.022 1.2745 -0.0405 C1.2595 -0.0645 1.2595 -0.0975 1.2595 -0.1155 L1.399 -0.1155 C1.41 -0.1155 1.4115 -0.1155 1.4115 -0.126 C1.4115 -0.1755 1.3845 -0.224 1.322 -0.224 C1.264 -0.224 1.218 -0.1725 1.218 -0.11 C1.218 -0.043 1.2705 0.0055 1.328 0.0055 C1.389 0.0055 1.4115 -0.05 1.4115 -0.0595 ZM1.3785 -0.126 L1.26 -0.126 C1.263 -0.2005 1.305 -0.213 1.322 -0.213 C1.3735 -0.213 1.3785 -0.1455 1.3785 -0.126 Z"
         fill="black"
         stroke="none"
         stroke-width="0.1"
         transform="translate(-0.8725,-0.65)"
         id="path141" />
      <path
         d="M1.7445 -0.1165 C1.7445 -0.1215 1.7445 -0.125 1.738 -0.125 C1.7325 -0.125 1.7325 -0.122 1.732 -0.117 C1.728 -0.0455 1.6745 -0.0045 1.62 -0.0045 C1.5895 -0.0045 1.4915 -0.0215 1.4915 -0.1705 C1.4915 -0.32 1.589 -0.337 1.6195 -0.337 C1.674 -0.337 1.7185 -0.2915 1.7285 -0.2185 C1.7295 -0.2115 1.7295 -0.21 1.7365 -0.21 C1.7445 -0.21 1.7445 -0.2115 1.7445 -0.222 L1.7445 -0.3405 C1.7445 -0.349 1.7445 -0.3525 1.739 -0.3525 C1.737 -0.3525 1.735 -0.3525 1.731 -0.3465 L1.706 -0.3095 C1.6875 -0.3275 1.662 -0.3525 1.614 -0.3525 C1.5205 -0.3525 1.44 -0.273 1.44 -0.171 C1.44 -0.0675 1.521 0.011 1.614 0.011 C1.6955 0.011 1.7445 -0.0585 1.7445 -0.1165 Z"
         fill="black"
         stroke="none"
         stroke-width="0.1"
         transform="translate(-0.8725,-0.65)"
         id="path143" />
    </g>
    <g
       fill="white"
       font-family="'LMRoman10'"
       font-size="0.5"
       stroke="white"
       stroke-width="0.025"
       transform="matrix(50,0,0,50,581.947,268.9529)"
       id="g145">
      <circle
         cx="0"
         cy="0"
         r="0.45"
         stroke="none"
         id="circle147"
         d="M 0.44999999,0 C 0.44999999,0.24852813 0.24852813,0.44999999 0,0.44999999 -0.24852813,0.44999999 -0.44999999,0.24852813 -0.44999999,0 c 0,-0.24852813 0.20147186,-0.44999999 0.44999999,-0.44999999 0.24852813,0 0.44999999,0.20147186 0.44999999,0.44999999 z" />
      <circle
         cx="0"
         cy="0"
         fill="none"
         r="0.45"
         stroke="black"
         stroke-width="0.1"
         id="circle149"
         d="M 0.44999999,0 C 0.44999999,0.24852813 0.24852813,0.44999999 0,0.44999999 -0.24852813,0.44999999 -0.44999999,0.24852813 -0.44999999,0 c 0,-0.24852813 0.20147186,-0.44999999 0.44999999,-0.44999999 0.24852813,0 0.44999999,0.20147186 0.44999999,0.44999999 z" />
      <path
         d="M0.2675 0 L0.2675 -0.0155 C0.2325 -0.0155 0.2285 -0.019 0.2285 -0.0435 L0.2285 -0.221 L0.155 -0.2155 L0.155 -0.2 C0.19 -0.2 0.194 -0.1965 0.194 -0.172 L0.194 -0.083 C0.194 -0.0395 0.17 -0.0055 0.1335 -0.0055 C0.0915 -0.0055 0.0895 -0.029 0.0895 -0.055 L0.0895 -0.221 L0.016 -0.2155 L0.016 -0.2 C0.055 -0.2 0.055 -0.1985 0.055 -0.154 L0.055 -0.079 C0.055 -0.04 0.055 0.0055 0.131 0.0055 C0.159 0.0055 0.181 -0.0085 0.1955 -0.0395 L0.1955 0.0055 L0.2675 0 Z"
         fill="black"
         stroke="none"
         stroke-width="0.1"
         transform="translate(-0.8447,-0.65)"
         id="path151" />
      <path
         d="M0.522 -0.108 C0.522 -0.1715 0.4735 -0.221 0.4175 -0.221 C0.3785 -0.221 0.3575 -0.199 0.3475 -0.188 L0.3475 -0.221 L0.2755 -0.2155 L0.2755 -0.2 C0.311 -0.2 0.3145 -0.197 0.3145 -0.175 L0.3145 0.059 C0.3145 0.0815 0.309 0.0815 0.2755 0.0815 L0.2755 0.097 C0.2755 0.097 0.3315 0.0955 0.3315 0.0955 C0.3315 0.0955 0.388 0.097 0.388 0.097 L0.388 0.0815 C0.3545 0.0815 0.349 0.0815 0.349 0.059 L0.349 -0.025 L0.349 -0.0295 C0.3515 -0.0215 0.3725 0.0055 0.4105 0.0055 C0.47 0.0055 0.522 -0.0435 0.522 -0.108 ZM0.4805 -0.108 C0.4805 -0.0475 0.4455 -0.0055 0.4085 -0.0055 C0.3885 -0.0055 0.3695 -0.0155 0.356 -0.036 C0.349 -0.0465 0.349 -0.047 0.349 -0.057 L0.349 -0.1685 C0.3635 -0.194 0.388 -0.2085 0.4135 -0.2085 C0.45 -0.2085 0.4805 -0.1645 0.4805 -0.108 Z"
         fill="black"
         stroke="none"
         stroke-width="0.1"
         transform="translate(-0.8447,-0.65)"
         id="path153" />
      <path
         d="M0.7885 0 L0.7885 -0.0155 C0.7535 -0.0155 0.7495 -0.019 0.7495 -0.0435 L0.7495 -0.347 L0.6775 -0.3415 L0.6775 -0.326 C0.7125 -0.326 0.7165 -0.3225 0.7165 -0.298 L0.7165 -0.19 C0.702 -0.208 0.6805 -0.221 0.6535 -0.221 C0.5945 -0.221 0.542 -0.172 0.542 -0.1075 C0.542 -0.044 0.591 0.0055 0.648 0.0055 C0.68 0.0055 0.7025 -0.0115 0.715 -0.0275 L0.715 0.0055 L0.7885 0 ZM0.715 -0.059 C0.715 -0.05 0.715 -0.049 0.7095 -0.0405 C0.6945 -0.0165 0.672 -0.0055 0.6505 -0.0055 C0.628 -0.0055 0.61 -0.0185 0.598 -0.0375 C0.585 -0.058 0.5835 -0.0865 0.5835 -0.107 C0.5835 -0.1255 0.5845 -0.1555 0.599 -0.178 C0.6095 -0.1935 0.6285 -0.21 0.6555 -0.21 C0.673 -0.21 0.694 -0.2025 0.7095 -0.18 C0.715 -0.1715 0.715 -0.1705 0.715 -0.1615 L0.715 -0.059 Z"
         fill="black"
         stroke="none"
         stroke-width="0.1"
         transform="translate(-0.8447,-0.65)"
         id="path155" />
      <path
         d="M1.027 -0.0445 L1.027 -0.0725 L1.0145 -0.0725 L1.0145 -0.0445 C1.0145 -0.0155 1.002 -0.0125 0.9965 -0.0125 C0.98 -0.0125 0.978 -0.035 0.978 -0.0375 L0.978 -0.1375 C0.978 -0.1585 0.978 -0.178 0.96 -0.1965 C0.9405 -0.216 0.9155 -0.224 0.8915 -0.224 C0.8505 -0.224 0.816 -0.2005 0.816 -0.1675 C0.816 -0.1525 0.826 -0.144 0.839 -0.144 C0.853 -0.144 0.862 -0.154 0.862 -0.167 C0.862 -0.173 0.8595 -0.1895 0.8365 -0.19 C0.85 -0.2075 0.8745 -0.213 0.8905 -0.213 C0.915 -0.213 0.9435 -0.1935 0.9435 -0.149 L0.9435 -0.1305 C0.918 -0.129 0.883 -0.1275 0.8515 -0.1125 C0.814 -0.0955 0.8015 -0.0695 0.8015 -0.0475 C0.8015 -0.007 0.85 0.0055 0.8815 0.0055 C0.9145 0.0055 0.9375 -0.0145 0.947 -0.038 C0.949 -0.018 0.9625 0.003 0.986 0.003 C0.9965 0.003 1.027 -0.004 1.027 -0.0445 ZM0.9435 -0.07 C0.9435 -0.0225 0.9075 -0.0055 0.885 -0.0055 C0.8605 -0.0055 0.84 -0.023 0.84 -0.048 C0.84 -0.0755 0.861 -0.117 0.9435 -0.12 L0.9435 -0.07 Z"
         fill="black"
         stroke="none"
         stroke-width="0.1"
         transform="translate(-0.8447,-0.65)"
         id="path157" />
      <path
         d="M1.1855 -0.062 L1.1855 -0.0905 L1.173 -0.0905 L1.173 -0.063 C1.173 -0.026 1.158 -0.007 1.1395 -0.007 C1.106 -0.007 1.106 -0.0525 1.106 -0.061 L1.106 -0.2 L1.1775 -0.2 L1.1775 -0.2155 L1.106 -0.2155 L1.106 -0.3075 L1.0935 -0.3075 C1.093 -0.2665 1.078 -0.213 1.029 -0.211 L1.029 -0.2 L1.0715 -0.2 L1.0715 -0.062 C1.0715 -0.0005 1.118 0.0055 1.136 0.0055 C1.1715 0.0055 1.1855 -0.03 1.1855 -0.062 Z"
         fill="black"
         stroke="none"
         stroke-width="0.1"
         transform="translate(-0.8447,-0.65)"
         id="path159" />
      <path
         d="M1.4115 -0.0595 C1.4115 -0.0645 1.4075 -0.0655 1.405 -0.0655 C1.4005 -0.0655 1.3995 -0.0625 1.3985 -0.0585 C1.381 -0.007 1.336 -0.007 1.331 -0.007 C1.306 -0.007 1.286 -0.022 1.2745 -0.0405 C1.2595 -0.0645 1.2595 -0.0975 1.2595 -0.1155 L1.399 -0.1155 C1.41 -0.1155 1.4115 -0.1155 1.4115 -0.126 C1.4115 -0.1755 1.3845 -0.224 1.322 -0.224 C1.264 -0.224 1.218 -0.1725 1.218 -0.11 C1.218 -0.043 1.2705 0.0055 1.328 0.0055 C1.389 0.0055 1.4115 -0.05 1.4115 -0.0595 ZM1.3785 -0.126 L1.26 -0.126 C1.263 -0.2005 1.305 -0.213 1.322 -0.213 C1.3735 -0.213 1.3785 -0.1455 1.3785 -0.126 Z"
         fill="black"
         stroke="none"
         stroke-width="0.1"
         transform="translate(-0.8447,-0.65)"
         id="path161" />
      <path
         d="M1.692 -0.1335 L1.6795 -0.1335 C1.6755 -0.064 1.666 -0.017 1.5735 -0.017 L1.4915 -0.017 L1.6855 -0.324 C1.689 -0.3295 1.689 -0.33 1.689 -0.3335 C1.689 -0.3415 1.686 -0.3415 1.676 -0.3415 L1.452 -0.3415 L1.4465 -0.229 L1.459 -0.229 C1.4625 -0.2855 1.4775 -0.326 1.5595 -0.326 L1.638 -0.326 L1.4435 -0.0185 C1.44 -0.013 1.44 -0.0125 1.44 -0.0085 C1.44 0 1.4425 0 1.453 0 L1.6835 0 L1.692 -0.1335 Z"
         fill="black"
         stroke="none"
         stroke-width="0.1"
         transform="translate(-0.8447,-0.65)"
         id="path163" />
    </g>
    <g
       fill="white"
       font-family="'LMRoman10'"
       font-size="0.5"
       stroke="white"
       stroke-width="0.025"
       transform="matrix(50,0,0,50,106.947,493.9529)"
       id="g165">
      <circle
         cx="0"
         cy="0"
         r="0.45"
         stroke="none"
         id="circle167"
         d="M 0.44999999,0 C 0.44999999,0.24852813 0.24852813,0.44999999 0,0.44999999 -0.24852813,0.44999999 -0.44999999,0.24852813 -0.44999999,0 c 0,-0.24852813 0.20147186,-0.44999999 0.44999999,-0.44999999 0.24852813,0 0.44999999,0.20147186 0.44999999,0.44999999 z" />
      <circle
         cx="0"
         cy="0"
         fill="none"
         r="0.45"
         stroke="black"
         stroke-width="0.1"
         id="circle169"
         d="M 0.44999999,0 C 0.44999999,0.24852813 0.24852813,0.44999999 0,0.44999999 -0.24852813,0.44999999 -0.44999999,0.24852813 -0.44999999,0 c 0,-0.24852813 0.20147186,-0.44999999 0.44999999,-0.44999999 0.24852813,0 0.44999999,0.20147186 0.44999999,0.44999999 z" />
      <path
         d="M0.1235 0 L0.1235 -0.0155 C0.0905 -0.0155 0.0885 -0.018 0.0885 -0.0375 L0.0885 -0.221 L0.0185 -0.2155 L0.0185 -0.2 C0.051 -0.2 0.0555 -0.197 0.0555 -0.1725 L0.0555 -0.038 C0.0555 -0.0155 0.05 -0.0155 0.0165 -0.0155 L0.0165 0 C0.0165 0 0.0715 -0.0015 0.0715 -0.0015 C0.089 -0.0015 0.1065 -0.0005 0.1235 0 ZM0.096 -0.302 C0.096 -0.3155 0.0845 -0.3285 0.0695 -0.3285 C0.0525 -0.3285 0.0425 -0.3145 0.0425 -0.302 C0.0425 -0.2885 0.054 -0.2755 0.069 -0.2755 C0.086 -0.2755 0.096 -0.2895 0.096 -0.302 Z"
         fill="black"
         stroke="none"
         stroke-width="0.1"
         transform="translate(-1.0163,-0.65)"
         id="path171" />
      <path
         d="M0.3895 0 L0.3895 -0.0155 C0.3635 -0.0155 0.351 -0.0155 0.3505 -0.0305 L0.3505 -0.126 C0.3505 -0.169 0.3505 -0.1845 0.335 -0.2025 C0.328 -0.211 0.3115 -0.221 0.2825 -0.221 C0.246 -0.221 0.2225 -0.1995 0.2085 -0.1685 L0.2085 -0.221 L0.138 -0.2155 L0.138 -0.2 C0.173 -0.2 0.177 -0.1965 0.177 -0.172 L0.177 -0.038 C0.177 -0.0155 0.1715 -0.0155 0.138 -0.0155 L0.138 0 C0.138 0 0.1945 -0.0015 0.1945 -0.0015 C0.1945 -0.0015 0.2505 0 0.2505 0 L0.2505 -0.0155 C0.217 -0.0155 0.2115 -0.0155 0.2115 -0.038 L0.2115 -0.13 C0.2115 -0.182 0.247 -0.21 0.279 -0.21 C0.3105 -0.21 0.316 -0.183 0.316 -0.1545 L0.316 -0.038 C0.316 -0.0155 0.3105 -0.0155 0.277 -0.0155 L0.277 0 C0.277 0 0.3335 -0.0015 0.3335 -0.0015 C0.3335 -0.0015 0.3895 0 0.3895 0 Z"
         fill="black"
         stroke="none"
         stroke-width="0.1"
         transform="translate(-1.0163,-0.65)"
         id="path173" />
      <path
         d="M0.591 -0.0595 C0.591 -0.0645 0.586 -0.0645 0.5845 -0.0645 C0.58 -0.0645 0.579 -0.0625 0.578 -0.0595 C0.5635 -0.013 0.531 -0.007 0.5125 -0.007 C0.486 -0.007 0.442 -0.0285 0.442 -0.109 C0.442 -0.1905 0.483 -0.2115 0.5095 -0.2115 C0.514 -0.2115 0.5455 -0.211 0.563 -0.193 C0.5425 -0.1915 0.5395 -0.1765 0.5395 -0.17 C0.5395 -0.157 0.5485 -0.147 0.5625 -0.147 C0.5755 -0.147 0.5855 -0.1555 0.5855 -0.1705 C0.5855 -0.2045 0.5475 -0.224 0.509 -0.224 C0.4465 -0.224 0.4005 -0.17 0.4005 -0.108 C0.4005 -0.044 0.45 0.0055 0.508 0.0055 C0.575 0.0055 0.591 -0.0545 0.591 -0.0595 Z"
         fill="black"
         stroke="none"
         stroke-width="0.1"
         transform="translate(-1.0163,-0.65)"
         id="path175" />
      <path
         d="M0.7705 -0.1905 C0.7705 -0.2065 0.755 -0.221 0.7335 -0.221 C0.697 -0.221 0.679 -0.1875 0.672 -0.166 L0.672 -0.221 L0.6025 -0.2155 L0.6025 -0.2 C0.6375 -0.2 0.6415 -0.1965 0.6415 -0.172 L0.6415 -0.038 C0.6415 -0.0155 0.636 -0.0155 0.6025 -0.0155 L0.6025 0 C0.6025 0 0.6595 -0.0015 0.6595 -0.0015 C0.6795 -0.0015 0.703 -0.0015 0.723 0 L0.723 -0.0155 L0.7125 -0.0155 C0.6755 -0.0155 0.6745 -0.021 0.6745 -0.039 L0.6745 -0.116 C0.6745 -0.1655 0.6955 -0.21 0.7335 -0.21 C0.737 -0.21 0.738 -0.21 0.739 -0.2095 C0.7375 -0.209 0.7275 -0.203 0.7275 -0.19 C0.7275 -0.176 0.738 -0.1685 0.749 -0.1685 C0.758 -0.1685 0.7705 -0.1745 0.7705 -0.1905 Z"
         fill="black"
         stroke="none"
         stroke-width="0.1"
         transform="translate(-1.0163,-0.65)"
         id="path177" />
      <path
         d="M0.9775 -0.0595 C0.9775 -0.0645 0.9735 -0.0655 0.971 -0.0655 C0.9665 -0.0655 0.9655 -0.0625 0.9645 -0.0585 C0.947 -0.007 0.902 -0.007 0.897 -0.007 C0.872 -0.007 0.852 -0.022 0.8405 -0.0405 C0.8255 -0.0645 0.8255 -0.0975 0.8255 -0.1155 L0.965 -0.1155 C0.976 -0.1155 0.9775 -0.1155 0.9775 -0.126 C0.9775 -0.1755 0.9505 -0.224 0.888 -0.224 C0.83 -0.224 0.784 -0.1725 0.784 -0.11 C0.784 -0.043 0.8365 0.0055 0.894 0.0055 C0.955 0.0055 0.9775 -0.05 0.9775 -0.0595 ZM0.9445 -0.126 L0.826 -0.126 C0.829 -0.2005 0.871 -0.213 0.888 -0.213 C0.9395 -0.213 0.9445 -0.1455 0.9445 -0.126 Z"
         fill="black"
         stroke="none"
         stroke-width="0.1"
         transform="translate(-1.0163,-0.65)"
         id="path179" />
      <path
         d="M1.3845 0 L1.3845 -0.0155 C1.3585 -0.0155 1.346 -0.0155 1.3455 -0.0305 L1.3455 -0.126 C1.3455 -0.169 1.3455 -0.1845 1.33 -0.2025 C1.323 -0.211 1.3065 -0.221 1.2775 -0.221 C1.2355 -0.221 1.2135 -0.191 1.205 -0.172 C1.198 -0.2155 1.161 -0.221 1.1385 -0.221 C1.102 -0.221 1.0785 -0.1995 1.0645 -0.1685 L1.0645 -0.221 L0.994 -0.2155 L0.994 -0.2 C1.029 -0.2 1.033 -0.1965 1.033 -0.172 L1.033 -0.038 C1.033 -0.0155 1.0275 -0.0155 0.994 -0.0155 L0.994 0 C0.994 0 1.0505 -0.0015 1.0505 -0.0015 C1.0505 -0.0015 1.1065 0 1.1065 0 L1.1065 -0.0155 C1.073 -0.0155 1.0675 -0.0155 1.0675 -0.038 L1.0675 -0.13 C1.0675 -0.182 1.103 -0.21 1.135 -0.21 C1.1665 -0.21 1.172 -0.183 1.172 -0.1545 L1.172 -0.038 C1.172 -0.0155 1.1665 -0.0155 1.133 -0.0155 L1.133 0 C1.133 0 1.1895 -0.0015 1.1895 -0.0015 C1.1895 -0.0015 1.2455 0 1.2455 0 L1.2455 -0.0155 C1.212 -0.0155 1.2065 -0.0155 1.2065 -0.038 L1.2065 -0.13 C1.2065 -0.182 1.242 -0.21 1.274 -0.21 C1.3055 -0.21 1.311 -0.183 1.311 -0.1545 L1.311 -0.038 C1.311 -0.0155 1.3055 -0.0155 1.272 -0.0155 L1.272 0 C1.272 0 1.3285 -0.0015 1.3285 -0.0015 C1.3285 -0.0015 1.3845 0 1.3845 0 Z"
         fill="black"
         stroke="none"
         stroke-width="0.1"
         transform="translate(-1.0163,-0.65)"
         id="path181" />
      <path
         d="M1.586 -0.0595 C1.586 -0.0645 1.582 -0.0655 1.5795 -0.0655 C1.575 -0.0655 1.574 -0.0625 1.573 -0.0585 C1.5555 -0.007 1.5105 -0.007 1.5055 -0.007 C1.4805 -0.007 1.4605 -0.022 1.449 -0.0405 C1.434 -0.0645 1.434 -0.0975 1.434 -0.1155 L1.5735 -0.1155 C1.5845 -0.1155 1.586 -0.1155 1.586 -0.126 C1.586 -0.1755 1.559 -0.224 1.4965 -0.224 C1.4385 -0.224 1.3925 -0.1725 1.3925 -0.11 C1.3925 -0.043 1.445 0.0055 1.5025 0.0055 C1.5635 0.0055 1.586 -0.05 1.586 -0.0595 ZM1.553 -0.126 L1.4345 -0.126 C1.4375 -0.2005 1.4795 -0.213 1.4965 -0.213 C1.548 -0.213 1.553 -0.1455 1.553 -0.126 Z"
         fill="black"
         stroke="none"
         stroke-width="0.1"
         transform="translate(-1.0163,-0.65)"
         id="path183" />
      <path
         d="M1.854 0 L1.854 -0.0155 C1.828 -0.0155 1.8155 -0.0155 1.815 -0.0305 L1.815 -0.126 C1.815 -0.169 1.815 -0.1845 1.7995 -0.2025 C1.7925 -0.211 1.776 -0.221 1.747 -0.221 C1.7105 -0.221 1.687 -0.1995 1.673 -0.1685 L1.673 -0.221 L1.6025 -0.2155 L1.6025 -0.2 C1.6375 -0.2 1.6415 -0.1965 1.6415 -0.172 L1.6415 -0.038 C1.6415 -0.0155 1.636 -0.0155 1.6025 -0.0155 L1.6025 0 C1.6025 0 1.659 -0.0015 1.659 -0.0015 C1.659 -0.0015 1.715 0 1.715 0 L1.715 -0.0155 C1.6815 -0.0155 1.676 -0.0155 1.676 -0.038 L1.676 -0.13 C1.676 -0.182 1.7115 -0.21 1.7435 -0.21 C1.775 -0.21 1.7805 -0.183 1.7805 -0.1545 L1.7805 -0.038 C1.7805 -0.0155 1.775 -0.0155 1.7415 -0.0155 L1.7415 0 C1.7415 0 1.798 -0.0015 1.798 -0.0015 C1.798 -0.0015 1.854 0 1.854 0 Z"
         fill="black"
         stroke="none"
         stroke-width="0.1"
         transform="translate(-1.0163,-0.65)"
         id="path185" />
      <path
         d="M2.014 -0.062 L2.014 -0.0905 L2.0015 -0.0905 L2.0015 -0.063 C2.0015 -0.026 1.9865 -0.007 1.968 -0.007 C1.9345 -0.007 1.9345 -0.0525 1.9345 -0.061 L1.9345 -0.2 L2.006 -0.2 L2.006 -0.2155 L1.9345 -0.2155 L1.9345 -0.3075 L1.922 -0.3075 C1.9215 -0.2665 1.9065 -0.213 1.8575 -0.211 L1.8575 -0.2 L1.9 -0.2 L1.9 -0.062 C1.9 -0.0005 1.9465 0.0055 1.9645 0.0055 C2 0.0055 2.014 -0.03 2.014 -0.062 Z"
         fill="black"
         stroke="none"
         stroke-width="0.1"
         transform="translate(-1.0163,-0.65)"
         id="path187" />
    </g>
    <g
       fill="white"
       font-family="'LMRoman10'"
       font-size="0.5"
       stroke="white"
       stroke-width="0.025"
       transform="matrix(50,0,0,50,331.947,493.9529)"
       id="g189">
      <circle
         cx="0"
         cy="0"
         r="0.45"
         stroke="none"
         id="circle191"
         d="M 0.44999999,0 C 0.44999999,0.24852813 0.24852813,0.44999999 0,0.44999999 -0.24852813,0.44999999 -0.44999999,0.24852813 -0.44999999,0 c 0,-0.24852813 0.20147186,-0.44999999 0.44999999,-0.44999999 0.24852813,0 0.44999999,0.20147186 0.44999999,0.44999999 z" />
      <circle
         cx="0"
         cy="0"
         fill="none"
         r="0.45"
         stroke="black"
         stroke-width="0.1"
         id="circle193"
         d="M 0.44999999,0 C 0.44999999,0.24852813 0.24852813,0.44999999 0,0.44999999 -0.24852813,0.44999999 -0.44999999,0.24852813 -0.44999999,0 c 0,-0.24852813 0.20147186,-0.44999999 0.44999999,-0.44999999 0.24852813,0 0.44999999,0.20147186 0.44999999,0.44999999 z" />
      <path
         d="M0.182 -0.1905 C0.182 -0.2065 0.1665 -0.221 0.145 -0.221 C0.1085 -0.221 0.0905 -0.1875 0.0835 -0.166 L0.0835 -0.221 L0.014 -0.2155 L0.014 -0.2 C0.049 -0.2 0.053 -0.1965 0.053 -0.172 L0.053 -0.038 C0.053 -0.0155 0.0475 -0.0155 0.014 -0.0155 L0.014 0 C0.014 0 0.071 -0.0015 0.071 -0.0015 C0.091 -0.0015 0.1145 -0.0015 0.1345 0 L0.1345 -0.0155 L0.124 -0.0155 C0.087 -0.0155 0.086 -0.021 0.086 -0.039 L0.086 -0.116 C0.086 -0.1655 0.107 -0.21 0.145 -0.21 C0.1485 -0.21 0.1495 -0.21 0.1505 -0.2095 C0.149 -0.209 0.139 -0.203 0.139 -0.19 C0.139 -0.176 0.1495 -0.1685 0.1605 -0.1685 C0.1695 -0.1685 0.182 -0.1745 0.182 -0.1905 Z"
         fill="black"
         stroke="none"
         stroke-width="0.1"
         transform="translate(-1.2775,-0.65)"
         id="path195" />
      <path
         d="M0.389 -0.0595 C0.389 -0.0645 0.385 -0.0655 0.3825 -0.0655 C0.378 -0.0655 0.377 -0.0625 0.376 -0.0585 C0.3585 -0.007 0.3135 -0.007 0.3085 -0.007 C0.2835 -0.007 0.2635 -0.022 0.252 -0.0405 C0.237 -0.0645 0.237 -0.0975 0.237 -0.1155 L0.3765 -0.1155 C0.3875 -0.1155 0.389 -0.1155 0.389 -0.126 C0.389 -0.1755 0.362 -0.224 0.2995 -0.224 C0.2415 -0.224 0.1955 -0.1725 0.1955 -0.11 C0.1955 -0.043 0.248 0.0055 0.3055 0.0055 C0.3665 0.0055 0.389 -0.05 0.389 -0.0595 ZM0.356 -0.126 L0.2375 -0.126 C0.2405 -0.2005 0.2825 -0.213 0.2995 -0.213 C0.351 -0.213 0.356 -0.1455 0.356 -0.126 Z"
         fill="black"
         stroke="none"
         stroke-width="0.1"
         transform="translate(-1.2775,-0.65)"
         id="path197" />
      <path
         d="M0.631 -0.0445 L0.631 -0.0725 L0.6185 -0.0725 L0.6185 -0.0445 C0.6185 -0.0155 0.606 -0.0125 0.6005 -0.0125 C0.584 -0.0125 0.582 -0.035 0.582 -0.0375 L0.582 -0.1375 C0.582 -0.1585 0.582 -0.178 0.564 -0.1965 C0.5445 -0.216 0.5195 -0.224 0.4955 -0.224 C0.4545 -0.224 0.42 -0.2005 0.42 -0.1675 C0.42 -0.1525 0.43 -0.144 0.443 -0.144 C0.457 -0.144 0.466 -0.154 0.466 -0.167 C0.466 -0.173 0.4635 -0.1895 0.4405 -0.19 C0.454 -0.2075 0.4785 -0.213 0.4945 -0.213 C0.519 -0.213 0.5475 -0.1935 0.5475 -0.149 L0.5475 -0.1305 C0.522 -0.129 0.487 -0.1275 0.4555 -0.1125 C0.418 -0.0955 0.4055 -0.0695 0.4055 -0.0475 C0.4055 -0.007 0.454 0.0055 0.4855 0.0055 C0.5185 0.0055 0.5415 -0.0145 0.551 -0.038 C0.553 -0.018 0.5665 0.003 0.59 0.003 C0.6005 0.003 0.631 -0.004 0.631 -0.0445 ZM0.5475 -0.07 C0.5475 -0.0225 0.5115 -0.0055 0.489 -0.0055 C0.4645 -0.0055 0.444 -0.023 0.444 -0.048 C0.444 -0.0755 0.465 -0.117 0.5475 -0.12 L0.5475 -0.07 Z"
         fill="black"
         stroke="none"
         stroke-width="0.1"
         transform="translate(-1.2775,-0.65)"
         id="path199" />
      <path
         d="M0.887 0 L0.887 -0.0155 C0.852 -0.0155 0.848 -0.019 0.848 -0.0435 L0.848 -0.347 L0.776 -0.3415 L0.776 -0.326 C0.811 -0.326 0.815 -0.3225 0.815 -0.298 L0.815 -0.19 C0.8005 -0.208 0.779 -0.221 0.752 -0.221 C0.693 -0.221 0.6405 -0.172 0.6405 -0.1075 C0.6405 -0.044 0.6895 0.0055 0.7465 0.0055 C0.7785 0.0055 0.801 -0.0115 0.8135 -0.0275 L0.8135 0.0055 L0.887 0 ZM0.8135 -0.059 C0.8135 -0.05 0.8135 -0.049 0.808 -0.0405 C0.793 -0.0165 0.7705 -0.0055 0.749 -0.0055 C0.7265 -0.0055 0.7085 -0.0185 0.6965 -0.0375 C0.6835 -0.058 0.682 -0.0865 0.682 -0.107 C0.682 -0.1255 0.683 -0.1555 0.6975 -0.178 C0.708 -0.1935 0.727 -0.21 0.754 -0.21 C0.7715 -0.21 0.7925 -0.2025 0.808 -0.18 C0.8135 -0.1715 0.8135 -0.1705 0.8135 -0.1615 L0.8135 -0.059 Z"
         fill="black"
         stroke="none"
         stroke-width="0.1"
         transform="translate(-1.2775,-0.65)"
         id="path201" />
      <path
         d="M1.25 -0.044 C1.25 -0.047 1.25 -0.0525 1.2435 -0.0525 C1.238 -0.0525 1.238 -0.048 1.2375 -0.0445 C1.2345 -0.009 1.217 0 1.2045 0 C1.18 0 1.176 -0.0255 1.169 -0.072 L1.1625 -0.112 C1.1535 -0.144 1.129 -0.1605 1.1015 -0.17 C1.15 -0.182 1.189 -0.2125 1.189 -0.2515 C1.189 -0.2995 1.132 -0.3415 1.0585 -0.3415 L0.9015 -0.3415 L0.9015 -0.326 L0.9135 -0.326 C0.952 -0.326 0.953 -0.3205 0.953 -0.3025 L0.953 -0.039 C0.953 -0.021 0.952 -0.0155 0.9135 -0.0155 L0.9015 -0.0155 L0.9015 0 C0.9195 -0.0015 0.955 -0.0015 0.9745 -0.0015 C0.994 -0.0015 1.0295 -0.0015 1.0475 0 L1.0475 -0.0155 L1.0355 -0.0155 C0.997 -0.0155 0.996 -0.021 0.996 -0.039 L0.996 -0.1655 L1.0535 -0.1655 C1.0615 -0.1655 1.0825 -0.1655 1.1 -0.1485 C1.119 -0.1305 1.119 -0.115 1.119 -0.0815 C1.119 -0.049 1.119 -0.029 1.1395 -0.01 C1.16 0.008 1.1875 0.011 1.2025 0.011 C1.2415 0.011 1.25 -0.03 1.25 -0.044 ZM1.1375 -0.2515 C1.1375 -0.217 1.1255 -0.1765 1.0515 -0.1765 L0.996 -0.1765 L0.996 -0.306 C0.996 -0.3175 0.996 -0.3235 1.007 -0.325 C1.012 -0.326 1.0265 -0.326 1.0365 -0.326 C1.0815 -0.326 1.1375 -0.324 1.1375 -0.2515 Z"
         fill="black"
         stroke="none"
         stroke-width="0.1"
         transform="translate(-1.2775,-0.65)"
         id="path203" />
      <path
         d="M1.442 -0.0595 C1.442 -0.0645 1.438 -0.0655 1.4355 -0.0655 C1.431 -0.0655 1.43 -0.0625 1.429 -0.0585 C1.4115 -0.007 1.3665 -0.007 1.3615 -0.007 C1.3365 -0.007 1.3165 -0.022 1.305 -0.0405 C1.29 -0.0645 1.29 -0.0975 1.29 -0.1155 L1.4295 -0.1155 C1.4405 -0.1155 1.442 -0.1155 1.442 -0.126 C1.442 -0.1755 1.415 -0.224 1.3525 -0.224 C1.2945 -0.224 1.2485 -0.1725 1.2485 -0.11 C1.2485 -0.043 1.301 0.0055 1.3585 0.0055 C1.4195 0.0055 1.442 -0.05 1.442 -0.0595 ZM1.409 -0.126 L1.2905 -0.126 C1.2935 -0.2005 1.3355 -0.213 1.3525 -0.213 C1.404 -0.213 1.409 -0.1455 1.409 -0.126 Z"
         fill="black"
         stroke="none"
         stroke-width="0.1"
         transform="translate(-1.2775,-0.65)"
         id="path205" />
      <path
         d="M1.685 -0.202 C1.685 -0.2105 1.679 -0.2265 1.6595 -0.2265 C1.6495 -0.2265 1.6275 -0.2235 1.6065 -0.203 C1.5855 -0.2195 1.5645 -0.221 1.5535 -0.221 C1.507 -0.221 1.4725 -0.1865 1.4725 -0.148 C1.4725 -0.126 1.4835 -0.107 1.496 -0.0965 C1.4895 -0.089 1.4805 -0.0725 1.4805 -0.055 C1.4805 -0.0395 1.487 -0.0205 1.5025 -0.0105 C1.4725 -0.002 1.4565 0.0195 1.4565 0.0395 C1.4565 0.0755 1.506 0.103 1.567 0.103 C1.626 0.103 1.678 0.0775 1.678 0.0385 C1.678 0.021 1.671 -0.0045 1.6455 -0.0185 C1.619 -0.0325 1.59 -0.0325 1.5595 -0.0325 C1.547 -0.0325 1.5255 -0.0325 1.522 -0.033 C1.506 -0.035 1.4955 -0.0505 1.4955 -0.0665 C1.4955 -0.0685 1.4955 -0.08 1.504 -0.09 C1.5235 -0.076 1.544 -0.0745 1.5535 -0.0745 C1.6 -0.0745 1.6345 -0.109 1.6345 -0.1475 C1.6345 -0.166 1.6265 -0.1845 1.614 -0.196 C1.632 -0.213 1.65 -0.2155 1.659 -0.2155 C1.659 -0.2155 1.6625 -0.2155 1.664 -0.215 C1.6585 -0.213 1.656 -0.2075 1.656 -0.2015 C1.656 -0.193 1.6625 -0.187 1.6705 -0.187 C1.6755 -0.187 1.685 -0.1905 1.685 -0.202 ZM1.597 -0.148 C1.597 -0.1345 1.5965 -0.1185 1.589 -0.106 C1.585 -0.1 1.5735 -0.086 1.5535 -0.086 C1.51 -0.086 1.51 -0.136 1.51 -0.1475 C1.51 -0.161 1.5105 -0.177 1.518 -0.1895 C1.522 -0.1955 1.5335 -0.2095 1.5535 -0.2095 C1.597 -0.2095 1.597 -0.1595 1.597 -0.148 ZM1.652 0.0395 C1.652 0.0665 1.6165 0.0915 1.5675 0.0915 C1.517 0.0915 1.4825 0.066 1.4825 0.0395 C1.4825 0.0165 1.5015 -0.002 1.5235 -0.0035 L1.553 -0.0035 C1.596 -0.0035 1.652 -0.0035 1.652 0.0395 Z"
         fill="black"
         stroke="none"
         stroke-width="0.1"
         transform="translate(-1.2775,-0.65)"
         id="path207" />
      <path
         d="M1.802 0 L1.802 -0.0155 C1.769 -0.0155 1.767 -0.018 1.767 -0.0375 L1.767 -0.221 L1.697 -0.2155 L1.697 -0.2 C1.7295 -0.2 1.734 -0.197 1.734 -0.1725 L1.734 -0.038 C1.734 -0.0155 1.7285 -0.0155 1.695 -0.0155 L1.695 0 C1.695 0 1.75 -0.0015 1.75 -0.0015 C1.7675 -0.0015 1.785 -0.0005 1.802 0 ZM1.7745 -0.302 C1.7745 -0.3155 1.763 -0.3285 1.748 -0.3285 C1.731 -0.3285 1.721 -0.3145 1.721 -0.302 C1.721 -0.2885 1.7325 -0.2755 1.7475 -0.2755 C1.7645 -0.2755 1.7745 -0.2895 1.7745 -0.302 Z"
         fill="black"
         stroke="none"
         stroke-width="0.1"
         transform="translate(-1.2775,-0.65)"
         id="path209" />
      <path
         d="M1.9805 -0.064 C1.9805 -0.0905 1.9655 -0.1055 1.9595 -0.1115 C1.943 -0.1275 1.9235 -0.1315 1.9025 -0.1355 C1.8745 -0.141 1.841 -0.1475 1.841 -0.1765 C1.841 -0.194 1.854 -0.2145 1.897 -0.2145 C1.952 -0.2145 1.9545 -0.1695 1.9555 -0.154 C1.956 -0.1495 1.9615 -0.1495 1.9615 -0.1495 C1.968 -0.1495 1.968 -0.152 1.968 -0.1615 L1.968 -0.212 C1.968 -0.2205 1.968 -0.224 1.9625 -0.224 C1.96 -0.224 1.959 -0.224 1.9525 -0.218 C1.951 -0.216 1.946 -0.2115 1.944 -0.21 C1.925 -0.224 1.9045 -0.224 1.897 -0.224 C1.836 -0.224 1.817 -0.1905 1.817 -0.1625 C1.817 -0.145 1.825 -0.131 1.8385 -0.12 C1.8545 -0.107 1.8685 -0.104 1.9045 -0.097 C1.9155 -0.095 1.9565 -0.087 1.9565 -0.051 C1.9565 -0.0255 1.939 -0.0055 1.9 -0.0055 C1.858 -0.0055 1.84 -0.034 1.8305 -0.0765 C1.829 -0.083 1.8285 -0.085 1.8235 -0.085 C1.817 -0.085 1.817 -0.0815 1.817 -0.0725 L1.817 -0.0065 C1.817 0.002 1.817 0.0055 1.8225 0.0055 C1.825 0.0055 1.8255 0.005 1.835 -0.0045 C1.836 -0.0055 1.836 -0.0065 1.845 -0.016 C1.867 0.005 1.8895 0.0055 1.9 0.0055 C1.9575 0.0055 1.9805 -0.028 1.9805 -0.064 Z"
         fill="black"
         stroke="none"
         stroke-width="0.1"
         transform="translate(-1.2775,-0.65)"
         id="path211" />
      <path
         d="M2.147 -0.062 L2.147 -0.0905 L2.1345 -0.0905 L2.1345 -0.063 C2.1345 -0.026 2.1195 -0.007 2.101 -0.007 C2.0675 -0.007 2.0675 -0.0525 2.0675 -0.061 L2.0675 -0.2 L2.139 -0.2 L2.139 -0.2155 L2.0675 -0.2155 L2.0675 -0.3075 L2.055 -0.3075 C2.0545 -0.2665 2.0395 -0.213 1.9905 -0.211 L1.9905 -0.2 L2.033 -0.2 L2.033 -0.062 C2.033 -0.0005 2.0795 0.0055 2.0975 0.0055 C2.133 0.0055 2.147 -0.03 2.147 -0.062 Z"
         fill="black"
         stroke="none"
         stroke-width="0.1"
         transform="translate(-1.2775,-0.65)"
         id="path213" />
      <path
         d="M2.373 -0.0595 C2.373 -0.0645 2.369 -0.0655 2.3665 -0.0655 C2.362 -0.0655 2.361 -0.0625 2.36 -0.0585 C2.3425 -0.007 2.2975 -0.007 2.2925 -0.007 C2.2675 -0.007 2.2475 -0.022 2.236 -0.0405 C2.221 -0.0645 2.221 -0.0975 2.221 -0.1155 L2.3605 -0.1155 C2.3715 -0.1155 2.373 -0.1155 2.373 -0.126 C2.373 -0.1755 2.346 -0.224 2.2835 -0.224 C2.2255 -0.224 2.1795 -0.1725 2.1795 -0.11 C2.1795 -0.043 2.232 0.0055 2.2895 0.0055 C2.3505 0.0055 2.373 -0.05 2.373 -0.0595 ZM2.34 -0.126 L2.2215 -0.126 C2.2245 -0.2005 2.2665 -0.213 2.2835 -0.213 C2.335 -0.213 2.34 -0.1455 2.34 -0.126 Z"
         fill="black"
         stroke="none"
         stroke-width="0.1"
         transform="translate(-1.2775,-0.65)"
         id="path215" />
      <path
         d="M2.5555 -0.1905 C2.5555 -0.2065 2.54 -0.221 2.5185 -0.221 C2.482 -0.221 2.464 -0.1875 2.457 -0.166 L2.457 -0.221 L2.3875 -0.2155 L2.3875 -0.2 C2.4225 -0.2 2.4265 -0.1965 2.4265 -0.172 L2.4265 -0.038 C2.4265 -0.0155 2.421 -0.0155 2.3875 -0.0155 L2.3875 0 C2.3875 0 2.4445 -0.0015 2.4445 -0.0015 C2.4645 -0.0015 2.488 -0.0015 2.508 0 L2.508 -0.0155 L2.4975 -0.0155 C2.4605 -0.0155 2.4595 -0.021 2.4595 -0.039 L2.4595 -0.116 C2.4595 -0.1655 2.4805 -0.21 2.5185 -0.21 C2.522 -0.21 2.523 -0.21 2.524 -0.2095 C2.5225 -0.209 2.5125 -0.203 2.5125 -0.19 C2.5125 -0.176 2.523 -0.1685 2.534 -0.1685 C2.543 -0.1685 2.5555 -0.1745 2.5555 -0.1905 Z"
         fill="black"
         stroke="none"
         stroke-width="0.1"
         transform="translate(-1.2775,-0.65)"
         id="path217" />
    </g>
    <g
       fill="white"
       font-family="'LMRoman10'"
       font-size="0.5"
       stroke="white"
       stroke-width="0.025"
       transform="matrix(50,0,0,50,581.947,493.9529)"
       id="g219">
      <circle
         cx="0"
         cy="0"
         r="0.45"
         stroke="none"
         id="circle221"
         d="M 0.44999999,0 C 0.44999999,0.24852813 0.24852813,0.44999999 0,0.44999999 -0.24852813,0.44999999 -0.44999999,0.24852813 -0.44999999,0 c 0,-0.24852813 0.20147186,-0.44999999 0.44999999,-0.44999999 0.24852813,0 0.44999999,0.20147186 0.44999999,0.44999999 z" />
      <circle
         cx="0"
         cy="0"
         fill="none"
         r="0.45"
         stroke="black"
         stroke-width="0.1"
         id="circle223"
         d="M 0.44999999,0 C 0.44999999,0.24852813 0.24852813,0.44999999 0,0.44999999 -0.24852813,0.44999999 -0.44999999,0.24852813 -0.44999999,0 c 0,-0.24852813 0.20147186,-0.44999999 0.44999999,-0.44999999 0.24852813,0 0.44999999,0.20147186 0.44999999,0.44999999 z" />
      <path
         d="M0.182 -0.1905 C0.182 -0.2065 0.1665 -0.221 0.145 -0.221 C0.1085 -0.221 0.0905 -0.1875 0.0835 -0.166 L0.0835 -0.221 L0.014 -0.2155 L0.014 -0.2 C0.049 -0.2 0.053 -0.1965 0.053 -0.172 L0.053 -0.038 C0.053 -0.0155 0.0475 -0.0155 0.014 -0.0155 L0.014 0 C0.014 0 0.071 -0.0015 0.071 -0.0015 C0.091 -0.0015 0.1145 -0.0015 0.1345 0 L0.1345 -0.0155 L0.124 -0.0155 C0.087 -0.0155 0.086 -0.021 0.086 -0.039 L0.086 -0.116 C0.086 -0.1655 0.107 -0.21 0.145 -0.21 C0.1485 -0.21 0.1495 -0.21 0.1505 -0.2095 C0.149 -0.209 0.139 -0.203 0.139 -0.19 C0.139 -0.176 0.1495 -0.1685 0.1605 -0.1685 C0.1695 -0.1685 0.182 -0.1745 0.182 -0.1905 Z"
         fill="black"
         stroke="none"
         stroke-width="0.1"
         transform="translate(-1.3018,-0.65)"
         id="path225" />
      <path
         d="M0.389 -0.0595 C0.389 -0.0645 0.385 -0.0655 0.3825 -0.0655 C0.378 -0.0655 0.377 -0.0625 0.376 -0.0585 C0.3585 -0.007 0.3135 -0.007 0.3085 -0.007 C0.2835 -0.007 0.2635 -0.022 0.252 -0.0405 C0.237 -0.0645 0.237 -0.0975 0.237 -0.1155 L0.3765 -0.1155 C0.3875 -0.1155 0.389 -0.1155 0.389 -0.126 C0.389 -0.1755 0.362 -0.224 0.2995 -0.224 C0.2415 -0.224 0.1955 -0.1725 0.1955 -0.11 C0.1955 -0.043 0.248 0.0055 0.3055 0.0055 C0.3665 0.0055 0.389 -0.05 0.389 -0.0595 ZM0.356 -0.126 L0.2375 -0.126 C0.2405 -0.2005 0.2825 -0.213 0.2995 -0.213 C0.351 -0.213 0.356 -0.1455 0.356 -0.126 Z"
         fill="black"
         stroke="none"
         stroke-width="0.1"
         transform="translate(-1.3018,-0.65)"
         id="path227" />
      <path
         d="M0.631 -0.0445 L0.631 -0.0725 L0.6185 -0.0725 L0.6185 -0.0445 C0.6185 -0.0155 0.606 -0.0125 0.6005 -0.0125 C0.584 -0.0125 0.582 -0.035 0.582 -0.0375 L0.582 -0.1375 C0.582 -0.1585 0.582 -0.178 0.564 -0.1965 C0.5445 -0.216 0.5195 -0.224 0.4955 -0.224 C0.4545 -0.224 0.42 -0.2005 0.42 -0.1675 C0.42 -0.1525 0.43 -0.144 0.443 -0.144 C0.457 -0.144 0.466 -0.154 0.466 -0.167 C0.466 -0.173 0.4635 -0.1895 0.4405 -0.19 C0.454 -0.2075 0.4785 -0.213 0.4945 -0.213 C0.519 -0.213 0.5475 -0.1935 0.5475 -0.149 L0.5475 -0.1305 C0.522 -0.129 0.487 -0.1275 0.4555 -0.1125 C0.418 -0.0955 0.4055 -0.0695 0.4055 -0.0475 C0.4055 -0.007 0.454 0.0055 0.4855 0.0055 C0.5185 0.0055 0.5415 -0.0145 0.551 -0.038 C0.553 -0.018 0.5665 0.003 0.59 0.003 C0.6005 0.003 0.631 -0.004 0.631 -0.0445 ZM0.5475 -0.07 C0.5475 -0.0225 0.5115 -0.0055 0.489 -0.0055 C0.4645 -0.0055 0.444 -0.023 0.444 -0.048 C0.444 -0.0755 0.465 -0.117 0.5475 -0.12 L0.5475 -0.07 Z"
         fill="black"
         stroke="none"
         stroke-width="0.1"
         transform="translate(-1.3018,-0.65)"
         id="path229" />
      <path
         d="M0.887 0 L0.887 -0.0155 C0.852 -0.0155 0.848 -0.019 0.848 -0.0435 L0.848 -0.347 L0.776 -0.3415 L0.776 -0.326 C0.811 -0.326 0.815 -0.3225 0.815 -0.298 L0.815 -0.19 C0.8005 -0.208 0.779 -0.221 0.752 -0.221 C0.693 -0.221 0.6405 -0.172 0.6405 -0.1075 C0.6405 -0.044 0.6895 0.0055 0.7465 0.0055 C0.7785 0.0055 0.801 -0.0115 0.8135 -0.0275 L0.8135 0.0055 L0.887 0 ZM0.8135 -0.059 C0.8135 -0.05 0.8135 -0.049 0.808 -0.0405 C0.793 -0.0165 0.7705 -0.0055 0.749 -0.0055 C0.7265 -0.0055 0.7085 -0.0185 0.6965 -0.0375 C0.6835 -0.058 0.682 -0.0865 0.682 -0.107 C0.682 -0.1255 0.683 -0.1555 0.6975 -0.178 C0.708 -0.1935 0.727 -0.21 0.754 -0.21 C0.7715 -0.21 0.7925 -0.2025 0.808 -0.18 C0.8135 -0.1715 0.8135 -0.1705 0.8135 -0.1615 L0.8135 -0.059 Z"
         fill="black"
         stroke="none"
         stroke-width="0.1"
         transform="translate(-1.3018,-0.65)"
         id="path231" />
      <path
         d="M1.3235 0 L1.3235 -0.0155 L1.3115 -0.0155 C1.273 -0.0155 1.272 -0.021 1.272 -0.039 L1.272 -0.3025 C1.272 -0.3205 1.273 -0.326 1.3115 -0.326 L1.3235 -0.326 L1.3235 -0.3415 L1.239 -0.3415 C1.226 -0.3415 1.226 -0.341 1.2225 -0.332 L1.113 -0.0505 L1.0045 -0.3305 C1 -0.3415 0.9985 -0.3415 0.987 -0.3415 L0.9025 -0.3415 L0.9025 -0.326 L0.9145 -0.326 C0.953 -0.326 0.954 -0.3205 0.954 -0.3025 L0.954 -0.0525 C0.954 -0.039 0.954 -0.0155 0.9025 -0.0155 L0.9025 0 C0.9025 0 0.961 -0.0015 0.961 -0.0015 C0.961 -0.0015 1.0195 0 1.0195 0 L1.0195 -0.0155 C0.968 -0.0155 0.968 -0.039 0.968 -0.0525 L0.968 -0.322 L0.9685 -0.322 L1.089 -0.011 C1.0915 -0.0045 1.094 0 1.099 0 C1.1045 0 1.106 -0.004 1.108 -0.0095 L1.231 -0.326 L1.2315 -0.326 L1.2315 -0.039 C1.2315 -0.021 1.2305 -0.0155 1.192 -0.0155 L1.18 -0.0155 L1.18 0 C1.1985 -0.0015 1.2325 -0.0015 1.252 -0.0015 C1.2715 -0.0015 1.305 -0.0015 1.3235 0 Z"
         fill="black"
         stroke="none"
         stroke-width="0.1"
         transform="translate(-1.3018,-0.65)"
         id="path233" />
      <path
         d="M1.531 -0.0595 C1.531 -0.0645 1.527 -0.0655 1.5245 -0.0655 C1.52 -0.0655 1.519 -0.0625 1.518 -0.0585 C1.5005 -0.007 1.4555 -0.007 1.4505 -0.007 C1.4255 -0.007 1.4055 -0.022 1.394 -0.0405 C1.379 -0.0645 1.379 -0.0975 1.379 -0.1155 L1.5185 -0.1155 C1.5295 -0.1155 1.531 -0.1155 1.531 -0.126 C1.531 -0.1755 1.504 -0.224 1.4415 -0.224 C1.3835 -0.224 1.3375 -0.1725 1.3375 -0.11 C1.3375 -0.043 1.39 0.0055 1.4475 0.0055 C1.5085 0.0055 1.531 -0.05 1.531 -0.0595 ZM1.498 -0.126 L1.3795 -0.126 C1.3825 -0.2005 1.4245 -0.213 1.4415 -0.213 C1.493 -0.213 1.498 -0.1455 1.498 -0.126 Z"
         fill="black"
         stroke="none"
         stroke-width="0.1"
         transform="translate(-1.3018,-0.65)"
         id="path235" />
      <path
         d="M1.938 0 L1.938 -0.0155 C1.912 -0.0155 1.8995 -0.0155 1.899 -0.0305 L1.899 -0.126 C1.899 -0.169 1.899 -0.1845 1.8835 -0.2025 C1.8765 -0.211 1.86 -0.221 1.831 -0.221 C1.789 -0.221 1.767 -0.191 1.7585 -0.172 C1.7515 -0.2155 1.7145 -0.221 1.692 -0.221 C1.6555 -0.221 1.632 -0.1995 1.618 -0.1685 L1.618 -0.221 L1.5475 -0.2155 L1.5475 -0.2 C1.5825 -0.2 1.5865 -0.1965 1.5865 -0.172 L1.5865 -0.038 C1.5865 -0.0155 1.581 -0.0155 1.5475 -0.0155 L1.5475 0 C1.5475 0 1.604 -0.0015 1.604 -0.0015 C1.604 -0.0015 1.66 0 1.66 0 L1.66 -0.0155 C1.6265 -0.0155 1.621 -0.0155 1.621 -0.038 L1.621 -0.13 C1.621 -0.182 1.6565 -0.21 1.6885 -0.21 C1.72 -0.21 1.7255 -0.183 1.7255 -0.1545 L1.7255 -0.038 C1.7255 -0.0155 1.72 -0.0155 1.6865 -0.0155 L1.6865 0 C1.6865 0 1.743 -0.0015 1.743 -0.0015 C1.743 -0.0015 1.799 0 1.799 0 L1.799 -0.0155 C1.7655 -0.0155 1.76 -0.0155 1.76 -0.038 L1.76 -0.13 C1.76 -0.182 1.7955 -0.21 1.8275 -0.21 C1.859 -0.21 1.8645 -0.183 1.8645 -0.1545 L1.8645 -0.038 C1.8645 -0.0155 1.859 -0.0155 1.8255 -0.0155 L1.8255 0 C1.8255 0 1.882 -0.0015 1.882 -0.0015 C1.882 -0.0015 1.938 0 1.938 0 Z"
         fill="black"
         stroke="none"
         stroke-width="0.1"
         transform="translate(-1.3018,-0.65)"
         id="path237" />
      <path
         d="M2.1675 -0.107 C2.1675 -0.171 2.1175 -0.224 2.057 -0.224 C1.9945 -0.224 1.946 -0.1695 1.946 -0.107 C1.946 -0.0425 1.998 0.0055 2.0565 0.0055 C2.117 0.0055 2.1675 -0.0435 2.1675 -0.107 ZM2.126 -0.111 C2.126 -0.093 2.126 -0.066 2.115 -0.044 C2.104 -0.0215 2.082 -0.007 2.057 -0.007 C2.0355 -0.007 2.0135 -0.0175 2 -0.0405 C1.9875 -0.0625 1.9875 -0.093 1.9875 -0.111 C1.9875 -0.1305 1.9875 -0.1575 1.9995 -0.1795 C2.013 -0.2025 2.0365 -0.213 2.0565 -0.213 C2.0785 -0.213 2.1 -0.202 2.113 -0.1805 C2.126 -0.159 2.126 -0.13 2.126 -0.111 Z"
         fill="black"
         stroke="none"
         stroke-width="0.1"
         transform="translate(-1.3018,-0.65)"
         id="path239" />
      <path
         d="M2.35 -0.1905 C2.35 -0.2065 2.3345 -0.221 2.313 -0.221 C2.2765 -0.221 2.2585 -0.1875 2.2515 -0.166 L2.2515 -0.221 L2.182 -0.2155 L2.182 -0.2 C2.217 -0.2 2.221 -0.1965 2.221 -0.172 L2.221 -0.038 C2.221 -0.0155 2.2155 -0.0155 2.182 -0.0155 L2.182 0 C2.182 0 2.239 -0.0015 2.239 -0.0015 C2.259 -0.0015 2.2825 -0.0015 2.3025 0 L2.3025 -0.0155 L2.292 -0.0155 C2.255 -0.0155 2.254 -0.021 2.254 -0.039 L2.254 -0.116 C2.254 -0.1655 2.275 -0.21 2.313 -0.21 C2.3165 -0.21 2.3175 -0.21 2.3185 -0.2095 C2.317 -0.209 2.307 -0.203 2.307 -0.19 C2.307 -0.176 2.3175 -0.1685 2.3285 -0.1685 C2.3375 -0.1685 2.35 -0.1745 2.35 -0.1905 Z"
         fill="black"
         stroke="none"
         stroke-width="0.1"
         transform="translate(-1.3018,-0.65)"
         id="path241" />
      <path
         d="M2.6035 -0.2 L2.6035 -0.2155 C2.592 -0.2145 2.5775 -0.214 2.566 -0.214 C2.566 -0.214 2.5225 -0.2155 2.5225 -0.2155 L2.5225 -0.2 C2.538 -0.1995 2.546 -0.191 2.546 -0.1785 C2.546 -0.1735 2.5455 -0.1725 2.543 -0.1665 L2.4925 -0.0435 L2.437 -0.178 C2.435 -0.183 2.434 -0.185 2.434 -0.187 C2.434 -0.2 2.4525 -0.2 2.462 -0.2 L2.462 -0.2155 C2.462 -0.2155 2.4075 -0.214 2.4075 -0.214 C2.394 -0.214 2.374 -0.2145 2.359 -0.2155 L2.359 -0.2 C2.383 -0.2 2.3925 -0.2 2.3995 -0.1825 L2.4745 0 L2.462 0.0295 C2.451 0.057 2.437 0.0915 2.405 0.0915 C2.4025 0.0915 2.391 0.0915 2.3815 0.0825 C2.397 0.0805 2.401 0.0695 2.401 0.0615 C2.401 0.0485 2.3915 0.0405 2.38 0.0405 C2.37 0.0405 2.359 0.047 2.359 0.062 C2.359 0.0845 2.38 0.1025 2.405 0.1025 C2.4365 0.1025 2.457 0.074 2.469 0.0455 L2.557 -0.168 C2.57 -0.1995 2.5955 -0.2 2.6035 -0.2 Z"
         fill="black"
         stroke="none"
         stroke-width="0.1"
         transform="translate(-1.3018,-0.65)"
         id="path243" />
    </g>
    <g
       font-family="'LMRoman10'"
       font-size="0.5"
       stroke-width="0.02"
       transform="matrix(50,0,0,50,781.947,218.9529)"
       id="g245">
      <path
         d="M-13.05 -2 L-9.85 -2"
         fill="none"
         id="path247" />
      <path
         d="M-9.85 -2.075 L-9.85 -1.925 L-9.45 -2 Z"
         stroke="none"
         id="path249" />
    </g>
    <g
       font-family="'LMRoman10'"
       font-size="0.5"
       stroke-width="0.02"
       transform="matrix(50,0,0,50,781.947,218.9529)"
       id="g251">
      <path
         d="M-8.5587 -2.0883 L-4.8335 -2.8333"
         fill="none"
         id="path253" />
      <path
         d="M-4.8482 -2.9068 L-4.8188 -2.7598 L-4.4413 -2.9117 Z"
         stroke="none"
         id="path255" />
    </g>
    <g
       font-family="'LMRoman10'"
       font-size="0.5"
       stroke-width="0.02"
       transform="matrix(50,0,0,50,781.947,218.9529)"
       id="g257">
      <path
         d="M-8.5935 -1.8071 C-7.3336 -1.2371 -6.1583 -0.972 -4.8492 -0.968"
         fill="none"
         id="path259" />
      <path
         d="M-4.8505 -1.043 L-4.848 -0.893 L-4.4493 -0.9747 Z"
         stroke="none"
         id="path261" />
    </g>
    <g
       font-family="'LMRoman10'"
       font-size="0.5"
       stroke-width="0.02"
       transform="matrix(50,0,0,50,781.947,218.9529)"
       id="g263">
      <path
         d="M-8.713 -1.6534 C-7.7234 -0.522 -6.5097 0.2345 -4.8177 0.7684"
         fill="none"
         id="path265" />
      <path
         d="M-4.7962 0.6965 L-4.8393 0.8402 L-4.4346 0.8832 Z"
         stroke="none"
         id="path267" />
    </g>
    <g
       font-family="'LMRoman10'"
       font-size="0.5"
       stroke-width="0.02"
       transform="matrix(50,0,0,50,781.947,218.9529)"
       id="g269">
      <path
         d="M-8.8789 -1.5666 C-8.2214 0.5941 -6.9645 1.9273 -4.8072 2.7342"
         fill="none"
         id="path271" />
      <path
         d="M-4.7823 2.6635 L-4.8321 2.805 L-4.4299 2.867 Z"
         stroke="none"
         id="path273" />
    </g>
    <g
       font-family="'LMRoman10'"
       font-size="0.5"
       stroke-width="0.02"
       transform="matrix(50,0,0,50,781.947,218.9529)"
       id="g275">
      <path
         d="M-13.05 5.5 L-9.85 5.5"
         fill="none"
         id="path277" />
      <path
         d="M-9.85 5.425 L-9.85 5.575 L-9.45 5.5 Z"
         stroke="none"
         id="path279" />
    </g>
    <g
       font-family="'LMRoman10'"
       font-size="0.5"
       stroke-width="0.02"
       transform="matrix(50,0,0,50,781.947,218.9529)"
       id="g281">
      <path
         d="M-8.55 5.5 L-4.85 5.5"
         fill="none"
         id="path283" />
      <path
         d="M-4.85 5.425 L-4.85 5.575 L-4.45 5.5 Z"
         stroke="none"
         id="path285" />
    </g>
  </g>
  <rect
     style="fill:none;stroke:#000000;stroke-width:2.87;stroke-miterlimit:10;stroke-opacity:1;stroke-dasharray:17.22,17.22;stroke-dashoffset:0"
     id="rect3266"
     width="616.51178"
     height="105.91473"
     x="42.415165"
     y="430.99265" />
  <text
     xml:space="preserve"
     style="font-size:20px;font-style:normal;font-variant:normal;font-weight:normal;font-stretch:normal;text-align:center;line-height:125%;letter-spacing:0px;word-spacing:0px;text-anchor:middle;fill:#000000;fill-opacity:1;stroke:none;font-family:Serif;-inkscape-font-specification:Sans"
     x="183.24852"
     y="421.89542"
     id="text4036"
     sodipodi:linespacing="125%"><tspan
       sodipodi:role="line"
       id="tspan4038"
       x="183.24852"
       y="421.89542"
       style="font-size:24px">incAndFetchInstruction</tspan></text>
</svg>
