<?xml version="1.0" encoding="UTF-8" standalone="no"?>
<svg
   xmlns:dc="http://purl.org/dc/elements/1.1/"
   xmlns:cc="http://creativecommons.org/ns#"
   xmlns:rdf="http://www.w3.org/1999/02/22-rdf-syntax-ns#"
   xmlns:svg="http://www.w3.org/2000/svg"
   xmlns="http://www.w3.org/2000/svg"
   xmlns:sodipodi="http://sodipodi.sourceforge.net/DTD/sodipodi-0.dtd"
   xmlns:inkscape="http://www.inkscape.org/namespaces/inkscape"
   color-interpolation="auto"
   color-rendering="auto"
   fill="black"
   fill-opacity="1"
   font-family="'Dialog'"
   font-size="12"
   font-style="normal"
   font-weight="normal"
   height="256"
   image-rendering="auto"
   shape-rendering="auto"
   stroke="black"
   stroke-dasharray="none"
   stroke-dashoffset="0"
   stroke-linecap="square"
   stroke-linejoin="miter"
   stroke-miterlimit="10"
   stroke-opacity="1"
   stroke-width="1"
   text-rendering="auto"
   width="802"
   id="svg2"
   version="1.1"
   inkscape:version="0.48.4 r9939"
   sodipodi:docname="depPO.eps">
  <metadata
     id="metadata233">
    <rdf:RDF>
      <cc:Work
         rdf:about="">
        <dc:format>image/svg+xml</dc:format>
        <dc:type
           rdf:resource="http://purl.org/dc/dcmitype/StillImage" />
        <dc:title></dc:title>
      </cc:Work>
    </rdf:RDF>
  </metadata>
  <sodipodi:namedview
     pagecolor="#ffffff"
     bordercolor="#666666"
     borderopacity="1"
     objecttolerance="10"
     gridtolerance="10"
     guidetolerance="10"
     inkscape:pageopacity="0"
     inkscape:pageshadow="2"
     inkscape:window-width="1851"
     inkscape:window-height="1053"
     id="namedview231"
     showgrid="false"
     inkscape:zoom="2.1795111"
     inkscape:cx="340.14269"
     inkscape:cy="101.57807"
     inkscape:window-x="69"
     inkscape:window-y="27"
     inkscape:window-maximized="1"
     inkscape:current-layer="g5" />
  <!--Generated by the Batik Graphics2D SVG Generator-->
  <defs
     id="genericDefs" />
  <g
     id="g5">
    <g
       transform="matrix(50,0,0,50,143.33326,55.326686)"
       id="g7"
       style="fill:#ffffff;stroke:#ffffff">
      <circle
         cx="0"
         cy="0"
         r="0.44999999"
         id="circle9"
         d="M 0.44999999,0 C 0.44999999,0.24852813 0.24852813,0.44999999 0,0.44999999 -0.24852813,0.44999999 -0.44999999,0.24852813 -0.44999999,0 c 0,-0.24852813 0.20147186,-0.44999999 0.44999999,-0.44999999 0.24852813,0 0.44999999,0.20147186 0.44999999,0.44999999 z"
         sodipodi:cx="0"
         sodipodi:cy="0"
         sodipodi:rx="0.44999999"
         sodipodi:ry="0.44999999"
         style="stroke:none" />
    </g>
    <g
       transform="matrix(50,0,0,50,123.14525,55.326686)"
       id="g11"
       style="stroke-width:0.1">
      <circle
         cx="0"
         cy="0"
         r="0.44999999"
         id="circle13"
         d="M 0.44999999,0 C 0.44999999,0.24852813 0.24852813,0.44999999 0,0.44999999 -0.24852813,0.44999999 -0.44999999,0.24852813 -0.44999999,0 c 0,-0.24852813 0.20147186,-0.44999999 0.44999999,-0.44999999 0.24852813,0 0.44999999,0.20147186 0.44999999,0.44999999 z"
         sodipodi:cx="0"
         sodipodi:cy="0"
         sodipodi:rx="0.44999999"
         sodipodi:ry="0.44999999"
         style="fill:none"
         transform="translate(0.40376026,0)" />
      <path
         d="m -0.15854285,-0.85 0,-0.0155 c -0.011,0.001 -0.0255,0.0015 -0.0365,0.0015 0,0 -0.0465,-0.0015 -0.0465,-0.0015 l 0,0.0155 c 0.018,5e-4 0.029,0.0095 0.029,0.024 0,0.003 0,0.004 -0.0025,0.0105 l -0.0455,0.128 -0.0495,-0.1395 c -0.002,-0.006 -0.0025,-0.007 -0.0025,-0.0095 0,-0.0135 0.0195,-0.0135 0.0295,-0.0135 l 0,-0.0155 c 0,0 -0.052,0.0015 -0.052,0.0015 -0.015,0 -0.0295,-5e-4 -0.0445,-0.0015 l 0,0.0155 c 0.0185,0 0.0265,0.001 0.0315,0.0075 0.0025,0.003 0.008,0.018 0.0115,0.0275 l -0.043,0.121 -0.0475,-0.1335 c -0.0025,-0.006 -0.0025,-0.007 -0.0025,-0.009 0,-0.0135 0.0195,-0.0135 0.0295,-0.0135 l 0,-0.0155 c 0,0 -0.0545,0.0015 -0.0545,0.0015 0,0 -0.0465001,-0.0015 -0.0465001,-0.0015 l 0,0.0155 c 0.025,0 0.031,0.0015 0.037,0.0175 l 0.0630001,0.177 c 0.0025,0.007 0.004,0.011 0.0105,0.011 0.0065,0 0.0075,-0.003 0.01,-0.01 l 0.0505,-0.1415 0.051,0.142 c 0.002,0.0055 0.0035,0.0095 0.01,0.0095 0.0065,0 0.008,-0.0045 0.01,-0.0095 l 0.0585,-0.164 c 0.009,-0.025 0.0245,-0.0315 0.042,-0.032 z"
         id="path15"
         inkscape:connector-curvature="0"
         style="stroke:none" />
      <path
         d="m 0.02395715,-0.8405 c 0,-0.016 -0.0155,-0.0305 -0.037,-0.0305 -0.0365,0 -0.0545,0.0335 -0.0615,0.055 l 0,-0.055 -0.0695,0.0055 0,0.0155 c 0.035,0 0.039,0.0035 0.039,0.028 l 0,0.134 c 0,0.0225 -0.0055,0.0225 -0.039,0.0225 l 0,0.0155 c 0,0 0.057,-0.0015 0.057,-0.0015 0.02,0 0.0435,0 0.0635,0.0015 l 0,-0.0155 -0.0105,0 c -0.037,0 -0.038,-0.0055 -0.038,-0.0235 l 0,-0.077 c 0,-0.0495 0.021,-0.094 0.059,-0.094 0.0035,0 0.0045,0 0.0055,5e-4 -0.0015,5e-4 -0.0115,0.0065 -0.0115,0.0195 0,0.014 0.0105,0.0215 0.0215,0.0215 0.009,0 0.0215,-0.006 0.0215,-0.022 z"
         id="path17"
         inkscape:connector-curvature="0"
         style="stroke:none" />
      <path
         d="m 0.14695715,-0.65 0,-0.0155 c -0.033,0 -0.035,-0.0025 -0.035,-0.022 l 0,-0.1835 -0.07,0.0055 0,0.0155 c 0.0325,0 0.037,0.003 0.037,0.0275 l 0,0.1345 c 0,0.0225 -0.0055,0.0225 -0.039,0.0225 l 0,0.0155 c 0,0 0.055,-0.0015 0.055,-0.0015 0.0175,0 0.035,0.001 0.052,0.0015 z m -0.0275,-0.302 c 0,-0.0135 -0.0115,-0.0265 -0.0265,-0.0265 -0.017,0 -0.027,0.014 -0.027,0.0265 0,0.0135 0.0115,0.0265 0.0265,0.0265 0.017,0 0.027,-0.014 0.027,-0.0265 z"
         id="path19"
         inkscape:connector-curvature="0"
         style="stroke:none" />
      <path
         d="m 0.31145715,-0.712 0,-0.0285 -0.0125,0 0,0.0275 c 0,0.037 -0.015,0.056 -0.0335,0.056 -0.0335,0 -0.0335,-0.0455 -0.0335,-0.054 l 0,-0.139 0.0715,0 0,-0.0155 -0.0715,0 0,-0.092 -0.0125,0 c -5e-4,0.041 -0.0155,0.0945 -0.0645,0.0965 l 0,0.011 0.0425,0 0,0.138 c 0,0.0615 0.0465,0.0675 0.0645,0.0675 0.0355,0 0.0495,-0.0355 0.0495,-0.0675 z"
         id="path21"
         inkscape:connector-curvature="0"
         style="stroke:none" />
      <path
         d="m 0.53745715,-0.7095 c 0,-0.005 -0.004,-0.006 -0.0065,-0.006 -0.0045,0 -0.0055,0.003 -0.0065,0.007 -0.0175,0.0515 -0.0625,0.0515 -0.0675,0.0515 -0.025,0 -0.045,-0.015 -0.0565,-0.0335 -0.015,-0.024 -0.015,-0.057 -0.015,-0.075 l 0.1395,0 c 0.011,0 0.0125,0 0.0125,-0.0105 0,-0.0495 -0.027,-0.098 -0.0895,-0.098 -0.058,0 -0.104,0.0515 -0.104,0.114 0,0.067 0.0525,0.1155 0.11,0.1155 0.061,0 0.0835,-0.0555 0.0835,-0.065 z m -0.033,-0.0665 -0.1185,0 c 0.003,-0.0745 0.045,-0.087 0.062,-0.087 0.0515,0 0.0565,0.0675 0.0565,0.087 z"
         id="path23"
         inkscape:connector-curvature="0"
         style="stroke:none" />
      <path
         d="m 0.90395715,-0.694 c 0,-0.003 0,-0.0085 -0.0065,-0.0085 -0.0055,0 -0.0055,0.0045 -0.006,0.008 -0.003,0.0355 -0.0205,0.0445 -0.033,0.0445 -0.0245,0 -0.0285,-0.0255 -0.0355,-0.072 l -0.0065,-0.04 c -0.009,-0.032 -0.0335,-0.0485 -0.061,-0.058 0.0485,-0.012 0.0875,-0.0425 0.0875,-0.0815 0,-0.048 -0.057,-0.09 -0.1305,-0.09 l -0.157,0 0,0.0155 0.012,0 c 0.0385,0 0.0395,0.0055 0.0395,0.0235 l 0,0.2635 c 0,0.018 -10e-4,0.0235 -0.0395,0.0235 l -0.012,0 0,0.0155 c 0.018,-0.0015 0.0535,-0.0015 0.073,-0.0015 0.0195,0 0.055,0 0.073,0.0015 l 0,-0.0155 -0.012,0 c -0.0385,0 -0.0395,-0.0055 -0.0395,-0.0235 l 0,-0.1265 0.0575,0 c 0.008,0 0.029,0 0.0465,0.017 0.019,0.018 0.019,0.0335 0.019,0.067 0,0.0325 0,0.0525 0.0205,0.0715 0.0205,0.018 0.048,0.021 0.063,0.021 0.039,0 0.0475,-0.041 0.0475,-0.055 z m -0.1125,-0.2075 c 0,0.0345 -0.012,0.075 -0.086,0.075 l -0.0555,0 0,-0.1295 c 0,-0.0115 0,-0.0175 0.011,-0.019 0.005,-0.001 0.0195,-0.001 0.0295,-0.001 0.045,0 0.101,0.002 0.101,0.0745 z"
         id="path25"
         inkscape:connector-curvature="0"
         style="stroke:none" />
      <path
         d="m 1.0959572,-0.7095 c 0,-0.005 -0.004,-0.006 -0.0065,-0.006 -0.0045,0 -0.0055,0.003 -0.0065,0.007 -0.0175,0.0515 -0.0625,0.0515 -0.0675,0.0515 -0.025,0 -0.045,-0.015 -0.0565,-0.0335 -0.015,-0.024 -0.015,-0.057 -0.015,-0.075 l 0.1395001,0 c 0.011,0 0.0125,0 0.0125,-0.0105 0,-0.0495 -0.027,-0.098 -0.0895,-0.098 -0.0580002,0 -0.1040001,0.0515 -0.1040001,0.114 0,0.067 0.0525,0.1155 0.1100001,0.1155 0.061,0 0.0835,-0.0555 0.0835,-0.065 z m -0.033,-0.0665 -0.11850005,0 c 0.003,-0.0745 0.045,-0.087 0.0620001,-0.087 0.0515,0 0.0565,0.0675 0.0565,0.087 z"
         id="path27"
         inkscape:connector-curvature="0"
         style="stroke:none" />
      <path
         d="m 1.3389572,-0.852 c 0,-0.0085 -0.006,-0.0245 -0.0255,-0.0245 -0.01,0 -0.032,0.003 -0.053,0.0235 -0.021,-0.0165 -0.042,-0.018 -0.053,-0.018 -0.0465,0 -0.081,0.0345 -0.081,0.073 0,0.022 0.011,0.041 0.0235,0.0515 -0.0065,0.0075 -0.0155,0.024 -0.0155,0.0415 0,0.0155 0.0065,0.0345 0.022,0.0445 -0.03,0.0085 -0.046,0.03 -0.046,0.05 0,0.036 0.0495,0.0635 0.1105,0.0635 0.059,0 0.111,-0.0255 0.111,-0.0645 0,-0.0175 -0.007,-0.043 -0.0325,-0.057 -0.0265,-0.014 -0.0555,-0.014 -0.086,-0.014 -0.0125,0 -0.034,0 -0.0375,-5e-4 -0.016,-0.002 -0.0265,-0.0175 -0.0265,-0.0335 0,-0.002 0,-0.0135 0.0085,-0.0235 0.0195,0.014 0.04,0.0155 0.0495,0.0155 0.0465,0 0.081,-0.0345 0.081,-0.073 0,-0.0185 -0.008,-0.037 -0.0205,-0.0485 0.018,-0.017 0.036,-0.0195 0.045,-0.0195 0,0 0.0035,0 0.005,5e-4 -0.0055,0.002 -0.008,0.0075 -0.008,0.0135 0,0.0085 0.0065,0.0145 0.0145,0.0145 0.005,0 0.0145,-0.0035 0.0145,-0.015 z m -0.088,0.054 c 0,0.0135 -5e-4,0.0295 -0.008,0.042 -0.004,0.006 -0.0155,0.02 -0.0355,0.02 -0.0435,0 -0.0435,-0.05 -0.0435,-0.0615 0,-0.0135 5e-4,-0.0295 0.008,-0.042 0.004,-0.006 0.0155,-0.02 0.0355,-0.02 0.0435,0 0.0435,0.05 0.0435,0.0615 z m 0.055,0.1875 c 0,0.027 -0.0355,0.052 -0.0845,0.052 -0.0505,0 -0.085,-0.0255 -0.085,-0.052 0,-0.023 0.019,-0.0415 0.041,-0.043 l 0.0295,0 c 0.043,0 0.099,0 0.099,0.043 z"
         id="path29"
         inkscape:connector-curvature="0"
         style="stroke:none" />
      <path
         d="m 1.7962911,-0.694 c 0,-0.003 0,-0.0085 -0.0065,-0.0085 -0.0055,0 -0.0055,0.0045 -0.006,0.008 -0.003,0.0355 -0.0205,0.0445 -0.033,0.0445 -0.0245,0 -0.0285,-0.0255 -0.0355,-0.072 l -0.0065,-0.04 c -0.009,-0.032 -0.0335,-0.0485 -0.061,-0.058 0.0485,-0.012 0.0875,-0.0425 0.0875,-0.0815 0,-0.048 -0.057,-0.09 -0.1305,-0.09 l -0.157,0 0,0.0155 0.012,0 c 0.0385,0 0.0395,0.0055 0.0395,0.0235 l 0,0.2635 c 0,0.018 -10e-4,0.0235 -0.0395,0.0235 l -0.012,0 0,0.0155 c 0.018,-0.0015 0.0535,-0.0015 0.073,-0.0015 0.0195,0 0.055,0 0.073,0.0015 l 0,-0.0155 -0.012,0 c -0.0385,0 -0.0395,-0.0055 -0.0395,-0.0235 l 0,-0.1265 0.0575,0 c 0.008,0 0.029,0 0.0465,0.017 0.019,0.018 0.019,0.0335 0.019,0.067 0,0.0325 0,0.0525 0.0205,0.0715 0.0205,0.018 0.048,0.021 0.063,0.021 0.039,0 0.0475,-0.041 0.0475,-0.055 z m -0.1125,-0.2075 c 0,0.0345 -0.012,0.075 -0.086,0.075 l -0.0555,0 0,-0.1295 c 0,-0.0115 0,-0.0175 0.011,-0.019 0.005,-0.001 0.0195,-0.001 0.0295,-0.001 0.045,0 0.101,0.002 0.101,0.0745 z"
         id="path41"
         inkscape:connector-curvature="0"
         style="stroke:none" />
      <path
         d="m 2.0052911,-0.7505 c 0,-0.0595 -0.041,-0.1095 -0.095,-0.1095 -0.024,0 -0.0455,0.008 -0.0635,0.0255 l 0,-0.0975 c 0.01,0.003 0.0265,0.0065 0.0425,0.0065 0.0615,0 0.0965,-0.0455 0.0965,-0.052 0,-0.003 -0.0015,-0.0055 -0.005,-0.0055 0,0 -0.0015,0 -0.004,0.0015 -0.01,0.0045 -0.0345,0.0145 -0.068,0.0145 -0.02,0 -0.043,-0.0035 -0.0665,-0.014 -0.004,-0.0015 -0.006,-0.0015 -0.006,-0.0015 -0.005,0 -0.005,0.004 -0.005,0.012 l 0,0.148 c 0,0.009 0,0.013 0.007,0.013 0.0035,0 0.0045,-0.0015 0.0065,-0.0045 0.0055,-0.008 0.024,-0.035 0.0645,-0.035 0.026,0 0.0385,0.023 0.0425,0.032 0.008,0.0185 0.009,0.038 0.009,0.063 0,0.0175 0,0.0475 -0.012,0.0685 -0.012,0.0195 -0.0305,0.0325 -0.0535,0.0325 -0.0365,0 -0.065,-0.0265 -0.0735,-0.056 0.0015,5e-4 0.003,0.001 0.0085,0.001 0.0165,0 0.025,-0.0125 0.025,-0.0245 0,-0.012 -0.0085,-0.0245 -0.025,-0.0245 -0.007,0 -0.0245,0.0035 -0.0245,0.0265 0,0.043 0.0345,0.0915 0.0905,0.0915 0.058,0 0.109,-0.048 0.109,-0.1115 z"
         id="path43"
         inkscape:connector-curvature="0"
         style="stroke:none" />
    </g>
    <g
       font-size="0.5"
       transform="matrix(50,0,0,50,310.64525,55.326686)"
       id="g45"
       style="font-size:0.5px;fill:#ffffff;stroke:#ffffff;stroke-width:0.025;font-family:LMRoman10">
      <circle
         cx="0"
         cy="0"
         r="0.44999999"
         id="circle47"
         d="M 0.44999999,0 C 0.44999999,0.24852813 0.24852813,0.44999999 0,0.44999999 -0.24852813,0.44999999 -0.44999999,0.24852813 -0.44999999,0 c 0,-0.24852813 0.20147186,-0.44999999 0.44999999,-0.44999999 0.24852813,0 0.44999999,0.20147186 0.44999999,0.44999999 z"
         sodipodi:cx="0"
         sodipodi:cy="0"
         sodipodi:rx="0.44999999"
         sodipodi:ry="0.44999999"
         style="stroke:none" />
      <circle
         cx="0"
         cy="0"
         r="0.44999999"
         id="circle49"
         d="M 0.44999999,0 C 0.44999999,0.24852813 0.24852813,0.44999999 0,0.44999999 -0.24852813,0.44999999 -0.44999999,0.24852813 -0.44999999,0 c 0,-0.24852813 0.20147186,-0.44999999 0.44999999,-0.44999999 0.24852813,0 0.44999999,0.20147186 0.44999999,0.44999999 z"
         sodipodi:cx="0"
         sodipodi:cy="0"
         sodipodi:rx="0.44999999"
         sodipodi:ry="0.44999999"
         style="fill:none;stroke:#000000;stroke-width:0.1" />
      <path
         d="m -0.6525668,-0.85 0,-0.0155 c -0.011,0.001 -0.0255,0.0015 -0.0365,0.0015 0,0 -0.0465,-0.0015 -0.0465,-0.0015 l 0,0.0155 c 0.018,5e-4 0.029,0.0095 0.029,0.024 0,0.003 0,0.004 -0.0025,0.0105 l -0.0455,0.128 -0.0495,-0.1395 c -0.002,-0.006 -0.0025,-0.007 -0.0025,-0.0095 0,-0.0135 0.0195,-0.0135 0.0295,-0.0135 l 0,-0.0155 c 0,0 -0.052,0.0015 -0.052,0.0015 -0.015,0 -0.0295,-5e-4 -0.0445,-0.0015 l 0,0.0155 c 0.0185,0 0.0265,0.001 0.0315,0.0075 0.0025,0.003 0.008,0.018 0.0115,0.0275 l -0.043,0.121 -0.0475,-0.1335 c -0.0025,-0.006 -0.0025,-0.007 -0.0025,-0.009 0,-0.0135 0.0195,-0.0135 0.0295,-0.0135 l 0,-0.0155 c 0,0 -0.0545,0.0015 -0.0545,0.0015 0,0 -0.0465,-0.0015 -0.0465,-0.0015 l 0,0.0155 c 0.025,0 0.031,0.0015 0.037,0.0175 l 0.063,0.177 c 0.0025,0.007 0.004,0.011 0.0105,0.011 0.0065,0 0.0075,-0.003 0.01,-0.01 l 0.0505,-0.1415 0.051,0.142 c 0.002,0.0055 0.0035,0.0095 0.01,0.0095 0.0065,0 0.008,-0.0045 0.01,-0.0095 l 0.0585,-0.164 c 0.009,-0.025 0.0245,-0.0315 0.042,-0.032 z"
         id="path51"
         inkscape:connector-curvature="0"
         style="fill:#000000;stroke:none" />
      <path
         d="m -0.4700668,-0.8405 c 0,-0.016 -0.0155,-0.0305 -0.037,-0.0305 -0.0365,0 -0.0545,0.0335 -0.0615,0.055 l 0,-0.055 -0.0695,0.0055 0,0.0155 c 0.035,0 0.039,0.0035 0.039,0.028 l 0,0.134 c 0,0.0225 -0.0055,0.0225 -0.039,0.0225 l 0,0.0155 c 0,0 0.057,-0.0015 0.057,-0.0015 0.02,0 0.0435,0 0.0635,0.0015 l 0,-0.0155 -0.0105,0 c -0.037,0 -0.038,-0.0055 -0.038,-0.0235 l 0,-0.077 c 0,-0.0495 0.021,-0.094 0.059,-0.094 0.0035,0 0.0045,0 0.0055,5e-4 -0.0015,5e-4 -0.0115,0.0065 -0.0115,0.0195 0,0.014 0.0105,0.0215 0.0215,0.0215 0.009,0 0.0215,-0.006 0.0215,-0.022 z"
         id="path53"
         inkscape:connector-curvature="0"
         style="fill:#000000;stroke:none" />
      <path
         d="m -0.3470668,-0.65 0,-0.0155 c -0.033,0 -0.035,-0.0025 -0.035,-0.022 l 0,-0.1835 -0.07,0.0055 0,0.0155 c 0.0325,0 0.037,0.003 0.037,0.0275 l 0,0.1345 c 0,0.0225 -0.0055,0.0225 -0.039,0.0225 l 0,0.0155 c 0,0 0.055,-0.0015 0.055,-0.0015 0.0175,0 0.035,0.001 0.052,0.0015 z m -0.0275,-0.302 c 0,-0.0135 -0.0115,-0.0265 -0.0265,-0.0265 -0.017,0 -0.027,0.014 -0.027,0.0265 0,0.0135 0.0115,0.0265 0.0265,0.0265 0.017,0 0.027,-0.014 0.027,-0.0265 z"
         id="path55"
         inkscape:connector-curvature="0"
         style="fill:#000000;stroke:none" />
      <path
         d="m -0.1825668,-0.712 0,-0.0285 -0.0125,0 0,0.0275 c 0,0.037 -0.015,0.056 -0.0335,0.056 -0.0335,0 -0.0335,-0.0455 -0.0335,-0.054 l 0,-0.139 0.0715,0 0,-0.0155 -0.0715,0 0,-0.092 -0.0125,0 c -5e-4,0.041 -0.0155,0.0945 -0.0645,0.0965 l 0,0.011 0.0425,0 0,0.138 c 0,0.0615 0.0465,0.0675 0.0645,0.0675 0.0355,0 0.0495,-0.0355 0.0495,-0.0675 z"
         id="path57"
         inkscape:connector-curvature="0"
         style="fill:#000000;stroke:none" />
      <path
         d="m 0.0434332,-0.7095 c 0,-0.005 -0.004,-0.006 -0.0065,-0.006 -0.0045,0 -0.0055,0.003 -0.0065,0.007 -0.0175,0.0515 -0.0625,0.0515 -0.0675,0.0515 -0.025,0 -0.045,-0.015 -0.0565,-0.0335 -0.015,-0.024 -0.015,-0.057 -0.015,-0.075 l 0.1395,0 c 0.011,0 0.0125,0 0.0125,-0.0105 0,-0.0495 -0.027,-0.098 -0.0895,-0.098 -0.058,0 -0.104,0.0515 -0.104,0.114 0,0.067 0.0525,0.1155 0.11,0.1155 0.061,0 0.0835,-0.0555 0.0835,-0.065 z m -0.033,-0.0665 -0.1185,0 c 0.003,-0.0745 0.045,-0.087 0.062,-0.087 0.0515,0 0.0565,0.0675 0.0565,0.087 z"
         id="path59"
         inkscape:connector-curvature="0"
         style="fill:#000000;stroke:none" />
      <path
         d="m 0.4099332,-0.694 c 0,-0.003 0,-0.0085 -0.0065,-0.0085 -0.0055,0 -0.0055,0.0045 -0.006,0.008 -0.003,0.0355 -0.0205,0.0445 -0.033,0.0445 -0.0245,0 -0.0285,-0.0255 -0.0355,-0.072 l -0.0065,-0.04 c -0.009,-0.032 -0.0335,-0.0485 -0.061,-0.058 0.0485,-0.012 0.0875,-0.0425 0.0875,-0.0815 0,-0.048 -0.057,-0.09 -0.1305,-0.09 l -0.157,0 0,0.0155 0.012,0 c 0.0385,0 0.0395,0.0055 0.0395,0.0235 l 0,0.2635 c 0,0.018 -0.001,0.0235 -0.0395,0.0235 l -0.012,0 0,0.0155 c 0.018,-0.0015 0.0535,-0.0015 0.073,-0.0015 0.0195,0 0.055,0 0.073,0.0015 l 0,-0.0155 -0.012,0 c -0.0385,0 -0.0395,-0.0055 -0.0395,-0.0235 l 0,-0.1265 0.0575,0 c 0.008,0 0.029,0 0.0465,0.017 0.019,0.018 0.019,0.0335 0.019,0.067 0,0.0325 0,0.0525 0.0205,0.0715 0.0205,0.018 0.048,0.021 0.063,0.021 0.039,0 0.0475,-0.041 0.0475,-0.055 z m -0.1125,-0.2075 c 0,0.0345 -0.012,0.075 -0.086,0.075 l -0.0555,0 0,-0.1295 c 0,-0.0115 0,-0.0175 0.011,-0.019 0.005,-0.001 0.0195,-0.001 0.0295,-0.001 0.045,0 0.101,0.002 0.101,0.0745 z"
         id="path61"
         inkscape:connector-curvature="0"
         style="fill:#000000;stroke:none" />
      <path
         d="m 0.6019332,-0.7095 c 0,-0.005 -0.004,-0.006 -0.0065,-0.006 -0.0045,0 -0.0055,0.003 -0.0065,0.007 -0.0175,0.0515 -0.0625,0.0515 -0.0675,0.0515 -0.025,0 -0.045,-0.015 -0.0565,-0.0335 -0.015,-0.024 -0.015,-0.057 -0.015,-0.075 l 0.1395,0 c 0.011,0 0.0125,0 0.0125,-0.0105 0,-0.0495 -0.027,-0.098 -0.0895,-0.098 -0.058,0 -0.104,0.0515 -0.104,0.114 0,0.067 0.0525,0.1155 0.11,0.1155 0.061,0 0.0835,-0.0555 0.0835,-0.065 z m -0.033,-0.0665 -0.1185,0 c 0.003,-0.0745 0.045,-0.087 0.062,-0.087 0.0515,0 0.0565,0.0675 0.0565,0.087 z"
         id="path63"
         inkscape:connector-curvature="0"
         style="fill:#000000;stroke:none" />
      <path
         d="m 0.8449332,-0.852 c 0,-0.0085 -0.006,-0.0245 -0.0255,-0.0245 -0.01,0 -0.032,0.003 -0.053,0.0235 -0.021,-0.0165 -0.042,-0.018 -0.053,-0.018 -0.0465,0 -0.081,0.0345 -0.081,0.073 0,0.022 0.011,0.041 0.0235,0.0515 -0.0065,0.0075 -0.0155,0.024 -0.0155,0.0415 0,0.0155 0.0065,0.0345 0.022,0.0445 -0.03,0.0085 -0.046,0.03 -0.046,0.05 0,0.036 0.0495,0.0635 0.1105,0.0635 0.059,0 0.111,-0.0255 0.111,-0.0645 0,-0.0175 -0.007,-0.043 -0.0325,-0.057 -0.0265,-0.014 -0.0555,-0.014 -0.086,-0.014 -0.0125,0 -0.034,0 -0.0375,-5e-4 -0.016,-0.002 -0.0265,-0.0175 -0.0265,-0.0335 0,-0.002 0,-0.0135 0.0085,-0.0235 0.0195,0.014 0.04,0.0155 0.0495,0.0155 0.0465,0 0.081,-0.0345 0.081,-0.073 0,-0.0185 -0.008,-0.037 -0.0205,-0.0485 0.018,-0.017 0.036,-0.0195 0.045,-0.0195 0,0 0.0035,0 0.005,5e-4 -0.0055,0.002 -0.008,0.0075 -0.008,0.0135 0,0.0085 0.0065,0.0145 0.0145,0.0145 0.005,0 0.0145,-0.0035 0.0145,-0.015 z m -0.088,0.054 c 0,0.0135 -5e-4,0.0295 -0.008,0.042 -0.004,0.006 -0.0155,0.02 -0.0355,0.02 -0.0435,0 -0.0435,-0.05 -0.0435,-0.0615 0,-0.0135 5e-4,-0.0295 0.008,-0.042 0.004,-0.006 0.0155,-0.02 0.0355,-0.02 0.0435,0 0.0435,0.05 0.0435,0.0615 z m 0.055,0.1875 c 0,0.027 -0.0355,0.052 -0.0845,0.052 -0.0505,0 -0.085,-0.0255 -0.085,-0.052 0,-0.023 0.019,-0.0415 0.041,-0.043 l 0.0295,0 c 0.043,0 0.099,0 0.099,0.043 z"
         id="path65"
         inkscape:connector-curvature="0"
         style="fill:#000000;stroke:none" />
      <path
         d="m 1.3114435,-0.694 c 0,-0.003 0,-0.0085 -0.0065,-0.0085 -0.0055,0 -0.0055,0.0045 -0.006,0.008 -0.003,0.0355 -0.0205,0.0445 -0.033,0.0445 -0.0245,0 -0.0285,-0.0255 -0.0355,-0.072 l -0.0065,-0.04 c -0.009,-0.032 -0.0335,-0.0485 -0.061,-0.058 0.0485,-0.012 0.0875,-0.0425 0.0875,-0.0815 0,-0.048 -0.057,-0.09 -0.1305,-0.09 l -0.157,0 0,0.0155 0.012,0 c 0.0385,0 0.0395,0.0055 0.0395,0.0235 l 0,0.2635 c 0,0.018 -0.001,0.0235 -0.0395,0.0235 l -0.012,0 0,0.0155 c 0.018,-0.0015 0.0535,-0.0015 0.073,-0.0015 0.0195,0 0.055,0 0.073,0.0015 l 0,-0.0155 -0.012,0 c -0.0385,0 -0.0395,-0.0055 -0.0395,-0.0235 l 0,-0.1265 0.0575,0 c 0.008,0 0.029,0 0.0465,0.017 0.019,0.018 0.019,0.0335 0.019,0.067 0,0.0325 0,0.0525 0.0205,0.0715 0.0205,0.018 0.048,0.021 0.063,0.021 0.039,0 0.0475,-0.041 0.0475,-0.055 z m -0.1125,-0.2075 c 0,0.0345 -0.012,0.075 -0.086,0.075 l -0.0555,0 0,-0.1295 c 0,-0.0115 0,-0.0175 0.011,-0.019 0.005,-0.001 0.0195,-0.001 0.0295,-0.001 0.045,0 0.101,0.002 0.101,0.0745 z"
         id="path77"
         inkscape:connector-curvature="0"
         style="fill:#000000;stroke:none" />
      <path
         d="m 1.5384435,-0.972 -0.1215,0 c -0.061,0 -0.062,-0.0065 -0.064,-0.016 l -0.0125,0 -0.0165,0.103 0.0125,0 c 0.0015,-0.008 0.006,-0.0395 0.0125,-0.0455 0.0035,-0.003 0.0425,-0.003 0.049,-0.003 l 0.1035,0 -0.056,0.079 c -0.045,0.0675 -0.0615,0.137 -0.0615,0.188 0,0.005 0,0.0275 0.023,0.0275 0.023,0 0.023,-0.0225 0.023,-0.0275 l 0,-0.0255 c 0,-0.0275 0.0015,-0.055 0.0055,-0.082 0.002,-0.0115 0.009,-0.0545 0.031,-0.0855 l 0.0675,-0.095 c 0.0045,-0.006 0.0045,-0.007 0.0045,-0.0175 z"
         id="path79"
         inkscape:connector-curvature="0"
         style="fill:#000000;stroke:none" />
    </g>
    <g
       font-size="0.5"
       transform="matrix(50,0,0,50,493.03361,55.326686)"
       id="g81"
       style="font-size:0.5px;fill:#ffffff;stroke:#ffffff;stroke-width:0.025;font-family:LMRoman10">
      <circle
         cx="0"
         cy="0"
         r="0.44999999"
         id="circle83"
         d="M 0.44999999,0 C 0.44999999,0.24852813 0.24852813,0.44999999 0,0.44999999 -0.24852813,0.44999999 -0.44999999,0.24852813 -0.44999999,0 c 0,-0.24852813 0.20147186,-0.44999999 0.44999999,-0.44999999 0.24852813,0 0.44999999,0.20147186 0.44999999,0.44999999 z"
         sodipodi:cx="0"
         sodipodi:cy="0"
         sodipodi:rx="0.44999999"
         sodipodi:ry="0.44999999"
         style="stroke:none"
         transform="translate(-0.40376026,0)" />
      <circle
         cx="0"
         cy="0"
         r="0.44999999"
         id="circle85"
         d="M 0.44999999,0 C 0.44999999,0.24852813 0.24852813,0.44999999 0,0.44999999 -0.24852813,0.44999999 -0.44999999,0.24852813 -0.44999999,0 c 0,-0.24852813 0.20147186,-0.44999999 0.44999999,-0.44999999 0.24852813,0 0.44999999,0.20147186 0.44999999,0.44999999 z"
         sodipodi:cx="0"
         sodipodi:cy="0"
         sodipodi:rx="0.44999999"
         sodipodi:ry="0.44999999"
         style="fill:none;stroke:#000000;stroke-width:0.1"
         transform="translate(-0.40376026,0)" />
      <path
         d="m -1.2765599,-0.85 0,-0.0155 c -0.011,0.001 -0.0255,0.0015 -0.0365,0.0015 0,0 -0.0465,-0.0015 -0.0465,-0.0015 l 0,0.0155 c 0.018,5e-4 0.029,0.0095 0.029,0.024 0,0.003 0,0.004 -0.0025,0.0105 l -0.0455,0.128 -0.0495,-0.1395 c -0.002,-0.006 -0.0025,-0.007 -0.0025,-0.0095 0,-0.0135 0.0195,-0.0135 0.0295,-0.0135 l 0,-0.0155 c 0,0 -0.052,0.0015 -0.052,0.0015 -0.015,0 -0.0295,-5e-4 -0.0445,-0.0015 l 0,0.0155 c 0.0185,0 0.0265,0.001 0.0315,0.0075 0.0025,0.003 0.008,0.018 0.0115,0.0275 l -0.043,0.121 -0.0475,-0.1335 c -0.0025,-0.006 -0.0025,-0.007 -0.0025,-0.009 0,-0.0135 0.0195,-0.0135 0.0295,-0.0135 l 0,-0.0155 c 0,0 -0.0545,0.0015 -0.0545,0.0015 0,0 -0.0465,-0.0015 -0.0465,-0.0015 l 0,0.0155 c 0.025,0 0.031,0.0015 0.037,0.0175 l 0.063,0.177 c 0.0025,0.007 0.004,0.011 0.0105,0.011 0.0065,0 0.0075,-0.003 0.01,-0.01 l 0.0505,-0.1415 0.051,0.142 c 0.002,0.0055 0.0035,0.0095 0.01,0.0095 0.0065,0 0.008,-0.0045 0.01,-0.0095 l 0.0585,-0.164 c 0.009,-0.025 0.0245,-0.0315 0.042,-0.032 z"
         id="path87"
         inkscape:connector-curvature="0"
         style="fill:#000000;stroke:none" />
      <path
         d="m -1.0940599,-0.8405 c 0,-0.016 -0.0155,-0.0305 -0.037,-0.0305 -0.0365,0 -0.0545,0.0335 -0.0615,0.055 l 0,-0.055 -0.0695,0.0055 0,0.0155 c 0.035,0 0.039,0.0035 0.039,0.028 l 0,0.134 c 0,0.0225 -0.0055,0.0225 -0.039,0.0225 l 0,0.0155 c 0,0 0.057,-0.0015 0.057,-0.0015 0.02,0 0.0435,0 0.0635,0.0015 l 0,-0.0155 -0.0105,0 c -0.037,0 -0.038,-0.0055 -0.038,-0.0235 l 0,-0.077 c 0,-0.0495 0.021,-0.094 0.059,-0.094 0.0035,0 0.0045,0 0.0055,5e-4 -0.0015,5e-4 -0.0115,0.0065 -0.0115,0.0195 0,0.014 0.0105,0.0215 0.0215,0.0215 0.009,0 0.0215,-0.006 0.0215,-0.022 z"
         id="path89"
         inkscape:connector-curvature="0"
         style="fill:#000000;stroke:none" />
      <path
         d="m -0.97105993,-0.65 0,-0.0155 c -0.033,0 -0.035,-0.0025 -0.035,-0.022 l 0,-0.1835 -0.07,0.0055 0,0.0155 c 0.0325,0 0.037,0.003 0.037,0.0275 l 0,0.1345 c 0,0.0225 -0.0055,0.0225 -0.039,0.0225 l 0,0.0155 c 0,0 0.055,-0.0015 0.055,-0.0015 0.0175,0 0.035,0.001 0.052,0.0015 z m -0.0275,-0.302 c 0,-0.0135 -0.0115,-0.0265 -0.0265,-0.0265 -0.017,0 -0.027,0.014 -0.027,0.0265 0,0.0135 0.0115,0.0265 0.0265,0.0265 0.017,0 0.027,-0.014 0.027,-0.0265 z"
         id="path91"
         inkscape:connector-curvature="0"
         style="fill:#000000;stroke:none" />
      <path
         d="m -0.80655993,-0.712 0,-0.0285 -0.0125,0 0,0.0275 c 0,0.037 -0.015,0.056 -0.0335,0.056 -0.0335,0 -0.0335,-0.0455 -0.0335,-0.054 l 0,-0.139 0.0715,0 0,-0.0155 -0.0715,0 0,-0.092 -0.0125,0 c -5e-4,0.041 -0.0155,0.0945 -0.0645,0.0965 l 0,0.011 0.0425,0 0,0.138 c 0,0.0615 0.0465,0.0675 0.0645,0.0675 0.0355,0 0.0495,-0.0355 0.0495,-0.0675 z"
         id="path93"
         inkscape:connector-curvature="0"
         style="fill:#000000;stroke:none" />
      <path
         d="m -0.58055993,-0.7095 c 0,-0.005 -0.004,-0.006 -0.0065,-0.006 -0.0045,0 -0.0055,0.003 -0.0065,0.007 -0.0175,0.0515 -0.0625,0.0515 -0.0675,0.0515 -0.025,0 -0.045,-0.015 -0.0565,-0.0335 -0.015,-0.024 -0.015,-0.057 -0.015,-0.075 l 0.1395,0 c 0.011,0 0.0125,0 0.0125,-0.0105 0,-0.0495 -0.027,-0.098 -0.0895,-0.098 -0.058,0 -0.104,0.0515 -0.104,0.114 0,0.067 0.0525,0.1155 0.11,0.1155 0.061,0 0.0835,-0.0555 0.0835,-0.065 z m -0.033,-0.0665 -0.1185,0 c 0.003,-0.0745 0.045,-0.087 0.062,-0.087 0.0515,0 0.0565,0.0675 0.0565,0.087 z"
         id="path95"
         inkscape:connector-curvature="0"
         style="fill:#000000;stroke:none" />
      <path
         d="m -0.21405993,-0.694 c 0,-0.003 0,-0.0085 -0.0065,-0.0085 -0.0055,0 -0.0055,0.0045 -0.006,0.008 -0.003,0.0355 -0.0205,0.0445 -0.033,0.0445 -0.0245,0 -0.0285,-0.0255 -0.0355,-0.072 l -0.0065,-0.04 c -0.009,-0.032 -0.0335,-0.0485 -0.061,-0.058 0.0485,-0.012 0.0875,-0.0425 0.0875,-0.0815 0,-0.048 -0.057,-0.09 -0.1305,-0.09 l -0.157,0 0,0.0155 0.012,0 c 0.0385,0 0.0395,0.0055 0.0395,0.0235 l 0,0.2635 c 0,0.018 -0.001,0.0235 -0.0395,0.0235 l -0.012,0 0,0.0155 c 0.018,-0.0015 0.0535,-0.0015 0.073,-0.0015 0.0195,0 0.055,0 0.073,0.0015 l 0,-0.0155 -0.012,0 c -0.0385,0 -0.0395,-0.0055 -0.0395,-0.0235 l 0,-0.1265 0.0575,0 c 0.008,0 0.029,0 0.0465,0.017 0.019,0.018 0.019,0.0335 0.019,0.067 0,0.0325 0,0.0525 0.0205,0.0715 0.0205,0.018 0.048,0.021 0.063,0.021 0.039,0 0.0475,-0.041 0.0475,-0.055 z m -0.1125,-0.2075 c 0,0.0345 -0.012,0.075 -0.086,0.075 l -0.0555,0 0,-0.1295 c 0,-0.0115 0,-0.0175 0.011,-0.019 0.005,-0.001 0.0195,-0.001 0.0295,-0.001 0.045,0 0.101,0.002 0.101,0.0745 z"
         id="path97"
         inkscape:connector-curvature="0"
         style="fill:#000000;stroke:none" />
      <path
         d="m -0.02205993,-0.7095 c 0,-0.005 -0.004,-0.006 -0.0065,-0.006 -0.0045,0 -0.0055,0.003 -0.0065,0.007 -0.0175,0.0515 -0.0625,0.0515 -0.0675,0.0515 -0.025,0 -0.045,-0.015 -0.0565,-0.0335 -0.015,-0.024 -0.015,-0.057 -0.015,-0.075 l 0.1395,0 c 0.011,0 0.0125,0 0.0125,-0.0105 0,-0.0495 -0.027,-0.098 -0.0895,-0.098 -0.058,0 -0.104,0.0515 -0.104,0.114 0,0.067 0.0525,0.1155 0.11,0.1155 0.061,0 0.0835,-0.0555 0.0835,-0.065 z m -0.033,-0.0665 -0.1185,0 c 0.003,-0.0745 0.045,-0.087 0.062,-0.087 0.0515,0 0.0565,0.0675 0.0565,0.087 z"
         id="path99"
         inkscape:connector-curvature="0"
         style="fill:#000000;stroke:none" />
      <path
         d="m 0.22094007,-0.852 c 0,-0.0085 -0.006,-0.0245 -0.0255,-0.0245 -0.01,0 -0.032,0.003 -0.053,0.0235 -0.021,-0.0165 -0.042,-0.018 -0.053,-0.018 -0.0465,0 -0.081,0.0345 -0.081,0.073 0,0.022 0.011,0.041 0.0235,0.0515 -0.0065,0.0075 -0.0155,0.024 -0.0155,0.0415 0,0.0155 0.0065,0.0345 0.022,0.0445 -0.03,0.0085 -0.046,0.03 -0.046,0.05 0,0.036 0.0495,0.0635 0.1105,0.0635 0.059,0 0.111,-0.0255 0.111,-0.0645 0,-0.0175 -0.007,-0.043 -0.0325,-0.057 -0.0265,-0.014 -0.0555,-0.014 -0.086,-0.014 -0.0125,0 -0.034,0 -0.0375,-5e-4 -0.016,-0.002 -0.0265,-0.0175 -0.0265,-0.0335 0,-0.002 0,-0.0135 0.0085,-0.0235 0.0195,0.014 0.04,0.0155 0.0495,0.0155 0.0465,0 0.081,-0.0345 0.081,-0.073 0,-0.0185 -0.008,-0.037 -0.0205,-0.0485 0.018,-0.017 0.036,-0.0195 0.045,-0.0195 0,0 0.0035,0 0.005,5e-4 -0.0055,0.002 -0.008,0.0075 -0.008,0.0135 0,0.0085 0.0065,0.0145 0.0145,0.0145 0.005,0 0.0145,-0.0035 0.0145,-0.015 z m -0.088,0.054 c 0,0.0135 -5e-4,0.0295 -0.008,0.042 -0.004,0.006 -0.0155,0.02 -0.0355,0.02 -0.0435,0 -0.0435,-0.05 -0.0435,-0.0615 0,-0.0135 5e-4,-0.0295 0.008,-0.042 0.004,-0.006 0.0155,-0.02 0.0355,-0.02 0.0435,0 0.0435,0.05 0.0435,0.0615 z m 0.055,0.1875 c 0,0.027 -0.0355,0.052 -0.0845,0.052 -0.0505,0 -0.085,-0.0255 -0.085,-0.052 0,-0.023 0.019,-0.0415 0.041,-0.043 l 0.0295,0 c 0.043,0 0.099,0 0.099,0.043 z"
         id="path101"
         inkscape:connector-curvature="0"
         style="fill:#000000;stroke:none" />
      <path
         d="m 0.64156854,-0.694 c 0,-0.003 0,-0.0085 -0.0065,-0.0085 -0.0055,0 -0.0055,0.0045 -0.006,0.008 -0.003,0.0355 -0.0205,0.0445 -0.033,0.0445 -0.0245,0 -0.0285,-0.0255 -0.0355,-0.072 l -0.0065,-0.04 c -0.009,-0.032 -0.0335,-0.0485 -0.061,-0.058 0.0485,-0.012 0.0875,-0.0425 0.0875,-0.0815 0,-0.048 -0.057,-0.09 -0.1305,-0.09 l -0.157,0 0,0.0155 0.012,0 c 0.0385,0 0.0395,0.0055 0.0395,0.0235 l 0,0.2635 c 0,0.018 -0.001,0.0235 -0.0395,0.0235 l -0.012,0 0,0.0155 c 0.018,-0.0015 0.0535,-0.0015 0.073,-0.0015 0.0195,0 0.055,0 0.073,0.0015 l 0,-0.0155 -0.012,0 c -0.0385,0 -0.0395,-0.0055 -0.0395,-0.0235 l 0,-0.1265 0.0575,0 c 0.008,0 0.029,0 0.0465,0.017 0.019,0.018 0.019,0.0335 0.019,0.067 0,0.0325 0,0.0525 0.0205,0.0715 0.0205,0.018 0.048,0.021 0.063,0.021 0.039,0 0.0475,-0.041 0.0475,-0.055 z M 0.52906853,-0.9015 c 0,0.0345 -0.012,0.075 -0.086,0.075 l -0.0555,0 0,-0.1295 c 0,-0.0115 0,-0.0175 0.011,-0.019 0.005,-0.001 0.0195,-0.001 0.0295,-0.001 0.045,0 0.101,0.002 0.101,0.0745 z"
         id="path113"
         inkscape:connector-curvature="0"
         style="fill:#000000;stroke:none" />
      <path
         d="m 0.86856854,-0.972 -0.1215,0 c -0.061,0 -0.062,-0.0065 -0.064,-0.016 l -0.0125,0 -0.0165,0.103 0.0125,0 c 0.0015,-0.008 0.006,-0.0395 0.0125,-0.0455 0.0035,-0.003 0.0425,-0.003 0.049,-0.003 l 0.1035,0 -0.056,0.079 c -0.045,0.0675 -0.0615,0.137 -0.0615,0.188 0,0.005 0,0.0275 0.023,0.0275 0.023,0 0.023,-0.0225 0.023,-0.0275 l 0,-0.0255 c 0,-0.0275 0.0015,-0.055 0.0055,-0.082 0.002,-0.0115 0.009,-0.0545 0.031,-0.0855 l 0.0675,-0.095 c 0.0045,-0.006 0.0045,-0.007 0.0045,-0.0175 z"
         id="path115"
         inkscape:connector-curvature="0"
         style="fill:#000000;stroke:none" />
    </g>
    <g
       font-size="0.5"
       transform="matrix(50,0,0,50,641.64594,55.326686)"
       id="g117"
       style="font-size:0.5px;fill:#ffffff;stroke:#ffffff;stroke-width:0.025;font-family:LMRoman10">
      <circle
         cx="0"
         cy="0"
         r="0.44999999"
         id="circle119"
         d="M 0.44999999,0 C 0.44999999,0.24852813 0.24852813,0.44999999 0,0.44999999 -0.24852813,0.44999999 -0.44999999,0.24852813 -0.44999999,0 c 0,-0.24852813 0.20147186,-0.44999999 0.44999999,-0.44999999 0.24852813,0 0.44999999,0.20147186 0.44999999,0.44999999 z"
         sodipodi:cx="0"
         sodipodi:cy="0"
         sodipodi:rx="0.44999999"
         sodipodi:ry="0.44999999"
         style="stroke:none" />
      <circle
         cx="0"
         cy="0"
         r="0.44999999"
         id="circle121"
         d="M 0.44999999,0 C 0.44999999,0.24852813 0.24852813,0.44999999 0,0.44999999 -0.24852813,0.44999999 -0.44999999,0.24852813 -0.44999999,0 c 0,-0.24852813 0.20147186,-0.44999999 0.44999999,-0.44999999 0.24852813,0 0.44999999,0.20147186 0.44999999,0.44999999 z"
         sodipodi:cx="0"
         sodipodi:cy="0"
         sodipodi:rx="0.44999999"
         sodipodi:ry="0.44999999"
         style="fill:none;stroke:#000000;stroke-width:0.1" />
      <path
         d="m -0.97373974,-0.85 0,-0.0155 c -0.011,0.001 -0.0255,0.0015 -0.0365,0.0015 0,0 -0.0465,-0.0015 -0.0465,-0.0015 l 0,0.0155 c 0.018,5e-4 0.029,0.0095 0.029,0.024 0,0.003 0,0.004 -0.0025,0.0105 l -0.0455,0.128 -0.0495,-0.1395 c -0.002,-0.006 -0.0025,-0.007 -0.0025,-0.0095 0,-0.0135 0.0195,-0.0135 0.0295,-0.0135 l 0,-0.0155 c 0,0 -0.052,0.0015 -0.052,0.0015 -0.015,0 -0.0295,-5e-4 -0.0445,-0.0015 l 0,0.0155 c 0.0185,0 0.0265,0.001 0.0315,0.0075 0.0025,0.003 0.008,0.018 0.0115,0.0275 l -0.043,0.121 -0.0475,-0.1335 c -0.0025,-0.006 -0.0025,-0.007 -0.0025,-0.009 0,-0.0135 0.0195,-0.0135 0.0295,-0.0135 l 0,-0.0155 c 0,0 -0.0545,0.0015 -0.0545,0.0015 0,0 -0.0465,-0.0015 -0.0465,-0.0015 l 0,0.0155 c 0.025,0 0.031,0.0015 0.037,0.0175 l 0.063,0.177 c 0.0025,0.007 0.004,0.011 0.0105,0.011 0.0065,0 0.0075,-0.003 0.01,-0.01 l 0.0505,-0.1415 0.051,0.142 c 0.002,0.0055 0.0035,0.0095 0.01,0.0095 0.0065,0 0.008,-0.0045 0.01,-0.0095 l 0.0585,-0.164 c 0.009,-0.025 0.0245,-0.0315 0.042,-0.032 z"
         id="path123"
         inkscape:connector-curvature="0"
         style="fill:#000000;stroke:none" />
      <path
         d="m -0.79123974,-0.8405 c 0,-0.016 -0.0155,-0.0305 -0.037,-0.0305 -0.0365,0 -0.0545,0.0335 -0.0615,0.055 l 0,-0.055 -0.0695,0.0055 0,0.0155 c 0.035,0 0.039,0.0035 0.039,0.028 l 0,0.134 c 0,0.0225 -0.0055,0.0225 -0.039,0.0225 l 0,0.0155 c 0,0 0.057,-0.0015 0.057,-0.0015 0.02,0 0.0435,0 0.0635,0.0015 l 0,-0.0155 -0.0105,0 c -0.037,0 -0.038,-0.0055 -0.038,-0.0235 l 0,-0.077 c 0,-0.0495 0.021,-0.094 0.059,-0.094 0.0035,0 0.0045,0 0.0055,5e-4 -0.0015,5e-4 -0.0115,0.0065 -0.0115,0.0195 0,0.014 0.0105,0.0215 0.0215,0.0215 0.009,0 0.0215,-0.006 0.0215,-0.022 z"
         id="path125"
         inkscape:connector-curvature="0"
         style="fill:#000000;stroke:none" />
      <path
         d="m -0.66823974,-0.65 0,-0.0155 c -0.033,0 -0.035,-0.0025 -0.035,-0.022 l 0,-0.1835 -0.07,0.0055 0,0.0155 c 0.0325,0 0.037,0.003 0.037,0.0275 l 0,0.1345 c 0,0.0225 -0.0055,0.0225 -0.039,0.0225 l 0,0.0155 c 0,0 0.055,-0.0015 0.055,-0.0015 0.0175,0 0.035,0.001 0.052,0.0015 z m -0.0275,-0.302 c 0,-0.0135 -0.0115,-0.0265 -0.0265,-0.0265 -0.017,0 -0.027,0.014 -0.027,0.0265 0,0.0135 0.0115,0.0265 0.0265,0.0265 0.017,0 0.027,-0.014 0.027,-0.0265 z"
         id="path127"
         inkscape:connector-curvature="0"
         style="fill:#000000;stroke:none" />
      <path
         d="m -0.50373974,-0.712 0,-0.0285 -0.0125,0 0,0.0275 c 0,0.037 -0.015,0.056 -0.0335,0.056 -0.0335,0 -0.0335,-0.0455 -0.0335,-0.054 l 0,-0.139 0.0715,0 0,-0.0155 -0.0715,0 0,-0.092 -0.0125,0 c -5e-4,0.041 -0.0155,0.0945 -0.0645,0.0965 l 0,0.011 0.0425,0 0,0.138 c 0,0.0615 0.0465,0.0675 0.0645,0.0675 0.0355,0 0.0495,-0.0355 0.0495,-0.0675 z"
         id="path129"
         inkscape:connector-curvature="0"
         style="fill:#000000;stroke:none" />
      <path
         d="m -0.27773974,-0.7095 c 0,-0.005 -0.004,-0.006 -0.0065,-0.006 -0.0045,0 -0.0055,0.003 -0.0065,0.007 -0.0175,0.0515 -0.0625,0.0515 -0.0675,0.0515 -0.025,0 -0.045,-0.015 -0.0565,-0.0335 -0.015,-0.024 -0.015,-0.057 -0.015,-0.075 l 0.1395,0 c 0.011,0 0.0125,0 0.0125,-0.0105 0,-0.0495 -0.027,-0.098 -0.0895,-0.098 -0.058,0 -0.104,0.0515 -0.104,0.114 0,0.067 0.0525,0.1155 0.11,0.1155 0.061,0 0.0835,-0.0555 0.0835,-0.065 z m -0.033,-0.0665 -0.1185,0 c 0.003,-0.0745 0.045,-0.087 0.062,-0.087 0.0515,0 0.0565,0.0675 0.0565,0.087 z"
         id="path131"
         inkscape:connector-curvature="0"
         style="fill:#000000;stroke:none" />
      <path
         d="m 0.08876026,-0.694 c 0,-0.003 0,-0.0085 -0.0065,-0.0085 -0.0055,0 -0.0055,0.0045 -0.006,0.008 -0.003,0.0355 -0.0205,0.0445 -0.033,0.0445 -0.0245,0 -0.0285,-0.0255 -0.0355,-0.072 l -0.0065,-0.04 c -0.009,-0.032 -0.0335,-0.0485 -0.061,-0.058 0.0485,-0.012 0.0875,-0.0425 0.0875,-0.0815 0,-0.048 -0.057,-0.09 -0.1305,-0.09 l -0.157,0 0,0.0155 0.012,0 c 0.0385,0 0.0395,0.0055 0.0395,0.0235 l 0,0.2635 c 0,0.018 -0.001,0.0235 -0.0395,0.0235 l -0.012,0 0,0.0155 c 0.018,-0.0015 0.0535,-0.0015 0.073,-0.0015 0.0195,0 0.055,0 0.073,0.0015 l 0,-0.0155 -0.012,0 c -0.0385,0 -0.0395,-0.0055 -0.0395,-0.0235 l 0,-0.1265 0.0575,0 c 0.008,0 0.029,0 0.0465,0.017 0.019,0.018 0.019,0.0335 0.019,0.067 0,0.0325 0,0.0525 0.0205,0.0715 0.0205,0.018 0.048,0.021 0.063,0.021 0.039,0 0.0475,-0.041 0.0475,-0.055 z m -0.1125,-0.2075 c 0,0.0345 -0.012,0.075 -0.086,0.075 l -0.0555,0 0,-0.1295 c 0,-0.0115 0,-0.0175 0.011,-0.019 0.005,-0.001 0.0195,-0.001 0.0295,-0.001 0.045,0 0.101,0.002 0.101,0.0745 z"
         id="path133"
         inkscape:connector-curvature="0"
         style="fill:#000000;stroke:none" />
      <path
         d="m 0.28076026,-0.7095 c 0,-0.005 -0.004,-0.006 -0.0065,-0.006 -0.0045,0 -0.0055,0.003 -0.0065,0.007 -0.0175,0.0515 -0.0625,0.0515 -0.0675,0.0515 -0.025,0 -0.045,-0.015 -0.0565,-0.0335 -0.015,-0.024 -0.015,-0.057 -0.015,-0.075 l 0.1395,0 c 0.011,0 0.0125,0 0.0125,-0.0105 0,-0.0495 -0.027,-0.098 -0.0895,-0.098 -0.058,0 -0.104,0.0515 -0.104,0.114 0,0.067 0.0525,0.1155 0.11,0.1155 0.061,0 0.0835,-0.0555 0.0835,-0.065 z m -0.033,-0.0665 -0.1185,0 c 0.003,-0.0745 0.045,-0.087 0.062,-0.087 0.0515,0 0.0565,0.0675 0.0565,0.087 z"
         id="path135"
         inkscape:connector-curvature="0"
         style="fill:#000000;stroke:none" />
      <path
         d="m 0.52376026,-0.852 c 0,-0.0085 -0.006,-0.0245 -0.0255,-0.0245 -0.01,0 -0.032,0.003 -0.053,0.0235 -0.021,-0.0165 -0.042,-0.018 -0.053,-0.018 -0.0465,0 -0.081,0.0345 -0.081,0.073 0,0.022 0.011,0.041 0.0235,0.0515 -0.0065,0.0075 -0.0155,0.024 -0.0155,0.0415 0,0.0155 0.0065,0.0345 0.022,0.0445 -0.03,0.0085 -0.046,0.03 -0.046,0.05 0,0.036 0.0495,0.0635 0.1105,0.0635 0.059,0 0.111,-0.0255 0.111,-0.0645 0,-0.0175 -0.007,-0.043 -0.0325,-0.057 -0.0265,-0.014 -0.0555,-0.014 -0.086,-0.014 -0.0125,0 -0.034,0 -0.0375,-5e-4 -0.016,-0.002 -0.0265,-0.0175 -0.0265,-0.0335 0,-0.002 0,-0.0135 0.0085,-0.0235 0.0195,0.014 0.04,0.0155 0.0495,0.0155 0.0465,0 0.081,-0.0345 0.081,-0.073 0,-0.0185 -0.008,-0.037 -0.0205,-0.0485 0.018,-0.017 0.036,-0.0195 0.045,-0.0195 0,0 0.0035,0 0.005,5e-4 -0.0055,0.002 -0.008,0.0075 -0.008,0.0135 0,0.0085 0.0065,0.0145 0.0145,0.0145 0.005,0 0.0145,-0.0035 0.0145,-0.015 z m -0.088,0.054 c 0,0.0135 -5e-4,0.0295 -0.008,0.042 -0.004,0.006 -0.0155,0.02 -0.0355,0.02 -0.0435,0 -0.0435,-0.05 -0.0435,-0.0615 0,-0.0135 5e-4,-0.0295 0.008,-0.042 0.004,-0.006 0.0155,-0.02 0.0355,-0.02 0.0435,0 0.0435,0.05 0.0435,0.0615 z m 0.055,0.1875 c 0,0.027 -0.0355,0.052 -0.0845,0.052 -0.0505,0 -0.085,-0.0255 -0.085,-0.052 0,-0.023 0.019,-0.0415 0.041,-0.043 l 0.0295,0 c 0.043,0 0.099,0 0.099,0.043 z"
         id="path137"
         inkscape:connector-curvature="0"
         style="fill:#000000;stroke:none" />
      <path
         d="m 0.99027057,-0.694 c 0,-0.003 0,-0.0085 -0.0065,-0.0085 -0.0055,0 -0.0055,0.0045 -0.006,0.008 -0.003,0.0355 -0.0205,0.0445 -0.033,0.0445 -0.0245,0 -0.0285,-0.0255 -0.0355,-0.072 l -0.0065,-0.04 c -0.009,-0.032 -0.0335,-0.0485 -0.061,-0.058 0.0485,-0.012 0.0875,-0.0425 0.0875,-0.0815 0,-0.048 -0.057,-0.09 -0.1305,-0.09 l -0.157,0 0,0.0155 0.012,0 c 0.0385,0 0.0395,0.0055 0.0395,0.0235 l 0,0.2635 c 0,0.018 -0.001,0.0235 -0.0395,0.0235 l -0.012,0 0,0.0155 c 0.018,-0.0015 0.0535,-0.0015 0.073,-0.0015 0.0195,0 0.055,0 0.073,0.0015 l 0,-0.0155 -0.012,0 c -0.0385,0 -0.0395,-0.0055 -0.0395,-0.0235 l 0,-0.1265 0.0575,0 c 0.008,0 0.029,0 0.0465,0.017 0.019,0.018 0.019,0.0335 0.019,0.067 0,0.0325 0,0.0525 0.0205,0.0715 0.0205,0.018 0.048,0.021 0.063,0.021 0.039,0 0.0475,-0.041 0.0475,-0.055 z m -0.1125,-0.2075 c 0,0.0345 -0.012,0.075 -0.086,0.075 l -0.0555,0 0,-0.1295 c 0,-0.0115 0,-0.0175 0.011,-0.019 0.005,-0.001 0.0195,-0.001 0.0295,-0.001 0.045,0 0.101,0.002 0.101,0.0745 z"
         id="path149"
         inkscape:connector-curvature="0"
         style="fill:#000000;stroke:none" />
      <path
         d="m 1.2172706,-0.972 -0.1215,0 c -0.061,0 -0.062,-0.0065 -0.064,-0.016 l -0.0125,0 -0.0165,0.103 0.0125,0 c 0.0015,-0.008 0.006,-0.0395 0.0125,-0.0455 0.0035,-0.003 0.0425,-0.003 0.049,-0.003 l 0.1035,0 -0.056,0.079 c -0.045,0.0675 -0.0615,0.137 -0.0615,0.188 0,0.005 0,0.0275 0.023,0.0275 0.023,0 0.023,-0.0225 0.023,-0.0275 l 0,-0.0255 c 0,-0.0275 0.0015,-0.055 0.0055,-0.082 0.002,-0.0115 0.009,-0.0545 0.031,-0.0855 l 0.0675,-0.095 c 0.0045,-0.006 0.0045,-0.007 0.0045,-0.0175 z"
         id="path151"
         inkscape:connector-curvature="0"
         style="fill:#000000;stroke:none" />
    </g>
    <g
       font-size="0.5"
       transform="matrix(50,0,0,50,312.86062,204.72838)"
       id="g153"
       style="font-size:0.5px;fill:#ffffff;stroke:#ffffff;stroke-width:0.025;font-family:LMRoman10">
      <circle
         cx="0"
         cy="0"
         r="0.44999999"
         id="circle155"
         d="M 0.44999999,0 C 0.44999999,0.24852813 0.24852813,0.44999999 0,0.44999999 -0.24852813,0.44999999 -0.44999999,0.24852813 -0.44999999,0 c 0,-0.24852813 0.20147186,-0.44999999 0.44999999,-0.44999999 0.24852813,0 0.44999999,0.20147186 0.44999999,0.44999999 z"
         sodipodi:cx="0"
         sodipodi:cy="0"
         sodipodi:rx="0.44999999"
         sodipodi:ry="0.44999999"
         style="stroke:none" />
      <circle
         cx="0"
         cy="0"
         r="0.44999999"
         id="circle157"
         d="M 0.44999999,0 C 0.44999999,0.24852813 0.24852813,0.44999999 0,0.44999999 -0.24852813,0.44999999 -0.44999999,0.24852813 -0.44999999,0 c 0,-0.24852813 0.20147186,-0.44999999 0.44999999,-0.44999999 0.24852813,0 0.44999999,0.20147186 0.44999999,0.44999999 z"
         sodipodi:cx="0"
         sodipodi:cy="0"
         sodipodi:rx="0.44999999"
         sodipodi:ry="0.44999999"
         style="fill:none;stroke:#000000;stroke-width:0.1" />
      <path
         d="m -0.79351942,-0.85 0,-0.0155 c -0.011,0.001 -0.0255,0.0015 -0.0365,0.0015 0,0 -0.0465,-0.0015 -0.0465,-0.0015 l 0,0.0155 c 0.018,5e-4 0.029,0.0095 0.029,0.024 0,0.003 0,0.004 -0.0025,0.0105 l -0.0455,0.128 -0.0495,-0.1395 c -0.002,-0.006 -0.0025,-0.007 -0.0025,-0.0095 0,-0.0135 0.0195,-0.0135 0.0295,-0.0135 l 0,-0.0155 c 0,0 -0.052,0.0015 -0.052,0.0015 -0.015,0 -0.0295,-5e-4 -0.0445,-0.0015 l 0,0.0155 c 0.0185,0 0.0265,0.001 0.0315,0.0075 0.0025,0.003 0.008,0.018 0.0115,0.0275 l -0.043,0.121 -0.0475,-0.1335 c -0.0025,-0.006 -0.0025,-0.007 -0.0025,-0.009 0,-0.0135 0.0195,-0.0135 0.0295,-0.0135 l 0,-0.0155 c 0,0 -0.0545,0.0015 -0.0545,0.0015 0,0 -0.0465,-0.0015 -0.0465,-0.0015 l 0,0.0155 c 0.025,0 0.031,0.0015 0.037,0.0175 l 0.063,0.177 c 0.0025,0.007 0.004,0.011 0.0105,0.011 0.0065,0 0.0075,-0.003 0.01,-0.01 l 0.0505,-0.1415 0.051,0.142 c 0.002,0.0055 0.0035,0.0095 0.01,0.0095 0.0065,0 0.008,-0.0045 0.01,-0.0095 l 0.0585,-0.164 c 0.009,-0.025 0.0245,-0.0315 0.042,-0.032 z"
         id="path159"
         inkscape:connector-curvature="0"
         style="fill:#000000;stroke:none" />
      <path
         d="m -0.61101942,-0.8405 c 0,-0.016 -0.0155,-0.0305 -0.037,-0.0305 -0.0365,0 -0.0545,0.0335 -0.0615,0.055 l 0,-0.055 -0.0695,0.0055 0,0.0155 c 0.035,0 0.039,0.0035 0.039,0.028 l 0,0.134 c 0,0.0225 -0.0055,0.0225 -0.039,0.0225 l 0,0.0155 c 0,0 0.057,-0.0015 0.057,-0.0015 0.02,0 0.0435,0 0.0635,0.0015 l 0,-0.0155 -0.0105,0 c -0.037,0 -0.038,-0.0055 -0.038,-0.0235 l 0,-0.077 c 0,-0.0495 0.021,-0.094 0.059,-0.094 0.0035,0 0.0045,0 0.0055,5e-4 -0.0015,5e-4 -0.0115,0.0065 -0.0115,0.0195 0,0.014 0.0105,0.0215 0.0215,0.0215 0.009,0 0.0215,-0.006 0.0215,-0.022 z"
         id="path161"
         inkscape:connector-curvature="0"
         style="fill:#000000;stroke:none" />
      <path
         d="m -0.48801942,-0.65 0,-0.0155 c -0.033,0 -0.035,-0.0025 -0.035,-0.022 l 0,-0.1835 -0.07,0.0055 0,0.0155 c 0.0325,0 0.037,0.003 0.037,0.0275 l 0,0.1345 c 0,0.0225 -0.0055,0.0225 -0.039,0.0225 l 0,0.0155 c 0,0 0.055,-0.0015 0.055,-0.0015 0.0175,0 0.035,0.001 0.052,0.0015 z m -0.0275,-0.302 c 0,-0.0135 -0.0115,-0.0265 -0.0265,-0.0265 -0.017,0 -0.027,0.014 -0.027,0.0265 0,0.0135 0.0115,0.0265 0.0265,0.0265 0.017,0 0.027,-0.014 0.027,-0.0265 z"
         id="path163"
         inkscape:connector-curvature="0"
         style="fill:#000000;stroke:none" />
      <path
         d="m -0.32351942,-0.712 0,-0.0285 -0.0125,0 0,0.0275 c 0,0.037 -0.015,0.056 -0.0335,0.056 -0.0335,0 -0.0335,-0.0455 -0.0335,-0.054 l 0,-0.139 0.0715,0 0,-0.0155 -0.0715,0 0,-0.092 -0.0125,0 c -5e-4,0.041 -0.0155,0.0945 -0.0645,0.0965 l 0,0.011 0.0425,0 0,0.138 c 0,0.0615 0.0465,0.0675 0.0645,0.0675 0.0355,0 0.0495,-0.0355 0.0495,-0.0675 z"
         id="path165"
         inkscape:connector-curvature="0"
         style="fill:#000000;stroke:none" />
      <path
         d="m -0.09751942,-0.7095 c 0,-0.005 -0.004,-0.006 -0.0065,-0.006 -0.0045,0 -0.0055,0.003 -0.0065,0.007 -0.0175,0.0515 -0.0625,0.0515 -0.0675,0.0515 -0.025,0 -0.045,-0.015 -0.0565,-0.0335 -0.015,-0.024 -0.015,-0.057 -0.015,-0.075 l 0.1395,0 c 0.011,0 0.0125,0 0.0125,-0.0105 0,-0.0495 -0.027,-0.098 -0.0895,-0.098 -0.058,0 -0.104,0.0515 -0.104,0.114 0,0.067 0.0525,0.1155 0.11,0.1155 0.061,0 0.0835,-0.0555 0.0835,-0.065 z m -0.033,-0.0665 -0.1185,0 c 0.003,-0.0745 0.045,-0.087 0.062,-0.087 0.0515,0 0.0565,0.0675 0.0565,0.087 z"
         id="path167"
         inkscape:connector-curvature="0"
         style="fill:#000000;stroke:none" />
      <path
         d="m 0.26898058,-0.694 c 0,-0.003 0,-0.0085 -0.0065,-0.0085 -0.0055,0 -0.0055,0.0045 -0.006,0.008 -0.003,0.0355 -0.0205,0.0445 -0.033,0.0445 -0.0245,0 -0.0285,-0.0255 -0.0355,-0.072 l -0.0065,-0.04 c -0.009,-0.032 -0.0335,-0.0485 -0.061,-0.058 0.0485,-0.012 0.0875,-0.0425 0.0875,-0.0815 0,-0.048 -0.057,-0.09 -0.1305,-0.09 l -0.157,0 0,0.0155 0.012,0 c 0.0385,0 0.0395,0.0055 0.0395,0.0235 l 0,0.2635 c 0,0.018 -0.001,0.0235 -0.0395,0.0235 l -0.012,0 0,0.0155 c 0.018,-0.0015 0.0535,-0.0015 0.073,-0.0015 0.0195,0 0.055,0 0.073,0.0015 l 0,-0.0155 -0.012,0 c -0.0385,0 -0.0395,-0.0055 -0.0395,-0.0235 l 0,-0.1265 0.0575,0 c 0.008,0 0.029,0 0.0465,0.017 0.019,0.018 0.019,0.0335 0.019,0.067 0,0.0325 0,0.0525 0.0205,0.0715 0.0205,0.018 0.048,0.021 0.063,0.021 0.039,0 0.0475,-0.041 0.0475,-0.055 z m -0.1125,-0.2075 c 0,0.0345 -0.012,0.075 -0.086,0.075 l -0.0555,0 0,-0.1295 c 0,-0.0115 0,-0.0175 0.011,-0.019 0.005,-0.001 0.0195,-0.001 0.0295,-0.001 0.045,0 0.101,0.002 0.101,0.0745 z"
         id="path169"
         inkscape:connector-curvature="0"
         style="fill:#000000;stroke:none" />
      <path
         d="m 0.46098058,-0.7095 c 0,-0.005 -0.004,-0.006 -0.0065,-0.006 -0.0045,0 -0.0055,0.003 -0.0065,0.007 -0.0175,0.0515 -0.0625,0.0515 -0.0675,0.0515 -0.025,0 -0.045,-0.015 -0.0565,-0.0335 -0.015,-0.024 -0.015,-0.057 -0.015,-0.075 l 0.1395,0 c 0.011,0 0.0125,0 0.0125,-0.0105 0,-0.0495 -0.027,-0.098 -0.0895,-0.098 -0.058,0 -0.104,0.0515 -0.104,0.114 0,0.067 0.0525,0.1155 0.11,0.1155 0.061,0 0.0835,-0.0555 0.0835,-0.065 z m -0.033,-0.0665 -0.1185,0 c 0.003,-0.0745 0.045,-0.087 0.062,-0.087 0.0515,0 0.0565,0.0675 0.0565,0.087 z"
         id="path171"
         inkscape:connector-curvature="0"
         style="fill:#000000;stroke:none" />
      <path
         d="m 0.70398058,-0.852 c 0,-0.0085 -0.006,-0.0245 -0.0255,-0.0245 -0.01,0 -0.032,0.003 -0.053,0.0235 -0.021,-0.0165 -0.042,-0.018 -0.053,-0.018 -0.0465,0 -0.081,0.0345 -0.081,0.073 0,0.022 0.011,0.041 0.0235,0.0515 -0.0065,0.0075 -0.0155,0.024 -0.0155,0.0415 0,0.0155 0.0065,0.0345 0.022,0.0445 -0.03,0.0085 -0.046,0.03 -0.046,0.05 0,0.036 0.0495,0.0635 0.1105,0.0635 0.059,0 0.111,-0.0255 0.111,-0.0645 0,-0.0175 -0.007,-0.043 -0.0325,-0.057 -0.0265,-0.014 -0.0555,-0.014 -0.086,-0.014 -0.0125,0 -0.034,0 -0.0375,-5e-4 -0.016,-0.002 -0.0265,-0.0175 -0.0265,-0.0335 0,-0.002 0,-0.0135 0.0085,-0.0235 0.0195,0.014 0.04,0.0155 0.0495,0.0155 0.0465,0 0.081,-0.0345 0.081,-0.073 0,-0.0185 -0.008,-0.037 -0.0205,-0.0485 0.018,-0.017 0.036,-0.0195 0.045,-0.0195 0,0 0.0035,0 0.005,5e-4 -0.0055,0.002 -0.008,0.0075 -0.008,0.0135 0,0.0085 0.0065,0.0145 0.0145,0.0145 0.005,0 0.0145,-0.0035 0.0145,-0.015 z m -0.088,0.054 c 0,0.0135 -5e-4,0.0295 -0.008,0.042 -0.004,0.006 -0.0155,0.02 -0.0355,0.02 -0.0435,0 -0.0435,-0.05 -0.0435,-0.0615 0,-0.0135 5e-4,-0.0295 0.008,-0.042 0.004,-0.006 0.0155,-0.02 0.0355,-0.02 0.0435,0 0.0435,0.05 0.0435,0.0615 z m 0.055,0.1875 c 0,0.027 -0.0355,0.052 -0.0845,0.052 -0.0505,0 -0.085,-0.0255 -0.085,-0.052 0,-0.023 0.019,-0.0415 0.041,-0.043 l 0.0295,0 c 0.043,0 0.099,0 0.099,0.043 z"
         id="path173"
         inkscape:connector-curvature="0"
         style="fill:#000000;stroke:none" />
      <path
         d="m 1.1591343,-0.694 c 0,-0.003 0,-0.0085 -0.0065,-0.0085 -0.0055,0 -0.0055,0.0045 -0.006,0.008 -0.003,0.0355 -0.0205,0.0445 -0.033,0.0445 -0.0245,0 -0.0285,-0.0255 -0.0355,-0.072 l -0.0065,-0.04 c -0.009,-0.032 -0.0335,-0.0485 -0.061,-0.058 0.0485,-0.012 0.0875,-0.0425 0.0875,-0.0815 0,-0.048 -0.057,-0.09 -0.1305,-0.09 l -0.157,0 0,0.0155 0.012,0 c 0.0385,0 0.0395,0.0055 0.0395,0.0235 l 0,0.2635 c 0,0.018 -0.001,0.0235 -0.0395,0.0235 l -0.012,0 0,0.0155 c 0.018,-0.0015 0.0535,-0.0015 0.073,-0.0015 0.0195,0 0.055,0 0.073,0.0015 l 0,-0.0155 -0.012,0 c -0.0385,0 -0.0395,-0.0055 -0.0395,-0.0235 l 0,-0.1265 0.0575,0 c 0.008,0 0.029,0 0.0465,0.017 0.019,0.018 0.019,0.0335 0.019,0.067 0,0.0325 0,0.0525 0.0205,0.0715 0.0205,0.018 0.048,0.021 0.063,0.021 0.039,0 0.0475,-0.041 0.0475,-0.055 z m -0.1125,-0.2075 c 0,0.0345 -0.012,0.075 -0.086,0.075 l -0.0555,0 0,-0.1295 c 0,-0.0115 0,-0.0175 0.011,-0.019 0.005,-0.001 0.0195,-0.001 0.0295,-0.001 0.045,0 0.101,0.002 0.101,0.0745 z"
         id="path185"
         inkscape:connector-curvature="0"
         style="fill:#000000;stroke:none" />
      <path
         d="m 1.3861343,-0.972 -0.1215,0 c -0.061,0 -0.062,-0.0065 -0.064,-0.016 l -0.0125,0 -0.0165,0.103 0.0125,0 c 0.0015,-0.008 0.006,-0.0395 0.0125,-0.0455 0.0035,-0.003 0.0425,-0.003 0.049,-0.003 l 0.1035,0 -0.056,0.079 c -0.045,0.0675 -0.0615,0.137 -0.0615,0.188 0,0.005 0,0.0275 0.023,0.0275 0.023,0 0.023,-0.0225 0.023,-0.0275 l 0,-0.0255 c 0,-0.0275 0.0015,-0.055 0.0055,-0.082 0.002,-0.0115 0.009,-0.0545 0.031,-0.0855 l 0.0675,-0.095 c 0.0045,-0.006 0.0045,-0.007 0.0045,-0.0175 z"
         id="path187"
         inkscape:connector-curvature="0"
         style="fill:#000000;stroke:none" />
    </g>
    <g
       font-size="0.5"
       transform="matrix(50,0,0,50,482.91095,190.4533)"
       id="g189"
       style="font-size:0.5px;fill:#ffffff;stroke:#ffffff;stroke-width:0.025;font-family:LMRoman10">
      <circle
         cx="0"
         cy="0"
         r="0.44999999"
         id="circle191"
         d="M 0.44999999,0 C 0.44999999,0.24852813 0.24852813,0.44999999 0,0.44999999 -0.24852813,0.44999999 -0.44999999,0.24852813 -0.44999999,0 c 0,-0.24852813 0.20147186,-0.44999999 0.44999999,-0.44999999 0.24852813,0 0.44999999,0.20147186 0.44999999,0.44999999 z"
         sodipodi:cx="0"
         sodipodi:cy="0"
         sodipodi:rx="0.44999999"
         sodipodi:ry="0.44999999"
         style="stroke:none"
         transform="translate(0,0.28550162)" />
      <circle
         cx="0"
         cy="0"
         r="0.44999999"
         id="circle193"
         d="M 0.44999999,0 C 0.44999999,0.24852813 0.24852813,0.44999999 0,0.44999999 -0.24852813,0.44999999 -0.44999999,0.24852813 -0.44999999,0 c 0,-0.24852813 0.20147186,-0.44999999 0.44999999,-0.44999999 0.24852813,0 0.44999999,0.20147186 0.44999999,0.44999999 z"
         sodipodi:cx="0"
         sodipodi:cy="0"
         sodipodi:rx="0.44999999"
         sodipodi:ry="0.44999999"
         style="fill:none;stroke:#000000;stroke-width:0.1"
         transform="translate(0,0.28550162)" />
      <path
         d="m -0.78054207,-0.56449838 0,-0.0155 c -0.011,0.001 -0.0255,0.0015 -0.0365,0.0015 0,0 -0.0465,-0.0015 -0.0465,-0.0015 l 0,0.0155 c 0.018,5e-4 0.029,0.0095 0.029,0.024 0,0.003 0,0.004 -0.0025,0.0105 l -0.0455,0.128 -0.0495,-0.1395 c -0.002,-0.006 -0.0025,-0.007 -0.0025,-0.0095 0,-0.0135 0.0195,-0.0135 0.0295,-0.0135 l 0,-0.0155 c 0,0 -0.052,0.0015 -0.052,0.0015 -0.015,0 -0.0295,-5e-4 -0.0445,-0.0015 l 0,0.0155 c 0.0185,0 0.0265,0.001 0.0315,0.0075 0.0025,0.003 0.008,0.018 0.0115,0.0275 l -0.043,0.121 -0.0475,-0.1335 c -0.0025,-0.006 -0.0025,-0.007 -0.0025,-0.009 0,-0.0135 0.0195,-0.0135 0.0295,-0.0135 l 0,-0.0155 c 0,0 -0.0545,0.0015 -0.0545,0.0015 0,0 -0.0465,-0.0015 -0.0465,-0.0015 l 0,0.0155 c 0.025,0 0.031,0.0015 0.037,0.0175 l 0.063,0.177 c 0.0025,0.007 0.004,0.011 0.0105,0.011 0.0065,0 0.0075,-0.003 0.01,-0.01 l 0.0505,-0.1415 0.051,0.142 c 0.002,0.0055 0.0035,0.0095 0.01,0.0095 0.0065,0 0.008,-0.0045 0.01,-0.0095 l 0.0585,-0.164 c 0.009,-0.025 0.0245,-0.0315 0.042,-0.032 z"
         id="path195"
         inkscape:connector-curvature="0"
         style="fill:#000000;stroke:none" />
      <path
         d="m -0.59804207,-0.55499838 c 0,-0.016 -0.0155,-0.0305 -0.037,-0.0305 -0.0365,0 -0.0545,0.0335 -0.0615,0.055 l 0,-0.055 -0.0695,0.0055 0,0.0155 c 0.035,0 0.039,0.0035 0.039,0.028 l 0,0.134 c 0,0.0225 -0.0055,0.0225 -0.039,0.0225 l 0,0.0155 c 0,0 0.057,-0.0015 0.057,-0.0015 0.02,0 0.0435,0 0.0635,0.0015 l 0,-0.0155 -0.0105,0 c -0.037,0 -0.038,-0.0055 -0.038,-0.0235 l 0,-0.077 c 0,-0.0495 0.021,-0.094 0.059,-0.094 0.0035,0 0.0045,0 0.0055,5e-4 -0.0015,5e-4 -0.0115,0.0065 -0.0115,0.0195 0,0.014 0.0105,0.0215 0.0215,0.0215 0.009,0 0.0215,-0.006 0.0215,-0.022 z"
         id="path197"
         inkscape:connector-curvature="0"
         style="fill:#000000;stroke:none" />
      <path
         d="m -0.47504207,-0.36449838 0,-0.0155 c -0.033,0 -0.035,-0.0025 -0.035,-0.022 l 0,-0.1835 -0.07,0.0055 0,0.0155 c 0.0325,0 0.037,0.003 0.037,0.0275 l 0,0.1345 c 0,0.0225 -0.0055,0.0225 -0.039,0.0225 l 0,0.0155 c 0,0 0.055,-0.0015 0.055,-0.0015 0.0175,0 0.035,0.001 0.052,0.0015 z m -0.0275,-0.302 c 0,-0.0135 -0.0115,-0.0265 -0.0265,-0.0265 -0.017,0 -0.027,0.014 -0.027,0.0265 0,0.0135 0.0115,0.0265 0.0265,0.0265 0.017,0 0.027,-0.014 0.027,-0.0265 z"
         id="path199"
         inkscape:connector-curvature="0"
         style="fill:#000000;stroke:none" />
      <path
         d="m -0.31054207,-0.42649838 0,-0.0285 -0.0125,0 0,0.0275 c 0,0.037 -0.015,0.056 -0.0335,0.056 -0.0335,0 -0.0335,-0.0455 -0.0335,-0.054 l 0,-0.139 0.0715,0 0,-0.0155 -0.0715,0 0,-0.092 -0.0125,0 c -5e-4,0.041 -0.0155,0.0945 -0.0645,0.0965 l 0,0.011 0.0425,0 0,0.138 c 0,0.0615 0.0465,0.0675 0.0645,0.0675 0.0355,0 0.0495,-0.0355 0.0495,-0.0675 z"
         id="path201"
         inkscape:connector-curvature="0"
         style="fill:#000000;stroke:none" />
      <path
         d="m -0.08454207,-0.42399838 c 0,-0.005 -0.004,-0.006 -0.0065,-0.006 -0.0045,0 -0.0055,0.003 -0.0065,0.007 -0.0175,0.0515 -0.0625,0.0515 -0.0675,0.0515 -0.025,0 -0.045,-0.015 -0.0565,-0.0335 -0.015,-0.024 -0.015,-0.057 -0.015,-0.075 l 0.1395,0 c 0.011,0 0.0125,0 0.0125,-0.0105 0,-0.0495 -0.027,-0.098 -0.0895,-0.098 -0.058,0 -0.104,0.0515 -0.104,0.114 0,0.067 0.0525,0.1155 0.11,0.1155 0.061,0 0.0835,-0.0555 0.0835,-0.065 z m -0.033,-0.0665 -0.1185,0 c 0.003,-0.0745 0.045,-0.087 0.062,-0.087 0.0515,0 0.0565,0.0675 0.0565,0.087 z"
         id="path203"
         inkscape:connector-curvature="0"
         style="fill:#000000;stroke:none" />
      <path
         d="m 0.28195793,-0.40849838 c 0,-0.003 0,-0.0085 -0.0065,-0.0085 -0.0055,0 -0.0055,0.0045 -0.006,0.008 -0.003,0.0355 -0.0205,0.0445 -0.033,0.0445 -0.0245,0 -0.0285,-0.0255 -0.0355,-0.072 l -0.0065,-0.04 c -0.009,-0.032 -0.0335,-0.0485 -0.061,-0.058 0.0485,-0.012 0.0875,-0.0425 0.0875,-0.0815 0,-0.048 -0.057,-0.09 -0.1305,-0.09 l -0.157,0 0,0.0155 0.012,0 c 0.0385,0 0.0395,0.0055 0.0395,0.0235 l 0,0.2635 c 0,0.018 -10e-4,0.0235 -0.0395,0.0235 l -0.012,0 0,0.0155 c 0.018,-0.0015 0.0535,-0.0015 0.073,-0.0015 0.0195,0 0.055,0 0.073,0.0015 l 0,-0.0155 -0.012,0 c -0.0385,0 -0.0395,-0.0055 -0.0395,-0.0235 l 0,-0.1265 0.0575,0 c 0.008,0 0.029,0 0.0465,0.017 0.019,0.018 0.019,0.0335 0.019,0.067 0,0.0325 0,0.0525 0.0205,0.0715 0.0205,0.018 0.048,0.021 0.063,0.021 0.039,0 0.0475,-0.041 0.0475,-0.055 z m -0.1125,-0.2075 c 0,0.0345 -0.012,0.075 -0.086,0.075 l -0.0555,0 0,-0.1295 c 0,-0.0115 0,-0.0175 0.011,-0.019 0.005,-0.001 0.0195,-0.001 0.0295,-0.001 0.045,0 0.101,0.002 0.101,0.0745 z"
         id="path205"
         inkscape:connector-curvature="0"
         style="fill:#000000;stroke:none" />
      <path
         d="m 0.47395793,-0.42399838 c 0,-0.005 -0.004,-0.006 -0.0065,-0.006 -0.0045,0 -0.0055,0.003 -0.0065,0.007 -0.0175,0.0515 -0.0625,0.0515 -0.0675,0.0515 -0.025,0 -0.045,-0.015 -0.0565,-0.0335 -0.015,-0.024 -0.015,-0.057 -0.015,-0.075 l 0.1395,0 c 0.011,0 0.0125,0 0.0125,-0.0105 0,-0.0495 -0.027,-0.098 -0.0895,-0.098 -0.058,0 -0.104,0.0515 -0.104,0.114 0,0.067 0.0525,0.1155 0.11,0.1155 0.061,0 0.0835,-0.0555 0.0835,-0.065 z m -0.033,-0.0665 -0.1185,0 c 0.003,-0.0745 0.045,-0.087 0.062,-0.087 0.0515,0 0.0565,0.0675 0.0565,0.087 z"
         id="path207"
         inkscape:connector-curvature="0"
         style="fill:#000000;stroke:none" />
      <path
         d="m 0.71695793,-0.56649838 c 0,-0.0085 -0.006,-0.0245 -0.0255,-0.0245 -0.01,0 -0.032,0.003 -0.053,0.0235 -0.021,-0.0165 -0.042,-0.018 -0.053,-0.018 -0.0465,0 -0.081,0.0345 -0.081,0.073 0,0.022 0.011,0.041 0.0235,0.0515 -0.0065,0.0075 -0.0155,0.024 -0.0155,0.0415 0,0.0155 0.0065,0.0345 0.022,0.0445 -0.03,0.0085 -0.046,0.03 -0.046,0.05 0,0.036 0.0495,0.0635 0.1105,0.0635 0.059,0 0.111,-0.0255 0.111,-0.0645 0,-0.0175 -0.007,-0.043 -0.0325,-0.057 -0.0265,-0.014 -0.0555,-0.014 -0.086,-0.014 -0.0125,0 -0.034,0 -0.0375,-5e-4 -0.016,-0.002 -0.0265,-0.0175 -0.0265,-0.0335 0,-0.002 0,-0.0135 0.0085,-0.0235 0.0195,0.014 0.04,0.0155 0.0495,0.0155 0.0465,0 0.081,-0.0345 0.081,-0.073 0,-0.0185 -0.008,-0.037 -0.0205,-0.0485 0.018,-0.017 0.036,-0.0195 0.045,-0.0195 0,0 0.0035,0 0.005,5e-4 -0.0055,0.002 -0.008,0.0075 -0.008,0.0135 0,0.0085 0.0065,0.0145 0.0145,0.0145 0.005,0 0.0145,-0.0035 0.0145,-0.015 z m -0.088,0.054 c 0,0.0135 -5e-4,0.0295 -0.008,0.042 -0.004,0.006 -0.0155,0.02 -0.0355,0.02 -0.0435,0 -0.0435,-0.05 -0.0435,-0.0615 0,-0.0135 5e-4,-0.0295 0.008,-0.042 0.004,-0.006 0.0155,-0.02 0.0355,-0.02 0.0435,0 0.0435,0.05 0.0435,0.0615 z m 0.055,0.1875 c 0,0.027 -0.0355,0.052 -0.0845,0.052 -0.0505,0 -0.085,-0.0255 -0.085,-0.052 0,-0.023 0.019,-0.0415 0.041,-0.043 l 0.0295,0 c 0.043,0 0.099,0 0.099,0.043 z"
         id="path209"
         inkscape:connector-curvature="0"
         style="fill:#000000;stroke:none" />
      <path
         d="m 1.185089,-0.40849838 c 0,-0.003 0,-0.0085 -0.0065,-0.0085 -0.0055,0 -0.0055,0.0045 -0.006,0.008 -0.003,0.0355 -0.0205,0.0445 -0.033,0.0445 -0.0245,0 -0.0285,-0.0255 -0.0355,-0.072 l -0.0065,-0.04 c -0.009,-0.032 -0.0335,-0.0485 -0.061,-0.058 0.0485,-0.012 0.0875,-0.0425 0.0875,-0.0815 0,-0.048 -0.057,-0.09 -0.1305,-0.09 l -0.157,0 0,0.0155 0.012,0 c 0.0385,0 0.0395,0.0055 0.0395,0.0235 l 0,0.2635 c 0,0.018 -0.001,0.0235 -0.0395,0.0235 l -0.012,0 0,0.0155 c 0.018,-0.0015 0.0535,-0.0015 0.073,-0.0015 0.0195,0 0.055,0 0.073,0.0015 l 0,-0.0155 -0.012,0 c -0.0385,0 -0.0395,-0.0055 -0.0395,-0.0235 l 0,-0.1265 0.0575,0 c 0.008,0 0.029,0 0.0465,0.017 0.019,0.018 0.019,0.0335 0.019,0.067 0,0.0325 0,0.0525 0.0205,0.0715 0.0205,0.018 0.048,0.021 0.063,0.021 0.039,0 0.0475,-0.041 0.0475,-0.055 z m -0.1125,-0.2075 c 0,0.0345 -0.012,0.075 -0.086,0.075 l -0.0555,0 0,-0.1295 c 0,-0.0115 0,-0.0175 0.011,-0.019 0.005,-0.001 0.0195,-0.001 0.0295,-0.001 0.045,0 0.101,0.002 0.101,0.0745 z"
         id="path221"
         inkscape:connector-curvature="0"
         style="fill:#000000;stroke:none" />
      <path
         d="m 1.412089,-0.68649838 -0.1215,0 c -0.061,0 -0.062,-0.0065 -0.064,-0.016 l -0.0125,0 -0.0165,0.103 0.0125,0 c 0.0015,-0.008 0.006,-0.0395 0.0125,-0.0455 0.0035,-0.003 0.0425,-0.003 0.049,-0.003 l 0.1035,0 -0.056,0.079 c -0.045,0.0675 -0.0615,0.137 -0.0615,0.188 0,0.005 0,0.0275 0.023,0.0275 0.023,0 0.023,-0.0225 0.023,-0.0275 l 0,-0.0255 c 0,-0.0275 0.0015,-0.055 0.0055,-0.082 0.002,-0.0115 0.009,-0.0545 0.031,-0.0855 l 0.0675,-0.095 c 0.0045,-0.006 0.0045,-0.007 0.0045,-0.0175 z"
         id="path223"
         inkscape:connector-curvature="0"
         style="fill:#000000;stroke:none" />
    </g>
    <g
       font-size="0.5"
       transform="matrix(39.786046,0,0,50.773492,825.57697,77.79465)"
       id="g225"
       style="font-size:0.5px;stroke-width:0.02;font-family:LMRoman10">
      <path
         d="m -12.3,2.5 2.7,0"
         id="path227"
         inkscape:connector-curvature="0"
         style="fill:none" />
      <path
         d="m -9.6,2.425 0,0.15 0.4,-0.075 z"
         id="path229"
         inkscape:connector-curvature="0"
         style="stroke:none" />
    </g>
    <path
       style="fill:none;stroke:#000000;stroke-width:2.5;stroke-linecap:butt;stroke-linejoin:miter;stroke-miterlimit:10;stroke-opacity:1;stroke-dasharray:none"
       d="m 288.42255,132.06634 221.26172,0"
       id="path3210"
       inkscape:connector-curvature="0" />
    <path
       style="fill:none;stroke:#000000;stroke-width:2.5;stroke-linecap:butt;stroke-linejoin:miter;stroke-miterlimit:10;stroke-opacity:1;stroke-dasharray:none"
       d="m 399.70227,24.354368 0,83.703882"
       id="path3212"
       inkscape:connector-curvature="0" />
    <path
       style="fill:none;stroke:#000000;stroke-width:3.27628446;stroke-linecap:butt;stroke-linejoin:miter;stroke-miterlimit:10;stroke-opacity:1;stroke-dasharray:none"
       d="m 231.1688,106.18569 7.44057,11.16085 22.32167,-25.510496"
       id="path3982"
       inkscape:connector-curvature="0" />
    <text
       xml:space="preserve"
       style="font-size:20px;font-style:normal;font-variant:normal;font-weight:normal;font-stretch:normal;text-align:center;line-height:125%;letter-spacing:0px;word-spacing:0px;text-anchor:middle;fill:#000000;fill-opacity:1;stroke:none;font-family:Serif;-inkscape-font-specification:Sans"
       x="204.64288"
       y="115.84468"
       id="text3984"
       sodipodi:linespacing="125%"><tspan
         sodipodi:role="line"
         id="tspan3986"
         x="204.64288"
         y="115.84468"
         style="font-size:24px">(a)</tspan></text>
    <text
       xml:space="preserve"
       style="font-size:20px;font-style:normal;font-variant:normal;font-weight:normal;font-stretch:normal;text-align:center;line-height:125%;letter-spacing:0px;word-spacing:0px;text-anchor:middle;fill:#000000;fill-opacity:1;stroke:none;font-family:Serif;-inkscape-font-specification:Sans"
       x="543.16638"
       y="117.76334"
       id="text3984-0"
       sodipodi:linespacing="125%"><tspan
         sodipodi:role="line"
         id="tspan3986-3"
         x="543.16638"
         y="117.76334"
         style="font-size:24px">(b)</tspan></text>
    <text
       xml:space="preserve"
       style="font-size:20px;font-style:normal;font-variant:normal;font-weight:normal;font-stretch:normal;text-align:center;line-height:125%;letter-spacing:0px;word-spacing:0px;text-anchor:middle;fill:#000000;fill-opacity:1;stroke:none;font-family:Serif;-inkscape-font-specification:Sans"
       x="379.78848"
       y="255.78876"
       id="text3984-9"
       sodipodi:linespacing="125%"><tspan
         sodipodi:role="line"
         id="tspan3986-7"
         x="379.78848"
         y="255.78876"
         style="font-size:24px">(c)</tspan></text>
    <path
       style="fill:none;stroke:#000000;stroke-width:3.0141201;stroke-linecap:butt;stroke-linejoin:miter;stroke-miterlimit:10;stroke-opacity:1;stroke-dasharray:none"
       d="M 569.63562,120.3534 593.34927,94.439518"
       id="path4023"
       inkscape:connector-curvature="0" />
    <path
       style="fill:none;stroke:#000000;stroke-width:2.91556215;stroke-linecap:butt;stroke-linejoin:miter;stroke-miterlimit:10;stroke-opacity:1;stroke-dasharray:none"
       d="m 569.34988,94.863198 23.17471,25.539482"
       id="path4025"
       inkscape:connector-curvature="0" />
    <path
       style="fill:none;stroke:#000000;stroke-width:3.27628446;stroke-linecap:butt;stroke-linejoin:miter;stroke-miterlimit:10;stroke-opacity:1;stroke-dasharray:none"
       d="m 405.74713,246.35929 7.44057,11.16085 22.32166,-25.51049"
       id="path3982-3"
       inkscape:connector-curvature="0" />
  </g>
</svg>
